<svg xmlns="http://www.w3.org/2000/svg" xmlns:xlink="http://www.w3.org/1999/xlink" viewBox="0 0 640 640" width="400" height="400"><defs><path d="M34 26.97h401v200H34v-200z" id="a"/><path d="M410 62v99H59V62h351z" id="b"/><path d="M199.04 96c3.04 0 5.72.59 8.04 1.76 2.35 1.15 4.16 2.77 5.44 4.88 1.31 2.11 1.96 4.56 1.96 7.36 0 2.8-.65 5.25-1.96 7.36-1.28 2.11-3.09 3.75-5.44 4.92-2.32 1.15-5 1.72-8.04 1.72h-12.72V96h12.72zm6.36 20.36c1.68-1.57 2.52-3.69 2.52-6.36 0-2.67-.84-4.77-2.52-6.32-1.65-1.57-3.88-2.36-6.68-2.36h-5.92v17.36h5.92c3.35-.52 5.58-1.29 6.68-2.32zm46.19 7.64h-6.96l-6.16-18.96-6.36 18.96h-6.92l-9.2-28h6.72l6.32 19.68 6.6-19.68h6l6.4 19.84L254.55 96h6.2l-9.16 28zm30.13-6l-2.48 6h-6.64l12.48-28h6.4L304 124h-6.8l-2.48-6h-13zm6.52-15.64l-4.44 10.72h8.88l-4.44-10.72zm43.12 7.2v11.36c-1.52 1.15-3.28 2.03-5.28 2.64-2 .61-4.02.92-6.04.92-2.91 0-5.52-.61-7.84-1.84-2.32-1.25-4.15-2.97-5.49-5.16-1.3-2.21-1.95-4.71-1.95-7.48 0-2.77.65-5.25 1.95-7.44 1.34-2.21 3.18-3.93 5.53-5.16 2.34-1.25 4.98-1.88 7.91-1.88 2.46 0 4.68.41 6.68 1.24 2.01.83 3.69 2.03 5.05 3.6-.42.38-3.75 3.46-4.16 3.84-2.01-2.11-4.42-3.16-7.24-3.16-1.79 0-3.38.37-4.77 1.12-1.38.75-2.46 1.8-3.23 3.16-.78 1.36-1.16 2.92-1.16 4.68 0 1.73.38 3.28 1.16 4.64a8.338 8.338 0 003.2 3.2c1.38.75 2.96 1.12 4.72 1.12 1.86 0 3.54-.4 5.04-1.2-.01-.55-.01-3.28 0-8.2h5.92zm18.46 6.64h-5.96v7.8h-6.48V96h12.12c2.48 0 4.62.41 6.44 1.24 1.84.83 3.25 2 4.24 3.52.98 1.52 1.48 3.32 1.48 5.4 0 2.08-.51 3.88-1.52 5.4-.99 1.49-2.4 2.64-4.24 3.44.41.6 2.51 3.6 6.28 9h-6.96l-5.4-7.8zm3.76-13.64c-1.02-.85-2.5-1.28-4.44-1.28h-5.28v9.76h5.28c1.94 0 3.42-.43 4.44-1.28 1.01-.85 1.52-2.05 1.52-3.6 0-1.57-.51-2.77-1.52-3.6zm18.89 20.04c-2.32-1.25-4.15-2.97-5.48-5.16-1.31-2.21-1.96-4.69-1.96-7.44s.65-5.21 1.96-7.4c1.33-2.21 3.16-3.95 5.48-5.2 2.35-1.25 4.97-1.88 7.88-1.88s5.52.63 7.84 1.88c2.32 1.25 4.15 2.99 5.48 5.2 1.33 2.19 2 4.65 2 7.4s-.67 5.23-2 7.44c-1.33 2.19-3.16 3.91-5.48 5.16-2.32 1.25-4.93 1.88-7.84 1.88s-5.53-.63-7.88-1.88zm12.36-4.76a8.204 8.204 0 003.12-3.2c.77-1.36 1.16-2.91 1.16-4.64 0-1.73-.39-3.28-1.16-4.64a7.97 7.97 0 00-3.12-3.16c-1.33-.77-2.83-1.16-4.48-1.16-1.65 0-3.15.39-4.48 1.16-1.33.75-2.39 1.8-3.16 3.16-.75 1.36-1.12 2.91-1.12 4.64 0 1.73.37 3.28 1.12 4.64a8.445 8.445 0 003.16 3.2c1.33.75 2.83 1.12 4.48 1.12 1.65 0 3.15-.37 4.48-1.12z" id="c"/><path d="M159 65v93H62V65h97z" id="d"/><path d="M130.93 92.04c-6.28 5.53-56.51 49.83-62.78 55.36-.15.13-.42.13-.57 0-.11-.1-.11-.23 0-.33 6.28-5.53 56.51-49.83 62.79-55.36a.45.45 0 01.56 0c.11.1.11.23 0 .33z" id="e"/><path d="M121.7 101.03l3.27 2.89c-.11.28-.18.43-.19.46 1.99.82 4.72 1.31 7.73 1.31 1.11 0 2.18-.13 3.2-.36 2.21-.49 4.13-1.39 5.5-2.24.93-.57 1.59-1.02 1.84-1.23.04-.04.23-.2.58-.49-.4-.2-.62-.32-.67-.34-.43-.22-1.88-.81-3.85-1.51-1.61-.56-3.53-1.1-5.53-1.42-1.45-.23-2.94-.36-4.37-.36-1.9 0-3.69.22-5.05.74-1.19.46-2.18 1.19-2.41 2.33l-.03.22h-.02zm2.73 3.81c-2.29-.95-3.46-2.22-3.46-3.48 0-.2.02-.41.07-.62.24-1.21 1.21-2.12 2.79-2.72 1.44-.55 3.32-.8 5.38-.8 1.45 0 3 .13 4.52.37 2.05.33 4.03.88 5.69 1.47 1.38.48 2.56 1.03 3.41 1.5.42.23.75.44.97.6.12.09.19.15.24.2h.01c-.01.02-.03.07-.1.18-.09.14-.24.32-.45.54-.42.42-1.04.92-1.83 1.4-1.44.89-3.45 1.84-5.76 2.35-1.09.24-2.23.39-3.4.39-3.16 0-6.01-.54-8.07-1.38h-.01zm19.64-3.45z" id="f"/><path d="M143.67 101.17h2.3c.27 0 .37.17.37.26s-.1.26-.37.26h-2.3c-.26 0-.36-.17-.36-.26s.1-.26.36-.26z" id="g"/><path d="M117.39 82.23c.55-.69 1.12-1.23 1.6-1.6.24-.19.45-.32.61-.41.18-.08.26-.1.27-.1h.05c.01 0 .03 0 .04.01.01 0 .02.01.03.02.05.04.13.11.22.21.18.19.42.48.68.85.53.74 1.15 1.78 1.69 2.99.66 1.46 1.29 3.2 1.66 4.99.27 1.33.42 2.69.42 3.96 0 1.79-.29 3.43-.9 4.67-.66 1.35-1.68 2.24-3.13 2.47-.25.04-.49.06-.74.06h-.01c-1.54-.01-2.97-1.09-4.01-3.06-.95-1.8-1.55-4.29-1.55-7.05 0-1.02.16-2.02.43-2.96.57-2.02 1.64-3.78 2.64-5.05zm-3.12 4.91l.48.14-.48-.14zm5.91-6.2c-.02-.03-.13-.2-.33-.49-.26.24-.4.38-.43.4-.24.23-.75.81-1.4 1.63-.96 1.21-2 2.92-2.56 4.89-.26.9-.42 1.87-.42 2.87 0 2.67.57 5.1 1.51 6.87.81 1.55 1.97 2.71 3.34 2.71.22 0 .41-.01.59-.04h.01c1.21-.19 2.05-1.02 2.58-2.12-.03-.01-.18-.09-.45-.22.27.13.42.21.45.22.6-1.23.86-2.82.86-4.51 0-1.28-.14-2.61-.41-3.89-.36-1.78-.98-3.48-1.63-4.91-.78-1.74-1.45-3.03-1.71-3.41zm1.26 3.62l.45-.21-.45.21z" id="h"/><path d="M119.45 80.39v-2.03c0-.09.1-.26.36-.26s.37.17.37.26v2.03c0 .09-.11.26-.37.26s-.36-.17-.36-.26z" id="i"/><path d="M107.85 113.14h-.04v.46c0 .67.38 1.26.91 1.75.54.48 1.29.91 2.18 1.28 1.98.82 4.71 1.31 7.72 1.31 1.12 0 2.19-.14 3.2-.36 2.21-.49 4.13-1.4 5.5-2.24.93-.58 1.6-1.03 1.85-1.24.04-.03.23-.19.57-.48-.4-.21-.62-.32-.66-.35-.43-.22-1.88-.81-3.85-1.5-.02.03-.07.17-.16.44.09-.27.14-.41.16-.44-1.61-.57-3.54-1.11-5.53-1.43a28.33 28.33 0 00-4.38-.36c-1.9 0-3.68.23-5.05.75-1.19.45-2.17 1.19-2.4 2.32-.01.04-.02.07-.02.09zm2.71 3.95l-.01-.01c-2.3-.95-3.46-2.22-3.46-3.48 0-.2.02-.41.06-.62.25-1.21 1.22-2.12 2.8-2.72 1.43-.54 3.32-.8 5.37-.8 1.45 0 3 .13 4.52.37 2.05.33 4.03.89 5.69 1.47 1.38.49 2.57 1.03 3.41 1.5.42.23.75.44.98.61.11.08.19.15.24.19v.01c0 .01-.02.07-.09.17-.1.15-.25.33-.46.54-.41.42-1.04.92-1.82 1.41.01.03.1.17.26.42-.16-.25-.25-.39-.26-.42-1.44.88-3.46 1.84-5.77 2.35-1.08.24-2.22.38-3.4.38-3.15 0-6-.53-8.06-1.37zm19.63-3.45z" id="j"/><path d="M129.79 113.41h2.3c.26 0 .36.18.36.27 0 .08-.1.26-.36.26h-2.3c-.26 0-.37-.18-.37-.26 0-.09.11-.27.37-.27z" id="k"/><path d="M106 112.59c-1.54 0-2.98-1.09-4.02-3.06-.95-1.79-1.55-4.29-1.55-7.05 0-1.02.16-2.01.43-2.96.58-2.01 1.65-3.78 2.65-5.04.54-.69 1.11-1.24 1.59-1.61.24-.18.45-.32.62-.41.17-.08.25-.1.26-.1.03 0 .06 0 .09.01.01.01.02.01.03.02.06.04.13.11.22.21.19.2.42.49.69.86.52.74 1.14 1.78 1.69 2.99.66 1.46 1.28 3.19 1.65 4.98.28 1.34.42 2.69.42 3.96 0 1.8-.29 3.44-.89 4.68-.66 1.35-1.68 2.23-3.13 2.46-.25.04-.5.06-.74.06H106zm.01-.52c.21 0 .41-.01.59-.04 1.21-.2 2.05-1.03 2.59-2.12.6-1.23.86-2.83.86-4.52 0-1.27-.15-2.6-.41-3.89-.37-1.77-.99-3.48-1.63-4.9-.78-1.74-1.46-3.03-1.71-3.41-.03-.04-.14-.2-.33-.49-.26.24-.4.37-.43.4-.24.22-.76.81-1.41 1.63-.96 1.21-1.99 2.92-2.56 4.89-.25.9-.41 1.86-.41 2.86 0 2.68.56 5.11 1.5 6.88 1.32 1.81 2.43 2.71 3.35 2.71z" id="l"/><path d="M105.56 92.63v-2.02c0-.09.1-.27.37-.27.26 0 .36.18.36.27v2.02c0 .09-.1.27-.36.27-.27 0-.37-.18-.37-.27z" id="m"/><path d="M101.44 121.7c1.45 0 3 .13 4.52.38 2.05.33 4.03.88 5.68 1.46 1.39.49 2.57 1.04 3.42 1.5.42.24.75.45.97.61.12.08.19.15.24.2h.01c-.01.01-.03.07-.1.18-.09.14-.24.32-.45.53-.42.42-1.04.93-1.83 1.41-1.44.89-3.45 1.84-5.76 2.35-1.09.24-2.23.39-3.4.39-3.16 0-6.01-.54-8.07-1.38 0 0 0-.01-.01-.01-2.3-.94-3.46-2.21-3.46-3.47 0-.21.02-.41.06-.62.25-1.22 1.22-2.12 2.8-2.72 1.44-.55 3.32-.81 5.38-.81zm-5.56.34l.18.47-.18-.47zm-1.93 3.41c.31.34 2.76 3.08 3.06 3.42 1.99.82 4.72 1.31 7.73 1.31 1.11 0 2.18-.14 3.19-.36 2.22-.49 4.14-1.4 5.51-2.24.93-.57 1.59-1.03 1.84-1.24.04-.03.23-.19.58-.48-.4-.21-.62-.32-.67-.34-.43-.23-1.88-.82-3.85-1.51-.01.03-.06.17-.14.41.08-.24.13-.38.14-.41-1.61-.56-3.53-1.11-5.53-1.42 0 .03-.03.17-.07.45.04-.28.07-.42.07-.45-1.45-.24-2.94-.36-4.37-.36-1.9 0-3.69.22-5.05.74-1.19.46-2.18 1.19-2.41 2.32-.01.07-.02.13-.03.16zm22.35.43h.01-.01z" id="n"/><path d="M115.9 125.66h2.3c.26 0 .37.17.37.26s-.11.26-.37.26h-2.3c-.26 0-.36-.17-.36-.26s.1-.26.36-.26z" id="o"/><path d="M92.12 124.84c-1.54-.01-2.98-1.09-4.02-3.06-.95-1.8-1.56-4.29-1.56-7.06 0-1.02.17-2.01.43-2.95.58-2.02 1.65-3.78 2.65-5.05.55-.69 1.12-1.24 1.6-1.61.24-.18.45-.31.61-.4.18-.09.26-.1.27-.1h.09c0 .01.01.02.03.03.05.04.12.11.22.2.18.2.42.49.68.86.53.74 1.15 1.78 1.69 2.99.03-.01.18-.08.44-.19-.26.11-.41.18-.44.19.66 1.46 1.29 3.19 1.66 4.99.27 1.33.42 2.69.42 3.96 0 1.79-.29 3.43-.9 4.67-.66 1.35-1.68 2.24-3.13 2.47-.25.04-.49.06-.74.06zm-3.35-3.24c.82 1.55 1.98 2.71 3.35 2.71.22 0 .41-.01.59-.04 1.21-.19 2.06-1.03 2.59-2.12.6-1.23.86-2.83.86-4.51 0-1.28-.14-2.61-.41-3.89-.03 0-.19.04-.49.1.3-.06.46-.1.49-.1-.36-1.78-.98-3.48-1.63-4.91-.78-1.74-1.45-3.02-1.71-3.41-.02-.03-.13-.2-.33-.49-.25.24-.4.37-.43.4-.24.22-.75.81-1.4 1.63-.96 1.21-2 2.92-2.56 4.89-.26.9-.42 1.87-.42 2.86 0 2.68.57 5.11 1.5 6.88z" id="p"/><path d="M91.68 104.88v-2.03c0-.09.1-.26.36-.26s.37.17.37.26v2.03c0 .08-.11.26-.37.26s-.36-.18-.36-.26z" id="q"/><path d="M80.04 137.59l3.28 3.06c-.12.28-.18.44-.19.47 1.98.81 4.71 1.31 7.72 1.31 1.11 0 2.19-.14 3.2-.36 2.21-.5 4.13-1.4 5.5-2.25.93-.57 1.6-1.02 1.85-1.23.04-.03.23-.2.57-.49-.4-.2-.62-.32-.66-.34-.43-.22-1.88-.81-3.85-1.5-.02.03-.07.18-.17.46.1-.28.15-.43.17-.46-1.62-.57-3.54-1.11-5.53-1.43-.01.03-.03.18-.08.46.05-.28.07-.43.08-.46a28.33 28.33 0 00-4.38-.36c-1.9 0-3.68.23-5.05.75-1.19.45-2.17 1.18-2.4 2.32-.01.02-.01.03-.01.05h-.05zm2.74 3.98c-2.3-.95-3.47-2.22-3.47-3.48 0-.2.03-.41.07-.62.25-1.21 1.22-2.12 2.8-2.72 1.43-.54 3.31-.8 5.37-.8 1.45 0 3 .13 4.52.37 2.05.33 4.03.89 5.69 1.47 1.38.48 2.57 1.03 3.41 1.5.42.23.75.44.98.61.11.08.19.14.23.19.01 0 .01 0 .01.01s-.02.06-.09.17c-.1.14-.25.33-.46.54-.41.42-1.04.92-1.82 1.41-1.44.88-3.46 1.83-5.77 2.35-1.08.24-2.22.38-3.4.38-3.15 0-6-.53-8.06-1.38h-.01zm19.64-3.44z" id="r"/><path d="M102.02 137.9h2.3c.26 0 .36.18.36.26 0 .09-.1.27-.36.27h-2.3c-.26 0-.37-.18-.37-.27 0-.08.11-.26.37-.26z" id="s"/><path d="M78.27 116.85h-.06c-.01.01-.09.02-.26.11-.17.08-.38.22-.62.4-.48.37-1.05.92-1.59 1.61m2.53-2.12c-.02 12.14-.04 18.88-.04 20.23-1.54 0-2.97-1.09-4.02-3.06-.95-1.79-1.55-4.29-1.55-7.05 0-1.02.16-2.02.43-2.96.58-2.01 1.65-3.78 2.65-5.04m2.53-2.12c.01.01.02.01.03.01m-.03-.01l.03.01m-2.95 1.8l.39.31-.39-.31zm2.98-1.78c.06.04.13.11.22.21.19.2.42.48.69.86.52.74 1.14 1.77 1.69 2.99.65 1.45 1.28 3.19 1.65 4.98.03 0 .2-.04.49-.1-.29.06-.46.1-.49.1.28 1.34.42 2.69.42 3.96 0 1.8-.29 3.43-.89 4.68-.66 1.34-1.68 2.23-3.13 2.46-.05-1.34-.27-8.06-.68-20.16.01.01.02.01.03.02zm-3.44 16.97c.82 1.54 1.98 2.71 3.35 2.71.21 0 .41-.02.59-.05 1.21-.19 2.05-1.02 2.59-2.12.6-1.22.85-2.82.85-4.51 0-1.28-.14-2.6-.4-3.89-.04.01-.19.04-.48.1.29-.06.44-.09.48-.1-.37-1.77-.99-3.48-1.63-4.9-.03.01-.18.08-.46.2.28-.12.43-.19.46-.2-.79-1.74-1.46-3.03-1.72-3.42-.02-.03-.13-.19-.32-.49-.26.24-.41.38-.43.41-.24.22-.76.81-1.41 1.63-.96 1.21-1.99 2.91-2.56 4.89-.25.9-.41 1.86-.41 2.86 0 2.67.56 5.1 1.5 6.88z" id="t"/><path d="M77.79 117.12v-2.03c0-.08.1-.26.37-.26.26 0 .36.18.36.26v2.03c0 .09-.1.26-.36.26-.27 0-.37-.17-.37-.26z" id="u"/><path d="M136.28 90.62c1.98-.64 4.26-1.95 6.35-3.8.76-.67 1.39-1.41 1.91-2.17 1.13-1.67 1.74-3.46 2.03-4.88.2-.99.3-1.69.31-1.96-.44.1-1.91.58-3.87 1.32-1.57.6-3.34 1.4-4.97 2.4-1.19.73-2.33 1.56-3.32 2.43-1.32 1.17-2.36 2.39-2.87 3.54-.46 1.01-.5 1.95.09 2.69.08.11.19.23.33.34 1.49.44 2.83.47 4.01.09zm-5.24.99c-.19-.17-.36-.35-.52-.56-.95-1.2-.94-2.63-.28-4.11.61-1.36 1.78-2.76 3.26-4.06 1.05-.92 2.27-1.81 3.56-2.6 1.75-1.07 3.62-1.92 5.27-2.55 1.97-.74 3.75-1.15 4.76-1.26.25-.11.54-.1.78.01.01 0 .02 0 .03.01.01 0 .02.01.03.02.06.03.11.06.15.1h.01v.01c.34.3.53 1.69.18 3.41-.31 1.56-.99 3.54-2.25 5.4-.59.87-1.31 1.71-2.17 2.47-2.26 2-4.77 3.44-6.98 4.15-3.03.46-4.97.31-5.83-.44zm16.36-14.39l-.53.47.53-.47zm0 0l.08-.07-.08.07.08-.07" id="v"/><path d="M147.79 77.36a.45.45 0 01-.56 0c-.11-.1-.11-.23 0-.33.11-.09.65-.57 1.62-1.43.15-.13.42-.13.57 0 .11.1.11.23 0 .33-.11.09-.65.57-1.63 1.43z" id="w"/><path d="M147.65 77.92c1.43 1.77-1.24 6.28-5.95 10.09-4.71 3.8-9.68 5.45-11.11 3.68-1.43-1.77 1.24-6.28 5.95-10.08 4.71-3.81 9.68-5.46 11.11-3.69z" id="x"/><path d="M118.83 81.02c2.49-.18 4.84 4.22 5.25 9.82.41 5.61-1.28 10.3-3.77 10.48-2.49.18-4.83-4.22-5.24-9.82-.41-5.61 1.28-10.3 3.76-10.48z" id="y"/><path d="M143.21 102.01c-.12 2.2-5.12 3.73-11.18 3.42-6.06-.32-10.88-2.36-10.76-4.56.11-2.21 5.12-3.74 11.18-3.42 6.06.32 10.87 2.36 10.76 4.56z" id="z"/><path d="M105.94 93.23c2.35.04 4.17 4.45 4.08 9.85-.1 5.4-2.08 9.74-4.42 9.7-2.35-.05-4.17-4.45-4.08-9.85.1-5.4 2.08-9.74 4.42-9.7z" id="A"/><path d="M91.32 105.25c2.58-.14 4.91 4.15 5.2 9.57.28 5.42-1.58 9.93-4.17 10.07-2.59.13-4.91-4.15-5.2-9.58-.29-5.42 1.58-9.93 4.17-10.06z" id="B"/><path d="M129.15 114.13c-.12 2.21-5.12 3.74-11.18 3.42-6.06-.32-10.88-2.36-10.76-4.56.11-2.2 5.12-3.73 11.18-3.42 6.05.32 10.87 2.36 10.76 4.56z" id="C"/><path d="M115.07 126.3c-.04 2.6-4.96 4.63-10.99 4.54-6.04-.09-10.9-2.27-10.86-4.87.04-2.59 4.96-4.63 11-4.54 6.03.1 10.89 2.27 10.85 4.87z" id="D"/><path d="M100.92 138.03c-.04 2.59-4.96 4.63-11 4.54-6.03-.1-10.89-2.27-10.85-4.87.04-2.6 4.96-4.63 10.99-4.54 6.04.09 10.9 2.27 10.86 4.87z" id="E"/><path d="M77.28 117.89c2.57-.22 5 3.75 5.43 8.87.43 5.11-1.31 9.43-3.88 9.65-2.57.21-5.01-3.76-5.43-8.87-.43-5.12 1.31-9.43 3.88-9.65z" id="F"/><path d="M89.27 186.3a6.095 6.095 0 01-2.37-2.3c-.56-.99-.84-2.11-.84-3.36s.28-2.36.84-3.34c.57-.99 1.36-1.76 2.37-2.3 1.01-.56 2.15-.84 3.41-.84 1.26 0 2.39.28 3.38.84 1.01.54 1.8 1.31 2.36 2.3.57.98.86 2.09.86 3.34s-.29 2.37-.86 3.36c-.56.98-1.35 1.74-2.36 2.3-.99.56-2.12.84-3.38.84-1.26 0-2.4-.28-3.41-.84zm5.59-1.72c.66-.39 1.17-.92 1.54-1.59.37-.69.55-1.47.55-2.35 0-.88-.18-1.66-.55-2.33-.37-.69-.88-1.21-1.54-1.58-.64-.37-1.36-.55-2.18-.55-.82 0-1.55.18-2.21.55-.64.37-1.15.89-1.53 1.58-.37.67-.56 1.45-.56 2.33 0 .88.19 1.66.56 2.35.38.67.89 1.2 1.53 1.59.66.36 1.39.55 2.21.55.82 0 1.54-.19 2.18-.55zm19.53 2.42h-2.3v-10.7h-7.18V187h-2.3v-12.72h11.78V187zm9.28-10.7V187h-2.3v-10.7h-4.66v-2.02h11.62v2.02h-4.66zm8.49 10c-1-.56-1.8-1.32-2.37-2.3-.56-.99-.84-2.11-.84-3.36s.28-2.36.84-3.34c.57-.99 1.37-1.76 2.37-2.3 1.01-.56 2.15-.84 3.41-.84 1.27 0 2.39.28 3.39.84 1 .54 1.79 1.31 2.35 2.3.57.98.86 2.09.86 3.34s-.29 2.37-.86 3.36c-.56.98-1.35 1.74-2.35 2.3-1 .56-2.12.84-3.39.84-1.26 0-2.4-.28-3.41-.84zm5.6-1.72c.65-.39 1.16-.92 1.53-1.59.37-.69.55-1.47.55-2.35 0-.88-.18-1.66-.55-2.33-.37-.69-.88-1.21-1.53-1.58-.64-.37-1.37-.55-2.19-.55-.81 0-1.55.18-2.21.55-.64.37-1.15.89-1.53 1.58-.37.67-.55 1.45-.55 2.33 0 .88.18 1.66.55 2.35.38.67.89 1.2 1.53 1.59.66.36 1.4.55 2.21.55.82 0 1.55-.19 2.19-.55zm18.87-1.08c0 1.12-.42 1.98-1.27 2.59-.83.61-2.08.91-3.74.91h-6.12v-12.72h5.9c1.51 0 2.68.29 3.53.86.85.56 1.27 1.36 1.27 2.4 0 .68-.18 1.26-.55 1.76-.35.48-.85.84-1.49 1.1 1.65.42 2.47 1.45 2.47 3.1zm-5.42-3.75c.88 0 1.54-.16 1.99-.48.47-.32.7-.78.7-1.39 0-1.22-.9-1.82-2.69-1.82h-3.46v3.69h3.46zm2.4 5.02c.48-.31.72-.78.72-1.42 0-.65-.22-1.14-.67-1.46-.43-.32-1.12-.48-2.07-.48h-3.84v3.81h3.7c1.12-.1 1.84-.25 2.16-.45zm8.93-10.49v9.26l7.8-9.26h2.09V187h-2.3v-9.26l-7.78 9.26h-2.11v-12.72h2.3zm16.67 0v9.26l7.8-9.26h2.09V187h-2.31v-9.26l-7.77 9.26h-2.12v-12.72h2.31zm.89-2.5c-.66-.57-1-1.4-1.01-2.47h1.56c.01.59.21 1.07.6 1.44.4.35.93.53 1.58.53.66 0 1.19-.18 1.59-.53.4-.37.6-.85.62-1.44h1.61c-.02 1.07-.36 1.9-1.03 2.47-.68.56-1.6.84-2.76.84-1.19 0-2.11-.28-2.76-.84zM211.8 187h-2.31v-10.7h-7.17V187h-2.31v-12.72h11.79V187zm14.51-12.02c.98.54 1.74 1.3 2.28 2.28.56.97.84 2.1.84 3.38 0 1.28-.28 2.42-.84 3.41-.54.97-1.3 1.73-2.28 2.28-.97.54-2.08.81-3.31.81-.91 0-1.75-.17-2.52-.52-.75-.36-1.39-.87-1.92-1.54v6.58h-2.3v-17.38h2.2v2.02c.52-.71 1.16-1.24 1.95-1.59.78-.37 1.65-.55 2.59-.55 1.23 0 2.34.27 3.31.82zm-1.32 9.6c.66-.39 1.17-.92 1.54-1.59.38-.69.57-1.47.57-2.35 0-.88-.19-1.66-.57-2.33-.37-.69-.88-1.21-1.54-1.58-.64-.37-1.37-.55-2.18-.55-.8 0-1.53.19-2.19.57-.64.37-1.15.89-1.53 1.56-.37.67-.55 1.45-.55 2.33 0 .88.18 1.66.55 2.35.37.67.88 1.2 1.53 1.59.66.36 1.39.55 2.19.55.81 0 1.54-.19 2.18-.55zm9.83 1.72a6.19 6.19 0 01-2.38-2.3c-.56-.99-.84-2.11-.84-3.36s.28-2.36.84-3.34c.58-.99 1.37-1.76 2.38-2.3 1.01-.56 2.14-.84 3.41-.84 1.26 0 2.39.28 3.38.84 1.01.54 1.79 1.31 2.35 2.3.58.98.87 2.09.87 3.34s-.29 2.37-.87 3.36c-.56.98-1.34 1.74-2.35 2.3-.99.56-2.12.84-3.38.84-1.27 0-2.4-.28-3.41-.84zm5.59-1.72c.66-.39 1.17-.92 1.54-1.59.37-.69.55-1.47.55-2.35 0-.88-.18-1.66-.55-2.33-.37-.69-.88-1.21-1.54-1.58-.64-.37-1.37-.55-2.18-.55-.82 0-1.55.18-2.21.55-.64.37-1.15.89-1.54 1.58-.36.67-.55 1.45-.55 2.33 0 .88.19 1.66.55 2.35.39.67.9 1.2 1.54 1.59.66.36 1.39.55 2.21.55.81 0 1.54-.19 2.18-.55zm20.59 5.37h-2.16V187H248.2v2.95h-2.18v-4.97h.67c.82-.04 1.38-.62 1.68-1.72.31-1.11.51-2.67.63-4.68.01-.29.07-1.72.19-4.3h9.86v10.7H261v4.97zm-10.3-7.22c-.19 1.04-.55 1.79-1.08 2.25h7.13v-8.68h-5.52l-.12 2.44c-.14 1.96-.27 3.28-.41 3.99zm21.87-7.27c.94.86 1.41 2.15 1.41 3.86V187h-2.18v-1.68c-.39.59-.94 1.05-1.66 1.37-.7.3-1.54.45-2.52.45-1.42 0-2.57-.34-3.43-1.03-.85-.69-1.27-1.59-1.27-2.71 0-1.12.41-2.02 1.22-2.69.82-.69 2.11-1.03 3.89-1.03h3.65v-.46c0-.99-.29-1.75-.87-2.28-.57-.52-1.42-.79-2.54-.79-.75 0-1.49.13-2.21.39-.72.24-1.33.56-1.82.98-.1-.17-.87-1.56-.96-1.73.65-.53 1.44-.93 2.35-1.2a9.51 9.51 0 012.9-.43c1.76 0 3.11.43 4.04 1.3zm-2.28 9.33c.64-.4 1.1-.96 1.39-1.68v-1.77h-3.55c-1.96 0-2.93.65-2.93 1.96 0 .64.25 1.15.74 1.52.5.36 1.19.55 2.07.55.88 0 1.64-.19 2.28-.58zm16.94-3.17V187h-2.31v-5.38h-2.47l-3.5 5.38h-2.74l4.37-6.58-4.03-6.14h2.44l3.44 5.38h2.49v-5.38h2.31v5.38h2.49l3.43-5.38h2.48l-4.04 6.17 4.37 6.55h-2.73l-3.53-5.38h-2.47zm26.57-.16c.46.49.7 1.11.7 1.84 0 .76-.26 1.43-.77 2.02-.52.58-1.23 1.03-2.14 1.37-.89.32-1.9.48-3.02.48-.95 0-1.87-.12-2.79-.36-.89-.26-1.69-.62-2.4-1.08.07-.18.63-1.58.7-1.75.61.38 1.3.68 2.09.91.78.21 1.57.31 2.37.31 1.09 0 1.96-.18 2.6-.55.65-.39.98-.9.98-1.54 0-.59-.26-1.05-.79-1.37-.51-.32-1.24-.48-2.19-.48h-2.32v-1.65h2.16c.86 0 1.54-.15 2.04-.46.49-.3.74-.72.74-1.25 0-.57-.3-1.02-.89-1.34-.57-.32-1.36-.48-2.35-.48-1.26 0-2.6.33-4.01.98-.06-.17-.56-1.59-.62-1.77 1.55-.79 3.17-1.18 4.87-1.18 1.02 0 1.94.15 2.76.43.81.29 1.46.7 1.92 1.23.46.53.7 1.13.7 1.8 0 .62-.21 1.18-.63 1.68-.41.49-.97.87-1.68 1.13.85.22 1.5.58 1.97 1.08zm15.65-.05h-10.32c.14 1.12.63 2.02 1.46 2.71.85.67 1.9 1.01 3.14 1.01 1.52 0 2.75-.51 3.68-1.54.12.15 1.14 1.34 1.27 1.49a5.73 5.73 0 01-2.16 1.54c-.85.35-1.8.52-2.86.52-1.34 0-2.53-.27-3.57-.81a6.126 6.126 0 01-2.43-2.33c-.56-.99-.84-2.11-.84-3.36 0-1.23.27-2.34.82-3.34.56-.99 1.32-1.76 2.28-2.3.97-.56 2.07-.84 3.29-.84 1.21 0 2.29.28 3.24.84.96.54 1.7 1.31 2.23 2.3.54 1 .81 2.13.81 3.41 0 .18-.01.41-.04.7zm-9.03-4.3c-.73.67-1.17 1.55-1.29 2.64h8.16c-.13-1.07-.57-1.94-1.32-2.61-.74-.69-1.66-1.04-2.76-1.04-1.11 0-2.04.34-2.79 1.01zm22.7-2.13c.98.54 1.74 1.3 2.28 2.28.56.97.84 2.1.84 3.38 0 1.28-.28 2.42-.84 3.41-.54.97-1.3 1.73-2.28 2.28-.97.54-2.08.81-3.31.81-.91 0-1.75-.17-2.52-.52-.75-.36-1.39-.87-1.92-1.54v6.58h-2.3v-17.38h2.21v2.02c.51-.71 1.16-1.24 1.94-1.59.78-.37 1.65-.55 2.59-.55 1.23 0 2.34.27 3.31.82zm-1.32 9.6c.66-.39 1.17-.92 1.54-1.59.38-.69.58-1.47.58-2.35 0-.88-.2-1.66-.58-2.33-.37-.69-.88-1.21-1.54-1.58-.64-.37-1.36-.55-2.18-.55-.8 0-1.53.19-2.18.57-.64.37-1.16.89-1.54 1.56-.37.67-.55 1.45-.55 2.33 0 .88.18 1.66.55 2.35.37.67.88 1.2 1.54 1.59.65.36 1.38.55 2.18.55.82 0 1.54-.19 2.18-.55zm10.1-10.3v5.4h7.24v-5.4h2.31V187h-2.31v-5.33h-7.24V187h-2.31v-12.72h2.31zm22.6 1.18c.94.86 1.41 2.15 1.41 3.86V187h-2.18v-1.68c-.39.59-.94 1.05-1.66 1.37-.7.3-1.54.45-2.52.45-1.42 0-2.57-.34-3.43-1.03-.85-.69-1.27-1.59-1.27-2.71 0-1.12.41-2.02 1.22-2.69.82-.69 2.11-1.03 3.89-1.03h3.65v-.46c0-.99-.29-1.75-.87-2.28-.57-.52-1.42-.79-2.54-.79-.75 0-1.49.13-2.21.39-.72.24-1.33.56-1.82.98-.1-.17-.87-1.56-.96-1.73.65-.53 1.44-.93 2.35-1.2a9.51 9.51 0 012.9-.43c1.76 0 3.11.43 4.04 1.3zm-2.28 9.33c.64-.4 1.1-.96 1.39-1.68v-1.77h-3.55c-1.96 0-2.93.65-2.93 1.96 0 .64.25 1.15.74 1.52.5.36 1.19.55 2.07.55.88 0 1.64-.19 2.28-.58z" id="G"/></defs><use xlink:href="#a" fill="#1b7340"/><use xlink:href="#b" fill="#fff"/><use xlink:href="#b" fill-opacity="0" stroke="#000" stroke-opacity="0"/><use xlink:href="#c"/><use xlink:href="#c" fill-opacity="0" stroke="#000" stroke-opacity="0"/><use xlink:href="#d" fill="#1b7340"/><use xlink:href="#d" fill-opacity="0" stroke="#000" stroke-opacity="0"/><use xlink:href="#e" fill="#ffcc57"/><use xlink:href="#e" fill-opacity="0" stroke="#ffcc57"/><use xlink:href="#f" fill="#ffcc57"/><use xlink:href="#f" fill-opacity="0" stroke="#ffcc57"/><use xlink:href="#g" fill="#ffcc57"/><use xlink:href="#g" fill-opacity="0" stroke="#ffcc57"/><use xlink:href="#h" fill="#ffcc57"/><use xlink:href="#h" fill-opacity="0" stroke="#ffcc57"/><use xlink:href="#i" fill="#ffcc57"/><use xlink:href="#i" fill-opacity="0" stroke="#ffcc57"/><use xlink:href="#j" fill="#ffcc57"/><use xlink:href="#j" fill-opacity="0" stroke="#ffcc57"/><use xlink:href="#k" fill="#ffcc57"/><use xlink:href="#k" fill-opacity="0" stroke="#ffcc57"/><use xlink:href="#l" fill="#ffcc57"/><use xlink:href="#l" fill-opacity="0" stroke="#ffcc57"/><use xlink:href="#m" fill="#ffcc57"/><use xlink:href="#m" fill-opacity="0" stroke="#ffcc57"/><use xlink:href="#n" fill="#ffcc57"/><use xlink:href="#n" fill-opacity="0" stroke="#ffcc57"/><use xlink:href="#o" fill="#ffcc57"/><use xlink:href="#o" fill-opacity="0" stroke="#ffcc57"/><use xlink:href="#p" fill="#ffcc57"/><use xlink:href="#p" fill-opacity="0" stroke="#ffcc57"/><use xlink:href="#q" fill="#ffcc57"/><use xlink:href="#q" fill-opacity="0" stroke="#ffcc57"/><use xlink:href="#r" fill="#ffcc57"/><use xlink:href="#r" fill-opacity="0" stroke="#ffcc57"/><use xlink:href="#s" fill="#ffcc57"/><use xlink:href="#s" fill-opacity="0" stroke="#ffcc57"/><use xlink:href="#t" fill="#ffcc57"/><use xlink:href="#t" fill-opacity="0" stroke="#ffcc57"/><use xlink:href="#u" fill="#ffcc57"/><use xlink:href="#u" fill-opacity="0" stroke="#ffcc57"/><use xlink:href="#v" fill="#ffcc57"/><use xlink:href="#v" fill-opacity="0" stroke="#000" stroke-opacity="0"/><use xlink:href="#w" fill="#ffcc57"/><use xlink:href="#w" fill-opacity="0" stroke="#ffcc57"/><use xlink:href="#x" fill="#ffcc57"/><use xlink:href="#x" fill-opacity="0" stroke="#000" stroke-opacity="0"/><use xlink:href="#y" fill="#ffcc57"/><use xlink:href="#y" fill-opacity="0" stroke="#000" stroke-opacity="0"/><use xlink:href="#z" fill="#ffcc57"/><use xlink:href="#z" fill-opacity="0" stroke="#000" stroke-opacity="0"/><use xlink:href="#A" fill="#ffcc57"/><use xlink:href="#A" fill-opacity="0" stroke="#000" stroke-opacity="0"/><use xlink:href="#B" fill="#ffcc57"/><use xlink:href="#B" fill-opacity="0" stroke="#000" stroke-opacity="0"/><use xlink:href="#C" fill="#ffcc57"/><use xlink:href="#C" fill-opacity="0" stroke="#000" stroke-opacity="0"/><use xlink:href="#D" fill="#ffcc57"/><use xlink:href="#D" fill-opacity="0" stroke="#000" stroke-opacity="0"/><use xlink:href="#E" fill="#ffcc57"/><use xlink:href="#E" fill-opacity="0" stroke="#000" stroke-opacity="0"/><use xlink:href="#F" fill="#ffcc57"/><use xlink:href="#F" fill-opacity="0" stroke="#000" stroke-opacity="0"/><use xlink:href="#G" fill="#fff"/><use xlink:href="#G" fill-opacity="0" stroke="#000" stroke-opacity="0"/></svg>