<svg xmlns="http://www.w3.org/2000/svg" xmlns:xlink="http://www.w3.org/1999/xlink" width="420" height="170"><defs><path d="M0 0h420v170H0V0z" id="a"/><path d="M381.7 27.92v98.42H34.02V27.92H381.7z" id="b"/><path d="M172.74 61.72c3.01 0 5.66.58 7.96 1.75 2.32 1.14 4.12 2.76 5.39 4.85 1.29 2.1 1.94 4.53 1.94 7.32 0 2.78-.65 5.22-1.94 7.32-1.27 2.09-3.07 3.72-5.39 4.89-2.3 1.14-4.95 1.71-7.96 1.71h-12.6V61.72h12.6zm6.3 20.24c1.66-1.56 2.49-3.67 2.49-6.32 0-2.65-.83-4.75-2.49-6.29-1.64-1.56-3.85-2.34-6.62-2.34h-5.87v17.26h5.87c3.32-.51 5.52-1.28 6.62-2.31zm45.75 7.6h-6.9l-6.1-18.85-6.3 18.85h-6.85l-9.12-27.84h6.66l6.26 19.57 6.54-19.57h5.94l6.34 19.72 6.46-19.72h6.14l-9.07 27.84zm29.84-5.97l-2.45 5.97h-6.58l12.36-27.84h6.34l12.4 27.84h-6.73l-2.46-5.97h-12.88zm6.46-15.55l-4.4 10.66h8.8l-4.4-10.66zm42.71 7.16v11.29c-1.51 1.14-3.25 2.02-5.23 2.63-1.98.61-3.98.91-5.98.91-2.88 0-5.47-.61-7.77-1.83-2.3-1.24-4.11-2.95-5.43-5.13-1.29-2.2-1.94-4.67-1.94-7.43s.65-5.22 1.94-7.4c1.32-2.2 3.15-3.91 5.47-5.13 2.32-1.25 4.94-1.87 7.84-1.87 2.44 0 4.64.41 6.62 1.23 1.98.83 3.65 2.02 4.99 3.58-.41.39-3.7 3.44-4.12 3.82-1.98-2.09-4.37-3.14-7.17-3.14-1.77 0-3.34.37-4.71 1.11-1.38.75-2.45 1.79-3.21 3.15-.77 1.35-1.15 2.9-1.15 4.65 0 1.72.38 3.26 1.15 4.61a8.278 8.278 0 003.17 3.18c1.37.75 2.93 1.12 4.67 1.12 1.85 0 3.52-.4 4.99-1.2V75.2h5.87zm18.28 6.6h-5.9v7.76h-6.42V61.72h12.01c2.45 0 4.58.41 6.38 1.23 1.82.82 3.22 1.99 4.2 3.5.97 1.51 1.46 3.3 1.46 5.37 0 2.07-.5 3.86-1.5 5.37-.98 1.48-2.38 2.62-4.2 3.42.41.6 2.48 3.58 6.22 8.95h-6.9l-5.35-7.76zm3.73-13.56c-1.01-.85-2.47-1.27-4.4-1.27h-5.23v9.7h5.23c1.93 0 3.39-.42 4.4-1.27 1-.85 1.5-2.04 1.5-3.58 0-1.56-.5-2.76-1.5-3.58zm18.71 19.93c-2.29-1.25-4.1-2.96-5.42-5.13-1.3-2.21-1.95-4.67-1.95-7.4 0-2.73.65-5.19 1.95-7.36 1.32-2.2 3.13-3.92 5.42-5.17 2.33-1.25 4.93-1.87 7.81-1.87s5.47.62 7.76 1.87c2.3 1.25 4.11 2.97 5.43 5.17 1.32 2.17 1.98 4.63 1.98 7.36 0 2.73-.66 5.19-1.98 7.4-1.32 2.17-3.13 3.88-5.43 5.13-2.29 1.24-4.88 1.86-7.76 1.86s-5.48-.62-7.81-1.86zm12.25-4.74a8.144 8.144 0 003.09-3.18c.76-1.35 1.15-2.89 1.15-4.61 0-1.73-.39-3.26-1.15-4.62a7.91 7.91 0 00-3.09-3.14c-1.32-.77-2.8-1.15-4.44-1.15-1.64 0-3.12.38-4.44 1.15a8.21 8.21 0 00-3.13 3.14c-.74 1.36-1.11 2.89-1.11 4.62 0 1.72.37 3.26 1.11 4.61a8.457 8.457 0 003.13 3.18c1.32.75 2.8 1.12 4.44 1.12 1.64 0 3.12-.37 4.44-1.12z" id="c"/><path d="M133.07 30.9v92.46H36.99V30.9h96.08z" id="d"/><path d="M105.6 57.08c-.2.22-.31.35-.33.37.11.1.11.23 0 .33.02.02.13.15.33.37l-.33-.37c-37.31 33.03-58.04 51.37-62.19 55.04a.45.45 0 01-.56 0c-.11-.09-.11-.22 0-.32 6.22-5.51 55.98-49.54 62.2-55.05.14-.13.4-.13.55 0 .05-.05.15-.17.33-.37z" id="e"/><path d="M96.14 66.71l-.01.01v.33c0 .66.37 1.25.9 1.73s1.27.91 2.15 1.27c1.97.82 4.67 1.31 7.65 1.31 1.1 0 2.17-.14 3.17-.36 2.19-.49 4.09-1.39 5.45-2.23.92-.57 1.58-1.02 1.83-1.23.04-.03.23-.19.57-.48-.4-.2-.62-.32-.66-.34-.43-.22-1.87-.81-3.82-1.5-1.59-.56-3.5-1.1-5.47-1.42a27.8 27.8 0 00-4.34-.35c-1.88 0-3.65.22-5 .74-1.18.45-2.15 1.18-2.38 2.31-.02.09-.03.16-.04.21zm2.69 3.79c-2.27-.94-3.43-2.2-3.43-3.45 0-.21.03-.41.07-.62.25-1.21 1.2-2.11 2.77-2.7 1.42-.55 3.29-.8 5.32-.8 1.44 0 2.97.13 4.48.37 2.03.32 3.99.88 5.63 1.46 1.37.48 2.55 1.03 3.38 1.49.42.23.75.44.97.6.11.09.19.15.24.2 0 .01-.02.07-.09.18-.09.14-.24.32-.45.53-.41.42-1.03.92-1.81 1.4-1.43.88-3.42 1.83-5.71 2.34-1.07.23-2.2.38-3.37.38-3.12 0-5.95-.53-7.99-1.37 0 0 0-.01-.01-.01zm19.46-3.42z" id="f"/><path d="M117.89 66.86h2.28c.26 0 .36.17.36.26s-.1.26-.36.26h-2.28c-.26 0-.36-.17-.36-.26s.1-.26.36-.26z" id="g"/><path d="M97.93 55.02c.26 1.27.41 2.6.41 3.86 0 1.68-.26 3.27-.85 4.49-.03-.01-.18-.09-.45-.22.27.13.42.21.45.22-.53 1.09-1.37 1.92-2.57 2.11-.18.03-.37.04-.58.04-1.36 0-2.51-1.16-3.32-2.69-.93-1.76-1.49-4.18-1.49-6.84 0-.99.16-1.95.42-2.85.55-1.96 1.58-3.66 2.53-4.86.64-.82 1.15-1.4 1.39-1.62.03-.03.17-.16.43-.4.19.29.3.45.32.49.25.38.92 1.66 1.7 3.39.64 1.42 1.25 3.11 1.61 4.88zm-1.61-4.88l-.45.2m.45-.2l-.45.2m0 0c-.58-1.28-1.09-2.29-1.4-2.88m1.4 2.88l-1.4-2.88m.08-.08c-.03-.02-.14-.14-.34-.36-.25.17-.39.26-.41.28.01.02.03.06.06.1-.25.28-.59.68-.99 1.19-.92 1.17-1.91 2.81-2.45 4.69.27-.39 1.62-2.33 4.05-5.82.04-.03.06-.06.08-.08zM90.35 63c-.03.02-.17.09-.44.23.27-.14.41-.21.44-.23-.94-1.79-1.54-4.27-1.54-7.01 0-1.02.16-2 .43-2.94.57-2 1.63-3.76 2.62-5.02.54-.68 1.1-1.23 1.58-1.59.24-.19.44-.32.61-.41.17-.08.25-.1.26-.1h.06c.01 0 .02 0 .03.01.01 0 .02.01.03.02.05.04.13.11.22.21.18.19.42.48.68.85.52.73 1.13 1.77 1.67 2.97.65 1.45 1.28 3.17 1.64 4.96.27 1.32.42 2.67.42 3.93 0 1.79-.29 3.42-.89 4.65-.65 1.34-1.66 2.22-3.1 2.45-.25.04-.49.06-.73.06h-.02c-1.96-.72-3.28-1.74-3.97-3.04z" id="h"/><path d="M93.89 46.2v-2.02c0-.08.11-.26.37-.26s.36.18.36.26v2.02c0 .08-.1.26-.36.26s-.37-.18-.37-.26z" id="i"/><path d="M82.41 78.76h-.04v.46c0 .67.37 1.25.9 1.73.53.49 1.28.91 2.16 1.28 1.96.81 4.67 1.3 7.65 1.3 1.1 0 2.16-.14 3.17-.36 2.19-.49 4.09-1.39 5.45-2.23.92-.57 1.57-1.02 1.82-1.23.04-.03.23-.19.58-.48-.4-.2-.62-.32-.67-.34-.42-.22-1.86-.81-3.81-1.49-.01.03-.07.18-.16.47.09-.29.15-.44.16-.47-1.6-.57-3.5-1.11-5.48-1.42 0 .03-.03.19-.08.49.05-.3.08-.46.08-.49-1.43-.23-2.91-.36-4.33-.36-1.88 0-3.65.22-5 .74-1.18.45-2.16 1.18-2.39 2.31 0 .04-.01.07-.01.09zm2.69 3.92h-.02c-2.28-.94-3.43-2.21-3.43-3.46 0-.2.02-.41.06-.62.25-1.2 1.21-2.1 2.77-2.7 1.42-.54 3.29-.8 5.33-.8 1.44 0 2.97.13 4.48.37 2.03.33 3.99.88 5.63 1.46 1.37.48 2.54 1.03 3.38 1.49.42.23.75.44.97.61.11.08.19.14.23.19 0 0 .01 0 .01.01-.01.01-.03.06-.1.17-.09.14-.24.32-.44.53-.42.42-1.03.92-1.82 1.4-1.42.88-3.42 1.83-5.7 2.34-1.08.24-2.21.38-3.37.38-3.12 0-5.94-.53-7.98-1.37zm19.43-3.43l.01.01-.01-.01zm-11.45 5.3c-2.71 0-5.22-.39-7.21-1.05.71.04 4.27.26 10.68.65-1.51.27-2.67.4-3.47.4z" id="j"/><path d="M104.14 79.03h2.28c.26 0 .36.17.36.26s-.1.26-.36.26h-2.28c-.26 0-.36-.17-.36-.26s.1-.26.36-.26z" id="k"/><path d="M75.01 65.09zm5.56 13.13c-1.52-.01-2.94-1.09-3.97-3.05-.95-1.78-1.54-4.26-1.54-7.01 0-1.01.16-2 .42-2.94.57-2 1.63-3.76 2.63-5.01.54-.69 1.1-1.24 1.58-1.6.23-.19.44-.32.61-.41.17-.08.25-.1.26-.1.03 0 .05 0 .09.01 0 .01.01.01.03.02.05.04.12.11.22.21.18.19.41.48.67.85.52.74 1.14 1.77 1.68 2.97.65 1.45 1.27 3.18 1.64 4.96.27 1.33.41 2.67.41 3.94 0 1.78-.28 3.41-.88 4.64-.66 1.35-1.67 2.23-3.11 2.46-.24.04-.49.06-.73.06h-.01zm.01-.53c.21 0 .41-.01.59-.04 1.2-.19 2.03-1.02 2.56-2.11.6-1.22.85-2.81.85-4.48 0-1.27-.14-2.59-.4-3.87-.36-1.76-.98-3.46-1.61-4.88-.78-1.73-1.45-3.01-1.7-3.39-.02-.03-.13-.19-.32-.49-.26.24-.4.38-.43.4-.24.22-.75.81-1.39 1.62-.95 1.21-1.98 2.91-2.54 4.87-.25.89-.41 1.85-.41 2.84 0 2.66.56 5.08 1.49 6.84 1.3 1.8 2.41 2.69 3.31 2.69z" id="l"/><path d="M80.14 58.37v-2.01c0-.09.1-.27.36-.27s.36.18.36.27v2.01c0 .09-.1.26-.36.26s-.36-.17-.36-.26z" id="m"/><path d="M79.32 96.23c-3.12 0-5.94-.54-7.98-1.38h-.01c-2.28-.94-3.43-2.2-3.43-3.46 0-.2.02-.4.06-.61.25-1.21 1.21-2.11 2.77-2.71 1.42-.54 3.29-.8 5.32-.8 1.44 0 2.98.13 4.48.38 2.03.32 3.99.88 5.64 1.45 1.37.49 2.54 1.03 3.38 1.5.41.23.74.43.96.6.12.08.19.15.24.19v.01c0 .01-.02.07-.09.17-.09.14-.24.32-.45.53-.41.42-1.03.92-1.81 1.41a18.89 18.89 0 01-5.71 2.33c-1.07.24-2.2.39-3.37.39zm3.37-.39l.11.49m-.11-.49l.11.49m5.86-2.4c-1.75.14-15.77 1.24-17.52 1.38 2.11.87 5.01 1.41 8.18 1.41 1.21 0 2.38-.15 3.48-.39 2.35-.53 4.4-1.5 5.86-2.4zM68.64 91s-.01.01-.02.01v.38c0 .67.37 1.26.9 1.74s1.27.91 2.15 1.27c1.97.81 4.67 1.3 7.65 1.3 1.11 0 2.17-.13 3.17-.36 2.19-.48 4.1-1.39 5.45-2.22.92-.57 1.58-1.02 1.83-1.23.04-.03.23-.19.57-.48-.4-.21-.62-.32-.66-.35-.42-.22-1.86-.8-3.81-1.49-.02.03-.07.19-.17.47.1-.28.15-.44.17-.47-1.6-.56-3.51-1.1-5.48-1.42-.01.03-.03.2-.08.49.05-.29.07-.46.08-.49a27.8 27.8 0 00-4.34-.35c-1.88 0-3.64.22-5 .73-1.18.46-2.15 1.19-2.38 2.31-.01.07-.02.13-.03.16zm22.14.43z" id="n"/><path d="M90.39 91.2h2.27c.26 0 .36.18.36.27 0 .08-.1.26-.36.26h-2.27c-.26 0-.37-.18-.37-.26 0-.09.11-.27.37-.27z" id="o"/><path d="M62.84 87.35c-.94-1.79-1.54-4.27-1.54-7.02 0-1.01.16-2 .43-2.94.57-2 1.63-3.75 2.62-5.01a9.58 9.58 0 011.58-1.6c.24-.18.45-.32.61-.4.17-.09.25-.1.26-.1h.09l.03.03c.06.04.13.1.22.2.19.2.42.48.68.85.52.74 1.13 1.77 1.67 2.98.03-.02.18-.08.46-.21-.28.13-.43.19-.46.21.66 1.45 1.28 3.17 1.64 4.96.27 1.32.42 2.67.42 3.93 0 1.79-.29 3.41-.89 4.65-.65 1.34-1.66 2.22-3.1 2.45-.25.04-.49.06-.73.06h-.01c-1.52 0-2.94-1.08-3.98-3.04zm.67-.18c.81 1.54 1.96 2.7 3.32 2.7.21 0 .41-.02.59-.04 1.19-.2 2.03-1.02 2.56-2.11.59-1.22.85-2.81.85-4.49 0-1.27-.14-2.59-.41-3.87-.36-1.76-.97-3.46-1.61-4.87-.77-1.73-1.44-3.01-1.7-3.4-.02-.03-.12-.19-.32-.48-.25.24-.4.37-.43.4-.23.22-.74.8-1.39 1.62-.95 1.2-1.98 2.9-2.53 4.86-.26.9-.41 1.85-.41 2.84 0 2.66.55 5.08 1.48 6.84zm-2.26-9.91z" id="p"/><path d="M66.39 70.54v-2.01c0-.09.1-.26.36-.26s.36.17.36.26v2.01c0 .09-.1.27-.36.27s-.36-.18-.36-.27z" id="q"/><path d="M54.87 103.07v.5c0 .66.37 1.25.89 1.73.54.48 1.28.91 2.16 1.27 1.96.82 4.67 1.31 7.65 1.31 1.1 0 2.17-.14 3.17-.36 2.19-.49 4.09-1.39 5.45-2.23.92-.57 1.58-1.02 1.83-1.23.03-.03.22-.19.57-.48-.4-.21-.62-.32-.66-.34-.43-.22-1.87-.81-3.82-1.5-1.59-.56-3.5-1.1-5.48-1.42-1.43-.23-2.91-.35-4.33-.35-1.88 0-3.65.22-5 .74-1.18.45-2.15 1.18-2.38 2.31-.01.01-.01.03-.01.05h-.04zm2.7 3.95c-2.27-.94-3.43-2.2-3.43-3.45 0-.21.02-.41.07-.62.24-1.21 1.2-2.11 2.77-2.7 1.42-.55 3.28-.8 5.32-.8 1.44 0 2.97.13 4.48.37 2.03.32 3.99.88 5.63 1.46 1.37.48 2.55 1.03 3.38 1.49.42.23.75.44.97.6.11.08.19.15.23.2H77c0 .01-.02.07-.09.18-.1.14-.24.32-.45.53-.42.42-1.03.92-1.81 1.4-1.43.88-3.43 1.83-5.71 2.34-1.07.23-2.21.38-3.37.38-3.12 0-5.94-.53-7.98-1.37-.01 0-.02-.01-.02-.01zm19.46-3.42z" id="r"/><path d="M76.63 103.38h2.28c.26 0 .36.17.36.26s-.1.26-.36.26h-2.28c-.26 0-.36-.17-.36-.26s.1-.26.36-.26z" id="s"/><path d="M54.61 86.86c.27-.12.42-.19.45-.2-.78-1.73-1.45-3.01-1.7-3.39-.02-.04-.13-.2-.32-.49-.26.24-.4.37-.43.4-.24.22-.75.8-1.39 1.62-.95 1.2-1.98 2.9-2.54 4.86-.25.9-.41 1.86-.41 2.85 0 2.66.56 5.08 1.49 6.84m4.85-12.49c-2.65 7.35-4.12 11.44-4.41 12.25-.02-.03-.03-.06-.05-.08-.03 0-.18.05-.45.13l.5-.05c-.27.14-.41.22-.44.24m4.85-12.49c.27-.12.42-.19.45-.2.63 1.42 1.25 3.11 1.61 4.87.26 1.28.4 2.61.4 3.87 0 1.68-.25 3.27-.84 4.49m-1.62-13.03l1.62 13.03m-6.47-.54c.81 1.53 1.96 2.69 3.32 2.69.21 0 .4-.01.58-.04m-3.9-2.65l3.9 2.65m0 0c1.2-.19 2.03-1.02 2.57-2.11M53.66 102l2.57-2.11m-7.14-.37c-.94-1.79-1.54-4.27-1.54-7.01 0-1.02.16-2 .43-2.94.57-2 1.63-3.76 2.62-5.02.54-.68 1.1-1.23 1.58-1.59.24-.19.44-.32.61-.41.17-.08.25-.1.26-.1h.06c.01 0 .02 0 .03.01.01 0 .02.01.03.02.05.04.13.11.22.21.18.19.41.48.68.85.52.73 1.13 1.77 1.67 2.97.65 1.45 1.27 3.17 1.64 4.96.03-.01.19-.04.48-.1-.29.06-.45.09-.48.1.27 1.32.42 2.67.42 3.93 0 1.79-.29 3.42-.89 4.65-.66 1.34-1.67 2.22-3.1 2.45 0 .04.03.2.07.49l-.81-.43c-1.97-.72-3.29-1.73-3.98-3.04z" id="t"/><path d="M52.63 82.72V80.7c0-.08.1-.26.36-.26s.37.18.37.26v2.02c0 .08-.11.26-.37.26s-.36-.18-.36-.26z" id="u"/><path d="M110.57 56.37c1.97-.63 4.22-1.94 6.29-3.78.75-.67 1.38-1.4 1.89-2.16a13.55 13.55 0 002.01-4.85c.2-.98.3-1.68.31-1.94-.44.1-1.9.57-3.83 1.31-1.56.59-3.31 1.39-4.93 2.38-1.18.73-2.3 1.55-3.29 2.42-1.31 1.16-2.33 2.38-2.84 3.52-.46 1-.49 1.94.09 2.67.08.11.19.23.32.34 1.48.44 2.81.46 3.98.09zm-5.19.99a4.6 4.6 0 01-.52-.56c-.94-1.2-.93-2.62-.27-4.09.6-1.35 1.76-2.74 3.22-4.03 1.04-.92 2.25-1.81 3.53-2.59 1.73-1.06 3.59-1.91 5.23-2.53 1.94-.74 3.71-1.15 4.71-1.26.24-.1.53-.1.77.01.01 0 .02.01.03.01.01.01.02.01.03.02.05.03.1.06.15.1l.01.01h-.01c.34.3.53 1.68.19 3.39-.32 1.55-.99 3.52-2.24 5.37-.58.86-1.29 1.7-2.14 2.45-2.25 1.99-4.73 3.42-6.92 4.13-3 .46-4.92.31-5.77-.43zm16.2-14.31h.01l-.53.47.52-.47zm0 0l.08-.07-.07.07.07-.07" id="v"/><path d="M121.97 43.19a.45.45 0 01-.56 0c-.11-.1-.11-.23 0-.33.11-.09.65-.57 1.62-1.42.14-.14.4-.14.55 0 .11.09.11.22 0 .32s-.64.57-1.61 1.43z" id="w"/><path d="M121.83 43.74c1.41 1.76-1.22 6.25-5.89 10.03-4.67 3.78-9.59 5.42-11.01 3.66-1.41-1.75 1.23-6.24 5.89-10.02 4.67-3.78 9.6-5.42 11.01-3.67z" id="x"/><path d="M93.29 46.83c2.46-.18 4.79 4.19 5.19 9.76.41 5.57-1.26 10.24-3.73 10.42-2.46.18-4.79-4.19-5.19-9.77-.41-5.57 1.26-10.23 3.73-10.41z" id="y"/><path d="M117.43 67.7c-.11 2.19-5.07 3.71-11.07 3.39-6-.31-10.77-2.34-10.66-4.53.11-2.19 5.07-3.71 11.07-3.4 6 .31 10.78 2.34 10.66 4.54z" id="z"/><path d="M80.52 58.97c2.32.04 4.13 4.42 4.03 9.79-.09 5.36-2.05 9.68-4.37 9.64-2.33-.04-4.14-4.43-4.04-9.79.09-5.37 2.05-9.68 4.38-9.64z" id="A"/><path d="M66.03 70.91c2.56-.13 4.87 4.13 5.15 9.52.29 5.39-1.56 9.87-4.12 10.01-2.57.13-4.87-4.13-5.16-9.52-.28-5.39 1.57-9.87 4.13-10.01z" id="B"/><path d="M103.5 79.75c-.11 2.19-5.07 3.71-11.07 3.4-6-.32-10.77-2.35-10.66-4.54.12-2.19 5.07-3.71 11.07-3.4 6.01.32 10.78 2.35 10.66 4.54z" id="C"/><path d="M89.56 91.84c-.04 2.58-4.91 4.6-10.89 4.51-5.98-.09-10.79-2.25-10.75-4.83.04-2.58 4.91-4.6 10.89-4.51 5.98.09 10.79 2.25 10.75 4.83z" id="D"/><path d="M75.54 103.5c-.04 2.59-4.91 4.6-10.89 4.52-5.97-.09-10.79-2.26-10.75-4.84.04-2.58 4.91-4.6 10.89-4.51 5.98.09 10.79 2.25 10.75 4.83z" id="E"/><path d="M52.12 83.48c2.55-.21 4.96 3.74 5.39 8.82.42 5.08-1.3 9.38-3.85 9.59-2.55.22-4.96-3.73-5.38-8.82-.42-5.08 1.3-9.37 3.84-9.59z" id="F"/><path d="M59.05 151.5c-1-.56-1.78-1.32-2.35-2.29-.56-.99-.83-2.1-.83-3.34 0-1.24.27-2.35.83-3.32.57-.98 1.35-1.75 2.35-2.29 1-.55 2.13-.83 3.38-.83s2.37.28 3.35.83c1 .54 1.78 1.31 2.33 2.29.57.97.86 2.08.86 3.32 0 1.24-.29 2.35-.86 3.34-.55.97-1.33 1.73-2.33 2.29-.98.56-2.1.84-3.35.84s-2.38-.28-3.38-.84zm5.54-1.72c.65-.38 1.16-.9 1.52-1.57.37-.69.55-1.47.55-2.34 0-.88-.18-1.65-.55-2.31a3.8 3.8 0 00-1.52-1.58c-.63-.37-1.35-.55-2.16-.55s-1.54.18-2.19.55c-.63.37-1.14.89-1.52 1.58-.36.66-.55 1.43-.55 2.31 0 .87.19 1.65.55 2.34.38.67.89 1.19 1.52 1.57.65.37 1.38.55 2.19.55s1.53-.18 2.16-.55zm19.34 2.41h-2.28v-10.64h-7.11v10.64h-2.28v-12.64h11.67v12.64zm9.2-10.64v10.64h-2.28v-10.64h-4.62v-2h11.51v2h-4.61zm8.41 9.95c-1-.56-1.78-1.32-2.36-2.29-.55-.99-.83-2.1-.83-3.34 0-1.24.28-2.35.83-3.32a6.04 6.04 0 012.36-2.29c1-.55 2.12-.83 3.37-.83 1.26 0 2.37.28 3.36.83.99.54 1.77 1.31 2.33 2.29.57.97.85 2.08.85 3.32 0 1.24-.28 2.35-.85 3.34-.56.97-1.34 1.73-2.33 2.29s-2.1.84-3.36.84c-1.25 0-2.37-.28-3.37-.84zm5.54-1.72c.65-.38 1.15-.9 1.52-1.57.36-.69.55-1.47.55-2.34 0-.88-.19-1.65-.55-2.31-.37-.69-.87-1.21-1.52-1.58-.64-.37-1.36-.55-2.17-.55-.8 0-1.53.18-2.18.55-.64.37-1.14.89-1.52 1.58-.37.66-.55 1.43-.55 2.31 0 .87.18 1.65.55 2.34.38.67.88 1.19 1.52 1.57.65.37 1.38.55 2.18.55.81 0 1.53-.18 2.17-.55zm18.7-1.07c0 1.11-.42 1.97-1.26 2.58-.83.6-2.06.9-3.71.9h-6.06v-12.64h5.84c1.49 0 2.66.28 3.5.86.84.55 1.26 1.35 1.26 2.38 0 .67-.18 1.25-.55 1.74-.35.48-.84.85-1.47 1.1 1.63.41 2.45 1.44 2.45 3.08zm-5.38-3.72c.88 0 1.53-.16 1.98-.48.46-.32.69-.78.69-1.38 0-1.21-.89-1.82-2.67-1.82h-3.42v3.68h3.42zm2.38 4.98c.48-.3.72-.77.72-1.4 0-.66-.23-1.14-.67-1.46-.43-.32-1.11-.48-2.04-.48h-3.81v3.8h3.66c1.11-.1 1.83-.25 2.14-.46zm15.06-9.25c.93.85 1.4 2.14 1.4 3.84v7.63h-2.16v-1.67c-.38.59-.93 1.04-1.64 1.36-.7.3-1.53.46-2.5.46-1.41 0-2.54-.35-3.4-1.03-.84-.68-1.26-1.58-1.26-2.7 0-1.11.4-2 1.21-2.67.81-.68 2.09-1.02 3.85-1.02h3.62v-.46c0-.98-.29-1.74-.86-2.26-.57-.53-1.41-.79-2.52-.79-.74 0-1.47.12-2.19.38-.71.24-1.31.56-1.8.98-.1-.17-.86-1.55-.95-1.72.65-.53 1.42-.92 2.33-1.19.9-.29 1.86-.43 2.87-.43 1.75 0 3.08.43 4 1.29zm-2.26 9.28c.63-.4 1.09-.96 1.38-1.67v-1.77h-3.52c-1.94 0-2.9.65-2.9 1.96 0 .63.24 1.14.74 1.5.49.37 1.17.55 2.04.55.87 0 1.62-.19 2.26-.57zm18.93-8.45v10.64h-2.28v-10.64h-4.61v-2h11.5v2h-4.61zm8.41 9.95c-1-.56-1.78-1.32-2.35-2.29-.56-.99-.84-2.1-.84-3.34 0-1.24.28-2.35.84-3.32.57-.98 1.35-1.75 2.35-2.29 1-.55 2.12-.83 3.38-.83 1.25 0 2.37.28 3.35.83 1 .54 1.77 1.31 2.33 2.29.57.97.85 2.08.85 3.32 0 1.24-.28 2.35-.85 3.34-.56.97-1.33 1.73-2.33 2.29-.98.56-2.1.84-3.35.84-1.26 0-2.38-.28-3.38-.84zm5.54-1.72c.65-.38 1.16-.9 1.52-1.57.37-.69.55-1.47.55-2.34 0-.88-.18-1.65-.55-2.31a3.8 3.8 0 00-1.52-1.58c-.63-.37-1.36-.55-2.16-.55-.81 0-1.54.18-2.19.55-.64.37-1.14.89-1.52 1.58-.37.66-.55 1.43-.55 2.31 0 .87.18 1.65.55 2.34.38.67.88 1.19 1.52 1.57.65.37 1.38.55 2.19.55.8 0 1.53-.18 2.16-.55zm17.63-9.54c.97.54 1.72 1.29 2.26 2.27.55.97.83 2.09.83 3.36s-.28 2.4-.83 3.39c-.54.97-1.29 1.72-2.26 2.26-.97.55-2.06.82-3.28.82-.9 0-1.74-.18-2.5-.53-.74-.35-1.38-.86-1.9-1.53v6.54h-2.28v-17.27h2.19v2c.5-.7 1.15-1.22 1.92-1.57.78-.37 1.63-.55 2.57-.55 1.22 0 2.31.27 3.28.81zm-1.31 9.54c.65-.38 1.16-.9 1.52-1.57.38-.69.57-1.47.57-2.34 0-.88-.19-1.65-.57-2.31a3.8 3.8 0 00-1.52-1.58c-.63-.37-1.35-.55-2.16-.55-.79 0-1.51.19-2.16.57-.64.37-1.15.89-1.53 1.56-.36.66-.54 1.43-.54 2.31 0 .87.18 1.65.54 2.34.37.67.88 1.19 1.53 1.57.65.37 1.37.55 2.16.55.81 0 1.53-.18 2.16-.55zm10-8.23v10.64h-2.28v-12.64h9.27v2h-6.99zm11.61-2v12.64h-2.29v-12.64h2.29zm-2.26-2.87c-.29-.28-.43-.63-.43-1.05 0-.41.14-.76.43-1.05.3-.3.67-.45 1.12-.45.44 0 .8.14 1.09.43.3.27.45.61.45 1.03 0 .42-.15.79-.45 1.09-.29.29-.65.43-1.09.43-.45 0-.82-.14-1.12-.43zm17.74 12.03c0 1.11-.42 1.97-1.26 2.58-.83.6-2.06.9-3.71.9h-6.06v-12.64h5.84c1.49 0 2.66.28 3.5.86.84.55 1.26 1.35 1.26 2.38 0 .67-.18 1.25-.55 1.74-.35.48-.84.85-1.47 1.1 1.63.41 2.45 1.44 2.45 3.08zm-5.38-3.72c.88 0 1.53-.16 1.98-.48.46-.32.69-.78.69-1.38 0-1.21-.89-1.82-2.67-1.82h-3.42v3.68h3.42zm2.38 4.98c.48-.3.71-.77.71-1.4 0-.66-.22-1.14-.66-1.46-.43-.32-1.11-.48-2.05-.48h-3.8v3.8h3.66c1.11-.1 1.82-.25 2.14-.46zm17.39 2.22h-2.29v-10.64h-5.42c-.08 1.69-.13 2.63-.14 2.82-.08 1.7-.23 3.12-.45 4.27-.22 1.13-.59 2.03-1.09 2.72-.51.68-1.22 1.02-2.12 1.02-.41 0-.88-.07-1.4-.21.01-.19.13-1.74.14-1.93.21.04.4.07.57.07.64 0 1.11-.28 1.43-.84.31-.55.52-1.21.62-1.98.09-.76.18-1.85.26-3.27.01-.31.08-1.87.21-4.67h9.68v12.64zm14.51 0h-2.04v-4.01h-3.92l-2.76 4.01h-2.45c1.84-2.59 2.86-4.03 3.07-4.32-.95-.28-1.68-.75-2.19-1.4-.51-.67-.76-1.5-.76-2.49 0-1.44.49-2.54 1.47-3.29.99-.76 2.34-1.14 4.07-1.14h5.51v12.64zm-7.94-6.25c.54.4 1.34.6 2.4.6h3.5v-4.99h-3.4c-2.19 0-3.28.84-3.28 2.51 0 .84.26 1.47.78 1.88zm27.55.74c.46.49.69 1.11.69 1.84 0 .75-.25 1.41-.76 2-.51.58-1.21 1.03-2.12 1.36-.88.32-1.88.48-2.99.48-.94 0-1.86-.12-2.76-.36a8.47 8.47 0 01-2.38-1.07c.07-.18.62-1.57.69-1.74.61.38 1.3.68 2.07.9.78.21 1.56.31 2.36.31 1.07 0 1.93-.18 2.56-.55.65-.38.98-.89.98-1.52 0-.59-.26-1.04-.79-1.36-.5-.32-1.23-.48-2.16-.48h-2.31v-1.65h2.14c.86 0 1.53-.15 2.02-.45.5-.3.74-.72.74-1.24 0-.57-.29-1.02-.88-1.34-.57-.31-1.35-.47-2.33-.47-1.25 0-2.57.32-3.97.97-.06-.17-.55-1.58-.62-1.76 1.54-.78 3.15-1.17 4.83-1.17 1.01 0 1.92.14 2.73.43s1.45.69 1.91 1.22c.45.52.68 1.12.68 1.79 0 .62-.2 1.17-.61 1.67-.42.49-.97.86-1.67 1.12.84.22 1.49.58 1.95 1.07zm15.5-.05h-10.22c.14 1.12.62 2.02 1.45 2.7.84.67 1.88 1 3.11 1 1.51 0 2.72-.51 3.64-1.53.13.15 1.13 1.34 1.26 1.48-.57.67-1.28 1.18-2.14 1.53-.84.35-1.78.53-2.83.53-1.33 0-2.51-.27-3.54-.82a5.935 5.935 0 01-2.4-2.31c-.56-.99-.83-2.1-.83-3.34 0-1.23.27-2.33.8-3.32.56-.98 1.31-1.75 2.26-2.29.97-.55 2.06-.83 3.26-.83 1.2 0 2.27.28 3.21.83.95.54 1.69 1.31 2.21 2.29.54.99.81 2.12.81 3.39 0 .18-.02.41-.05.69zm-8.94-4.27c-.73.67-1.15 1.55-1.28 2.63h8.08c-.13-1.07-.56-1.94-1.31-2.6-.73-.69-1.64-1.03-2.73-1.03s-2.01.33-2.76 1zm22.49-2.12c.97.54 1.72 1.29 2.26 2.27.55.97.83 2.09.83 3.36s-.28 2.4-.83 3.39c-.54.97-1.29 1.72-2.26 2.26-.97.55-2.06.82-3.28.82-.9 0-1.74-.18-2.5-.53-.74-.35-1.38-.86-1.9-1.53v6.54h-2.28v-17.27h2.19v2c.5-.7 1.14-1.22 1.92-1.57.78-.37 1.63-.55 2.57-.55 1.22 0 2.31.27 3.28.81zm-1.31 9.54c.65-.38 1.16-.9 1.52-1.57.38-.69.57-1.47.57-2.34 0-.88-.19-1.65-.57-2.31a3.8 3.8 0 00-1.52-1.58c-.63-.37-1.35-.55-2.16-.55-.79 0-1.52.19-2.16.57-.64.37-1.15.89-1.53 1.56-.36.66-.54 1.43-.54 2.31 0 .87.18 1.65.54 2.34.37.67.88 1.19 1.53 1.57.64.37 1.37.55 2.16.55.81 0 1.53-.18 2.16-.55zm10-10.23v5.37h7.18v-5.37h2.28v12.64h-2.28v-5.29h-7.18v5.29h-2.28v-12.64h2.28zm15.92 11.95c-1-.56-1.78-1.32-2.36-2.29-.55-.99-.83-2.1-.83-3.34 0-1.24.28-2.35.83-3.32a6.04 6.04 0 012.36-2.29c1-.55 2.12-.83 3.37-.83 1.26 0 2.37.28 3.36.83.99.54 1.77 1.31 2.33 2.29.57.97.85 2.08.85 3.32 0 1.24-.28 2.35-.85 3.34-.56.97-1.34 1.73-2.33 2.29s-2.1.84-3.36.84c-1.25 0-2.37-.28-3.37-.84zm5.54-1.72c.65-.38 1.15-.9 1.52-1.57.36-.69.55-1.47.55-2.34 0-.88-.19-1.65-.55-2.31-.37-.69-.87-1.21-1.52-1.58-.64-.37-1.36-.55-2.17-.55-.8 0-1.53.18-2.18.55-.64.37-1.14.89-1.52 1.58-.37.66-.55 1.43-.55 2.31 0 .87.18 1.65.55 2.34.38.67.88 1.19 1.52 1.57.65.37 1.38.55 2.18.55.81 0 1.53-.18 2.17-.55zm22.19 2.41h-2.07v-9.23l-4.7 7.8h-1l-4.66-7.83v9.26h-2.09v-12.64h2.35l4.95 8.54 5.08-8.54h2.14v12.64z" id="G"/></defs><use xlink:href="#a" fill="#1b7340"/><use xlink:href="#b" fill="#fff"/><use xlink:href="#b" fill-opacity="0" stroke="#000" stroke-opacity="0"/><use xlink:href="#c"/><use xlink:href="#c" fill-opacity="0" stroke="#000" stroke-opacity="0"/><use xlink:href="#d" fill="#1b7340"/><use xlink:href="#d" fill-opacity="0" stroke="#000" stroke-opacity="0"/><use xlink:href="#e" fill="#ffcc57"/><use xlink:href="#e" fill-opacity="0" stroke="#ffcc57"/><use xlink:href="#f" fill="#ffcc57"/><use xlink:href="#f" fill-opacity="0" stroke="#ffcc57"/><use xlink:href="#g" fill="#ffcc57"/><use xlink:href="#g" fill-opacity="0" stroke="#ffcc57"/><use xlink:href="#h" fill="#ffcc57"/><use xlink:href="#h" fill-opacity="0" stroke="#ffcc57"/><use xlink:href="#i" fill="#ffcc57"/><use xlink:href="#i" fill-opacity="0" stroke="#ffcc57"/><use xlink:href="#j" fill="#ffcc57"/><use xlink:href="#j" fill-opacity="0" stroke="#ffcc57"/><use xlink:href="#k" fill="#ffcc57"/><use xlink:href="#k" fill-opacity="0" stroke="#ffcc57"/><use xlink:href="#l" fill="#ffcc57"/><use xlink:href="#l" fill-opacity="0" stroke="#ffcc57"/><use xlink:href="#m" fill="#ffcc57"/><use xlink:href="#m" fill-opacity="0" stroke="#ffcc57"/><use xlink:href="#n" fill="#ffcc57"/><use xlink:href="#n" fill-opacity="0" stroke="#ffcc57"/><use xlink:href="#o" fill="#ffcc57"/><use xlink:href="#o" fill-opacity="0" stroke="#ffcc57"/><use xlink:href="#p" fill="#ffcc57"/><use xlink:href="#p" fill-opacity="0" stroke="#ffcc57"/><use xlink:href="#q" fill="#ffcc57"/><use xlink:href="#q" fill-opacity="0" stroke="#ffcc57"/><use xlink:href="#r" fill="#ffcc57"/><use xlink:href="#r" fill-opacity="0" stroke="#ffcc57"/><use xlink:href="#s" fill="#ffcc57"/><use xlink:href="#s" fill-opacity="0" stroke="#ffcc57"/><use xlink:href="#t" fill="#ffcc57"/><use xlink:href="#t" fill-opacity="0" stroke="#ffcc57"/><use xlink:href="#u" fill="#ffcc57"/><use xlink:href="#u" fill-opacity="0" stroke="#ffcc57"/><use xlink:href="#v" fill="#ffcc57"/><use xlink:href="#v" fill-opacity="0" stroke="#000" stroke-opacity="0"/><use xlink:href="#w" fill="#ffcc57"/><use xlink:href="#w" fill-opacity="0" stroke="#ffcc57"/><use xlink:href="#x" fill="#ffcc57"/><use xlink:href="#x" fill-opacity="0" stroke="#000" stroke-opacity="0"/><use xlink:href="#y" fill="#ffcc57"/><use xlink:href="#y" fill-opacity="0" stroke="#000" stroke-opacity="0"/><use xlink:href="#z" fill="#ffcc57"/><use xlink:href="#z" fill-opacity="0" stroke="#000" stroke-opacity="0"/><use xlink:href="#A" fill="#ffcc57"/><use xlink:href="#A" fill-opacity="0" stroke="#000" stroke-opacity="0"/><use xlink:href="#B" fill="#ffcc57"/><use xlink:href="#B" fill-opacity="0" stroke="#000" stroke-opacity="0"/><use xlink:href="#C" fill="#ffcc57"/><use xlink:href="#C" fill-opacity="0" stroke="#000" stroke-opacity="0"/><use xlink:href="#D" fill="#ffcc57"/><use xlink:href="#D" fill-opacity="0" stroke="#000" stroke-opacity="0"/><use xlink:href="#E" fill="#ffcc57"/><use xlink:href="#E" fill-opacity="0" stroke="#000" stroke-opacity="0"/><use xlink:href="#F" fill="#ffcc57"/><use xlink:href="#F" fill-opacity="0" stroke="#000" stroke-opacity="0"/><use xlink:href="#G" fill="#fff"/><use xlink:href="#G" fill-opacity="0" stroke="#000" stroke-opacity="0"/></svg>