<svg xmlns="http://www.w3.org/2000/svg" width="512" height="512" viewBox="0 0 308.768 308.768"><g xmlns="http://www.w3.org/2000/svg" fill="#1b7340"><path d="M154.378 0c-53.732 0-97.451 49.077-97.451 109.397 0 48.785 66.381 151.362 94.724 195.164.949 1.468 1.862 2.864 2.721 4.207a3083.76 3083.76 0 012.697-4.171c28.361-43.815 94.772-146.415 94.772-195.194C251.847 49.072 208.121 0 154.378 0zm0 145.198c-19.744 0-35.801-16.063-35.801-35.801s16.057-35.801 35.801-35.801 35.801 16.057 35.801 35.801c0 19.738-16.063 35.801-35.801 35.801z" data-original="#010002"/><path d="M154.378 85.529c-13.163 0-23.867 10.705-23.867 23.867s10.705 23.867 23.867 23.867c13.163 0 23.867-10.705 23.867-23.867s-10.704-23.867-23.867-23.867z" data-original="#010002"/></g></svg>