<?xml version="1.0" encoding="UTF-8" standalone="no"?>
<!DOCTYPE svg PUBLIC "-//W3C//DTD SVG 1.1//EN" "http://www.w3.org/Graphics/SVG/1.1/DTD/svg11.dtd">
<svg version="1.1" xmlns="http://www.w3.org/2000/svg" xmlns:xlink="http://www.w3.org/1999/xlink" preserveAspectRatio="xMidYMid meet" viewBox="0 0 640 640" width="400" height="400"><defs><path d="M34 26.97L435 26.97L435 226.97L34 226.97L34 26.97Z" id="f1iVbXHycm"></path><path d="M410 62C410 62 410 62 410 62C410 121.4 410 154.4 410 161C410 161 410 161 410 161C199.4 161 82.4 161 59 161C59 161 59 161 59 161C59 101.6 59 68.6 59 62C59 62 59 62 59 62C269.6 62 386.6 62 410 62Z" id="c27ML5HsrJ"></path><path d="M199.04 96C202.08 96 204.76 96.59 207.08 97.76C209.43 98.91 211.24 100.53 212.52 102.64C213.83 104.75 214.48 107.2 214.48 110C214.48 112.8 213.83 115.25 212.52 117.36C211.24 119.47 209.43 121.11 207.08 122.28C204.76 123.43 202.08 124 199.04 124C198.19 124 193.95 124 186.32 124L186.32 96C193.95 96 198.19 96 199.04 96ZM205.4 116.36C207.08 114.79 207.92 112.67 207.92 110C207.92 107.33 207.08 105.23 205.4 103.68C203.75 102.11 201.52 101.32 198.72 101.32C198.33 101.32 196.35 101.32 192.8 101.32L192.8 118.68L198.72 118.68C202.07 118.16 204.3 117.39 205.4 116.36ZM251.59 124L244.63 124L238.47 105.04L232.11 124L225.19 124L215.99 96L222.71 96L229.03 115.68L235.63 96L241.63 96L248.03 115.84L254.55 96L260.75 96L251.59 124ZM281.72 118L279.24 124L272.6 124L285.08 96L291.48 96L304 124L297.2 124L294.72 118L281.72 118ZM288.24 102.36L283.8 113.08L292.68 113.08L288.24 102.36ZM331.36 109.56C331.36 116.38 331.36 120.16 331.36 120.92C329.84 122.07 328.08 122.95 326.08 123.56C324.08 124.17 322.06 124.48 320.04 124.48C317.13 124.48 314.52 123.87 312.2 122.64C309.88 121.39 308.05 119.67 306.71 117.48C305.41 115.27 304.76 112.77 304.76 110C304.76 107.23 305.41 104.75 306.71 102.56C308.05 100.35 309.89 98.63 312.24 97.4C314.58 96.15 317.22 95.52 320.15 95.52C322.61 95.52 324.83 95.93 326.83 96.76C328.84 97.59 330.52 98.79 331.88 100.36C331.46 100.74 328.13 103.82 327.72 104.2C325.71 102.09 323.3 101.04 320.48 101.04C318.69 101.04 317.1 101.41 315.71 102.16C314.33 102.91 313.25 103.96 312.48 105.32C311.7 106.68 311.32 108.24 311.32 110C311.32 111.73 311.7 113.28 312.48 114.64C313.25 116 314.32 117.07 315.68 117.84C317.06 118.59 318.64 118.96 320.4 118.96C322.26 118.96 323.94 118.56 325.44 117.76C325.43 117.21 325.43 114.48 325.44 109.56L331.36 109.56ZM349.82 116.2L349.5 116.2L343.86 116.2L343.86 124L337.38 124L337.38 96C344.65 96 348.69 96 349.5 96C351.98 96 354.12 96.41 355.94 97.24C357.78 98.07 359.19 99.24 360.18 100.76C361.16 102.28 361.66 104.08 361.66 106.16C361.66 108.24 361.15 110.04 360.14 111.56C359.15 113.05 357.74 114.2 355.9 115C356.31 115.6 358.41 118.6 362.18 124L355.22 124L349.82 116.2ZM353.58 102.56C352.56 101.71 351.08 101.28 349.14 101.28C348.78 101.28 347.02 101.28 343.86 101.28L343.86 111.04C347.02 111.04 348.78 111.04 349.14 111.04C351.08 111.04 352.56 110.61 353.58 109.76C354.59 108.91 355.1 107.71 355.1 106.16C355.1 104.59 354.59 103.39 353.58 102.56ZM372.47 122.6C370.15 121.35 368.32 119.63 366.99 117.44C365.68 115.23 365.03 112.75 365.03 110C365.03 107.25 365.68 104.79 366.99 102.6C368.32 100.39 370.15 98.65 372.47 97.4C374.82 96.15 377.44 95.52 380.35 95.52C383.26 95.52 385.87 96.15 388.19 97.4C390.51 98.65 392.34 100.39 393.67 102.6C395 104.79 395.67 107.25 395.67 110C395.67 112.75 395 115.23 393.67 117.44C392.34 119.63 390.51 121.35 388.19 122.6C385.87 123.85 383.26 124.48 380.35 124.48C377.44 124.48 374.82 123.85 372.47 122.6ZM384.83 117.84C386.16 117.07 387.2 116 387.95 114.64C388.72 113.28 389.11 111.73 389.11 110C389.11 108.27 388.72 106.72 387.95 105.36C387.2 104 386.16 102.95 384.83 102.2C383.5 101.43 382 101.04 380.35 101.04C378.7 101.04 377.2 101.43 375.87 102.2C374.54 102.95 373.48 104 372.71 105.36C371.96 106.72 371.59 108.27 371.59 110C371.59 111.73 371.96 113.28 372.71 114.64C373.48 116 374.54 117.07 375.87 117.84C377.2 118.59 378.7 118.96 380.35 118.96C382 118.96 383.5 118.59 384.83 117.84Z" id="b75JwB6rCN"></path><path d="M159 65C159 65 159 65 159 65C159 120.8 159 151.8 159 158C159 158 159 158 159 158C100.8 158 68.47 158 62 158C62 158 62 158 62 158C62 102.2 62 71.2 62 65C62 65 62 65 62 65C120.2 65 152.53 65 159 65Z" id="a1mRIH4BaP"></path><path d="M130.93 92.04C124.65 97.57 74.42 141.87 68.15 147.4C68 147.53 67.73 147.53 67.58 147.4C67.47 147.3 67.47 147.17 67.58 147.07C73.86 141.54 124.09 97.24 130.37 91.71C130.52 91.58 130.78 91.58 130.93 91.71C131.04 91.81 131.04 91.94 130.93 92.04Z" id="cvpaIsrfq"></path><path d="M121.7 101.03L124.97 103.92C124.86 104.2 124.79 104.35 124.78 104.38C124.78 104.38 124.78 104.38 124.78 104.38C126.77 105.2 129.5 105.69 132.51 105.69C133.62 105.69 134.69 105.56 135.71 105.33C135.71 105.33 135.71 105.33 135.71 105.33C137.92 104.84 139.84 103.94 141.21 103.09C141.21 103.09 141.21 103.09 141.21 103.09C142.14 102.52 142.8 102.07 143.05 101.86C143.09 101.82 143.28 101.66 143.63 101.37C143.23 101.17 143.01 101.05 142.96 101.03C142.53 100.81 141.08 100.22 139.11 99.52C137.5 98.96 135.58 98.42 133.58 98.1C133.58 98.1 133.58 98.1 133.58 98.1C132.13 97.87 130.64 97.74 129.21 97.74C127.31 97.74 125.52 97.96 124.16 98.48C124.16 98.48 124.16 98.48 124.16 98.48C122.97 98.94 121.98 99.67 121.75 100.81C121.75 100.81 121.75 100.81 121.75 100.81C121.74 100.88 121.73 100.95 121.72 101.03C121.71 101.03 121.71 101.03 121.7 101.03ZM124.43 104.84C122.14 103.89 120.97 102.62 120.97 101.36C120.97 101.16 120.99 100.95 121.04 100.74C121.04 100.74 121.04 100.74 121.04 100.74C121.28 99.53 122.25 98.62 123.83 98.02C125.27 97.47 127.15 97.22 129.21 97.22C130.66 97.22 132.21 97.35 133.73 97.59C135.78 97.92 137.76 98.47 139.42 99.06C140.8 99.54 141.98 100.09 142.83 100.56C143.25 100.79 143.58 101 143.8 101.16C143.92 101.25 143.99 101.31 144.04 101.36C144.04 101.36 144.04 101.36 144.05 101.36C144.04 101.38 144.02 101.43 143.95 101.54C143.86 101.68 143.71 101.86 143.5 102.08C143.08 102.5 142.46 103 141.67 103.48C140.23 104.37 138.22 105.32 135.91 105.83C134.82 106.07 133.68 106.22 132.51 106.22C129.35 106.22 126.5 105.68 124.44 104.84C124.44 104.84 124.44 104.84 124.43 104.84C124.43 104.84 124.43 104.84 124.43 104.84ZM144.07 101.39C144.07 101.4 144.07 101.4 144.07 101.4C144.07 101.4 144.07 101.4 144.07 101.39Z" id="c31FxL46S"></path><path d="M143.67 101.17C143.9 101.17 145.74 101.17 145.97 101.17C146.24 101.17 146.34 101.34 146.34 101.43C146.34 101.52 146.24 101.69 145.97 101.69C145.74 101.69 143.9 101.69 143.67 101.69C143.41 101.69 143.31 101.52 143.31 101.43C143.31 101.34 143.41 101.17 143.67 101.17Z" id="d2h6hvfN5e"></path><path d="M117.39 82.23C117.94 81.54 118.51 81 118.99 80.63C119.23 80.44 119.44 80.31 119.6 80.22C119.78 80.14 119.86 80.12 119.87 80.12C119.87 80.12 119.87 80.12 119.87 80.12C119.87 80.12 119.92 80.12 119.92 80.12C119.93 80.12 119.95 80.12 119.96 80.13C119.97 80.13 119.98 80.14 119.99 80.15C120.04 80.19 120.12 80.26 120.21 80.36C120.39 80.55 120.63 80.84 120.89 81.21C121.42 81.95 122.04 82.99 122.58 84.2C123.24 85.66 123.87 87.4 124.24 89.19C124.51 90.52 124.66 91.88 124.66 93.15C124.66 94.94 124.37 96.58 123.76 97.82C123.1 99.17 122.08 100.06 120.63 100.29C120.63 100.29 120.63 100.29 120.63 100.29C120.38 100.33 120.14 100.35 119.89 100.35C119.89 100.35 119.88 100.35 119.88 100.35C118.34 100.34 116.91 99.26 115.87 97.29C115.84 97.3 115.69 97.38 115.43 97.52C115.69 97.38 115.84 97.3 115.87 97.29C114.92 95.49 114.32 93 114.32 90.24C114.32 89.22 114.48 88.22 114.75 87.28C115.32 85.26 116.39 83.5 117.39 82.23ZM114.27 87.14L114.75 87.28L114.27 87.14ZM120.18 80.94C120.16 80.91 120.05 80.74 119.85 80.45C119.59 80.69 119.45 80.83 119.42 80.85C119.18 81.08 118.67 81.66 118.02 82.48C118.02 82.48 118.02 82.48 118.02 82.48C117.06 83.69 116.02 85.4 115.46 87.37C115.46 87.37 115.46 87.37 115.46 87.37C115.2 88.27 115.04 89.24 115.04 90.24C115.04 92.91 115.61 95.34 116.55 97.11C117.36 98.66 118.52 99.82 119.89 99.82C120.11 99.82 120.3 99.81 120.48 99.78C120.48 99.78 120.48 99.78 120.49 99.78C121.7 99.59 122.54 98.76 123.07 97.66C123.04 97.65 122.89 97.57 122.62 97.44C122.89 97.57 123.04 97.65 123.07 97.66C123.67 96.43 123.93 94.84 123.93 93.15C123.93 91.87 123.79 90.54 123.52 89.26C123.16 87.48 122.54 85.78 121.89 84.35C121.11 82.61 120.44 81.32 120.18 80.94ZM121.44 84.56L121.89 84.35L121.44 84.56Z" id="a2GbIPjJtT"></path><path d="M119.45 80.39C119.45 80.19 119.45 78.56 119.45 78.36C119.45 78.27 119.55 78.1 119.81 78.1C120.07 78.1 120.18 78.27 120.18 78.36C120.18 78.56 120.18 80.19 120.18 80.39C120.18 80.48 120.07 80.65 119.81 80.65C119.55 80.65 119.45 80.48 119.45 80.39Z" id="b2nMPD1d1"></path><path d="M107.85 113.14C107.85 113.14 107.83 113.14 107.81 113.14C107.81 113.42 107.81 113.57 107.81 113.6C107.81 114.27 108.19 114.86 108.72 115.35C109.26 115.83 110.01 116.26 110.9 116.63C112.88 117.45 115.61 117.94 118.62 117.94C119.74 117.94 120.81 117.8 121.82 117.58C124.03 117.09 125.95 116.18 127.32 115.34C127.31 115.31 127.22 115.16 127.06 114.91C127.22 115.16 127.31 115.31 127.32 115.34C128.25 114.76 128.92 114.31 129.17 114.1C129.21 114.07 129.4 113.91 129.74 113.62C129.34 113.41 129.12 113.3 129.08 113.27C128.65 113.05 127.2 112.46 125.23 111.77C125.21 111.8 125.16 111.94 125.07 112.21C125.16 111.94 125.21 111.8 125.23 111.77C123.62 111.2 121.69 110.66 119.7 110.34C119.69 110.37 119.66 110.54 119.62 110.84C119.66 110.54 119.69 110.37 119.7 110.34C118.25 110.11 116.75 109.98 115.32 109.98C113.42 109.98 111.64 110.21 110.27 110.73C110.27 110.73 110.27 110.73 110.27 110.73C109.08 111.18 108.1 111.92 107.87 113.05C107.87 113.05 107.87 113.05 107.87 113.05C107.86 113.09 107.85 113.12 107.85 113.14ZM110.56 117.09C110.56 117.09 110.55 117.08 110.55 117.08C108.25 116.13 107.09 114.86 107.09 113.6C107.09 113.4 107.11 113.19 107.15 112.98C107.15 112.98 107.15 112.98 107.15 112.98C107.4 111.77 108.37 110.86 109.95 110.26C111.38 109.72 113.27 109.46 115.32 109.46C116.77 109.46 118.32 109.59 119.84 109.83C121.89 110.16 123.87 110.72 125.53 111.3C126.91 111.79 128.1 112.33 128.94 112.8C129.36 113.03 129.69 113.24 129.92 113.41C130.03 113.49 130.11 113.56 130.16 113.6C130.16 113.6 130.16 113.61 130.16 113.61C130.16 113.62 130.14 113.68 130.07 113.78C129.97 113.93 129.82 114.11 129.61 114.32C129.2 114.74 128.57 115.24 127.79 115.73C127.8 115.76 127.89 115.9 128.05 116.15C127.89 115.9 127.8 115.76 127.79 115.73C126.35 116.61 124.33 117.57 122.02 118.08C122.02 118.08 122.02 118.08 122.02 118.08C120.94 118.32 119.8 118.46 118.62 118.46C115.47 118.46 112.62 117.93 110.56 117.09ZM130.19 113.64C130.19 113.64 130.19 113.64 130.19 113.64C130.19 113.64 130.19 113.64 130.19 113.64Z" id="a39erZKGpN"></path><path d="M129.79 113.41C130.02 113.41 131.86 113.41 132.09 113.41C132.35 113.41 132.45 113.59 132.45 113.68C132.45 113.76 132.35 113.94 132.09 113.94C131.86 113.94 130.02 113.94 129.79 113.94C129.53 113.94 129.42 113.76 129.42 113.68C129.42 113.59 129.53 113.41 129.79 113.41Z" id="e3TRk61iMu"></path><path d="M106 112.59C104.46 112.59 103.02 111.5 101.98 109.53C101.98 109.53 101.98 109.53 101.98 109.53C101.03 107.74 100.43 105.24 100.43 102.48C100.43 101.46 100.59 100.47 100.86 99.52C100.86 99.52 100.86 99.52 100.86 99.52C101.44 97.51 102.51 95.74 103.51 94.48C103.51 94.48 103.51 94.48 103.51 94.48C104.05 93.79 104.62 93.24 105.1 92.87C105.34 92.69 105.55 92.55 105.72 92.46C105.89 92.38 105.97 92.36 105.98 92.36C105.98 92.36 105.98 92.36 105.98 92.36C106.01 92.36 106.04 92.36 106.07 92.37C106.08 92.38 106.09 92.38 106.1 92.39C106.16 92.43 106.23 92.5 106.32 92.6C106.51 92.8 106.74 93.09 107.01 93.46C107.53 94.2 108.15 95.24 108.7 96.45C109.36 97.91 109.98 99.64 110.35 101.43C110.63 102.77 110.77 104.12 110.77 105.39C110.77 107.19 110.48 108.83 109.88 110.07C109.22 111.42 108.2 112.3 106.75 112.53C106.75 112.53 106.75 112.53 106.75 112.53C106.5 112.57 106.25 112.59 106.01 112.59C106.01 112.59 106 112.59 106 112.59ZM106.01 112.07C106.22 112.07 106.42 112.06 106.6 112.03C106.6 112.03 106.6 112.03 106.6 112.03C107.81 111.83 108.65 111 109.19 109.91C109.79 108.68 110.05 107.08 110.05 105.39C110.05 104.12 109.9 102.79 109.64 101.5C109.27 99.73 108.65 98.02 108.01 96.6C108.01 96.6 108.01 96.6 108.01 96.6C107.23 94.86 106.55 93.57 106.3 93.19C106.27 93.15 106.16 92.99 105.97 92.7C105.71 92.94 105.57 93.07 105.54 93.1C105.3 93.32 104.78 93.91 104.13 94.73C104.13 94.73 104.13 94.73 104.13 94.73C103.17 95.94 102.14 97.65 101.57 99.62C101.32 100.52 101.16 101.48 101.16 102.48C101.16 105.16 101.72 107.59 102.66 109.36C102.66 109.36 102.66 109.36 102.66 109.36C103.98 111.17 105.09 112.07 106.01 112.07Z" id="b3lxMLBDP"></path><path d="M105.56 92.63C105.56 92.43 105.56 90.81 105.56 90.61C105.56 90.52 105.66 90.34 105.93 90.34C106.19 90.34 106.29 90.52 106.29 90.61C106.29 90.81 106.29 92.43 106.29 92.63C106.29 92.72 106.19 92.9 105.93 92.9C105.66 92.9 105.56 92.72 105.56 92.63Z" id="a1ECQZptqw"></path><path d="M101.44 121.7C102.89 121.7 104.44 121.83 105.96 122.08C108.01 122.41 109.99 122.96 111.64 123.54C113.03 124.03 114.21 124.58 115.06 125.04C115.48 125.28 115.81 125.49 116.03 125.65C116.15 125.73 116.22 125.8 116.27 125.85C116.27 125.85 116.27 125.85 116.28 125.85C116.27 125.86 116.25 125.92 116.18 126.03C116.09 126.17 115.94 126.35 115.73 126.56C115.31 126.98 114.69 127.49 113.9 127.97C112.46 128.86 110.45 129.81 108.14 130.32C107.05 130.56 105.91 130.71 104.74 130.71C101.58 130.71 98.73 130.17 96.67 129.33C96.67 129.33 96.67 129.32 96.66 129.32C96.66 129.32 96.66 129.32 96.66 129.32C94.36 128.38 93.2 127.11 93.2 125.85C93.2 125.64 93.22 125.44 93.26 125.23C93.51 124.01 94.48 123.11 96.06 122.51C97.5 121.96 99.38 121.7 101.44 121.7ZM95.88 122.04L96.06 122.51L95.88 122.04ZM93.95 125.45C94.26 125.79 96.71 128.53 97.01 128.87C99 129.69 101.73 130.18 104.74 130.18C105.85 130.18 106.92 130.04 107.93 129.82C107.93 129.82 107.93 129.82 107.93 129.82C110.15 129.33 112.07 128.42 113.44 127.58C113.44 127.58 113.44 127.58 113.44 127.58C114.37 127.01 115.03 126.55 115.28 126.34C115.32 126.31 115.51 126.15 115.86 125.86C115.46 125.65 115.24 125.54 115.19 125.52C114.76 125.29 113.31 124.7 111.34 124.01C111.33 124.04 111.28 124.18 111.2 124.42C111.28 124.18 111.33 124.04 111.34 124.01C109.73 123.45 107.81 122.9 105.81 122.59C105.81 122.62 105.78 122.76 105.74 123.04C105.78 122.76 105.81 122.62 105.81 122.59C104.36 122.35 102.87 122.23 101.44 122.23C99.54 122.23 97.75 122.45 96.39 122.97C96.39 122.97 96.39 122.97 96.39 122.97C95.2 123.43 94.21 124.16 93.98 125.29C93.98 125.29 93.98 125.29 93.98 125.29C93.97 125.36 93.96 125.42 93.95 125.45ZM116.3 125.88C116.3 125.88 116.31 125.88 116.31 125.88C116.3 125.88 116.3 125.88 116.3 125.88Z" id="a2cqXtK5G"></path><path d="M115.9 125.66C116.13 125.66 117.97 125.66 118.2 125.66C118.46 125.66 118.57 125.83 118.57 125.92C118.57 126.01 118.46 126.18 118.2 126.18C117.97 126.18 116.13 126.18 115.9 126.18C115.64 126.18 115.54 126.01 115.54 125.92C115.54 125.83 115.64 125.66 115.9 125.66Z" id="b6aZz08HIP"></path><path d="M92.12 124.84C90.58 124.83 89.14 123.75 88.1 121.78C88.1 121.78 88.1 121.78 88.1 121.78C87.15 119.98 86.54 117.49 86.54 114.72C86.54 113.7 86.71 112.71 86.97 111.77C86.97 111.77 86.97 111.77 86.97 111.77C87.55 109.75 88.62 107.99 89.62 106.72C89.62 106.72 89.62 106.72 89.62 106.72C90.17 106.03 90.74 105.48 91.22 105.11C91.46 104.93 91.67 104.8 91.83 104.71C92.01 104.62 92.09 104.61 92.1 104.61C92.1 104.61 92.1 104.61 92.1 104.61C92.12 104.61 92.15 104.61 92.19 104.61C92.19 104.62 92.2 104.63 92.22 104.64C92.27 104.68 92.34 104.75 92.44 104.84C92.62 105.04 92.86 105.33 93.12 105.7C93.65 106.44 94.27 107.48 94.81 108.69C94.84 108.68 94.99 108.61 95.25 108.5C94.99 108.61 94.84 108.68 94.81 108.69C95.47 110.15 96.1 111.88 96.47 113.68C96.74 115.01 96.89 116.37 96.89 117.64C96.89 119.43 96.6 121.07 95.99 122.31C95.33 123.66 94.31 124.55 92.86 124.78C92.86 124.78 92.86 124.78 92.86 124.78C92.61 124.82 92.37 124.84 92.12 124.84C92.12 124.84 92.12 124.84 92.12 124.84ZM88.77 121.6C89.59 123.15 90.75 124.31 92.12 124.31C92.34 124.31 92.53 124.3 92.71 124.27C92.71 124.27 92.71 124.27 92.71 124.27C93.92 124.08 94.77 123.24 95.3 122.15C95.3 122.15 95.3 122.15 95.3 122.15C95.9 120.92 96.16 119.32 96.16 117.64C96.16 116.36 96.02 115.03 95.75 113.75C95.72 113.75 95.56 113.79 95.26 113.85C95.56 113.79 95.72 113.75 95.75 113.75C95.39 111.97 94.77 110.27 94.12 108.84C93.34 107.1 92.67 105.82 92.41 105.43C92.39 105.4 92.28 105.23 92.08 104.94C91.83 105.18 91.68 105.31 91.65 105.34C91.41 105.56 90.9 106.15 90.25 106.97C90.25 106.97 90.25 106.97 90.25 106.97C89.29 108.18 88.25 109.89 87.69 111.86C87.43 112.76 87.27 113.73 87.27 114.72C87.27 117.4 87.84 119.83 88.77 121.6Z" id="bkvJpFoMA"></path><path d="M91.68 104.88C91.68 104.67 91.68 103.05 91.68 102.85C91.68 102.76 91.78 102.59 92.04 102.59C92.3 102.59 92.41 102.76 92.41 102.85C92.41 103.05 92.41 104.67 92.41 104.88C92.41 104.96 92.3 105.14 92.04 105.14C91.78 105.14 91.68 104.96 91.68 104.88Z" id="dzNDCcoRA"></path><path d="M80.04 137.59L83.32 140.65C83.2 140.93 83.14 141.09 83.13 141.12C83.13 141.12 83.13 141.12 83.13 141.12C85.11 141.93 87.84 142.43 90.85 142.43C91.96 142.43 93.04 142.29 94.05 142.07C94.05 142.07 94.05 142.07 94.05 142.07C96.26 141.57 98.18 140.67 99.55 139.82C99.55 139.82 99.55 139.82 99.55 139.82C100.48 139.25 101.15 138.8 101.4 138.59C101.44 138.56 101.63 138.39 101.97 138.1C101.57 137.9 101.35 137.78 101.31 137.76C100.88 137.54 99.43 136.95 97.46 136.26C97.44 136.29 97.39 136.44 97.29 136.72C97.39 136.44 97.44 136.29 97.46 136.26C95.84 135.69 93.92 135.15 91.93 134.83C91.92 134.86 91.9 135.01 91.85 135.29C91.9 135.01 91.92 134.86 91.93 134.83C90.48 134.6 88.98 134.47 87.55 134.47C85.65 134.47 83.87 134.7 82.5 135.22C82.5 135.22 82.5 135.22 82.5 135.22C81.31 135.67 80.33 136.4 80.1 137.54C80.1 137.54 80.1 137.54 80.1 137.54C80.09 137.56 80.09 137.57 80.09 137.59C80.08 137.59 80.07 137.59 80.04 137.59ZM82.78 141.57C80.48 140.62 79.31 139.35 79.31 138.09C79.31 137.89 79.34 137.68 79.38 137.47C79.38 137.47 79.38 137.47 79.38 137.47C79.63 136.26 80.6 135.35 82.18 134.75C83.61 134.21 85.49 133.95 87.55 133.95C89 133.95 90.55 134.08 92.07 134.32C94.12 134.65 96.1 135.21 97.76 135.79C99.14 136.27 100.33 136.82 101.17 137.29C101.59 137.52 101.92 137.73 102.15 137.9C102.26 137.98 102.34 138.04 102.38 138.09C102.39 138.09 102.39 138.09 102.39 138.1C102.39 138.11 102.37 138.16 102.3 138.27C102.2 138.41 102.05 138.6 101.84 138.81C101.43 139.23 100.8 139.73 100.02 140.22C98.58 141.1 96.56 142.05 94.25 142.57C93.17 142.81 92.03 142.95 90.85 142.95C87.7 142.95 84.85 142.42 82.79 141.57C82.79 141.57 82.78 141.57 82.78 141.57ZM102.42 138.13C102.42 138.13 102.42 138.13 102.42 138.13C102.42 138.13 102.42 138.13 102.42 138.13Z" id="iORRPEpg"></path><path d="M102.02 137.9C102.25 137.9 104.09 137.9 104.32 137.9C104.58 137.9 104.68 138.08 104.68 138.16C104.68 138.25 104.58 138.43 104.32 138.43C104.09 138.43 102.25 138.43 102.02 138.43C101.76 138.43 101.65 138.25 101.65 138.16C101.65 138.08 101.76 137.9 102.02 137.9Z" id="cWI3ErWoC"></path><path d="M78.27 116.85C78.23 116.85 78.22 116.85 78.21 116.85C78.21 116.85 78.21 116.85 78.21 116.85C78.2 116.86 78.12 116.87 77.95 116.96C77.78 117.04 77.57 117.18 77.33 117.36C76.85 117.73 76.28 118.28 75.74 118.97M78.27 116.85C78.25 128.99 78.23 135.73 78.23 137.08C76.69 137.08 75.26 135.99 74.21 134.02C74.18 134.04 74.04 134.12 73.77 134.26C74.04 134.12 74.18 134.04 74.21 134.02C73.26 132.23 72.66 129.73 72.66 126.97C72.66 125.95 72.82 124.95 73.09 124.01C73.67 122 74.74 120.23 75.74 118.97M78.27 116.85C78.28 116.86 78.29 116.86 78.3 116.86M78.27 116.85L78.3 116.86M75.35 118.66L75.74 118.97L75.35 118.66ZM78.33 116.88C78.39 116.92 78.46 116.99 78.55 117.09C78.74 117.29 78.97 117.57 79.24 117.95C79.76 118.69 80.38 119.72 80.93 120.94C81.58 122.39 82.21 124.13 82.58 125.92C82.61 125.92 82.78 125.88 83.07 125.82C82.78 125.88 82.61 125.92 82.58 125.92C82.86 127.26 83 128.61 83 129.88C83 131.68 82.71 133.31 82.11 134.56C81.45 135.9 80.43 136.79 78.98 137.02C78.93 135.68 78.71 128.96 78.3 116.86C78.31 116.87 78.32 116.87 78.33 116.88ZM74.89 133.85C75.71 135.39 76.87 136.56 78.24 136.56C78.45 136.56 78.65 136.54 78.83 136.51C78.83 136.51 78.83 136.51 78.83 136.51C80.04 136.32 80.88 135.49 81.42 134.39C81.42 134.39 81.42 134.39 81.42 134.39C82.02 133.17 82.27 131.57 82.27 129.88C82.27 128.6 82.13 127.28 81.87 125.99C81.83 126 81.68 126.03 81.39 126.09C81.68 126.03 81.83 126 81.87 125.99C81.5 124.22 80.88 122.51 80.24 121.09C80.21 121.1 80.06 121.17 79.78 121.29C80.06 121.17 80.21 121.1 80.24 121.09C79.45 119.35 78.78 118.06 78.52 117.67C78.5 117.64 78.39 117.48 78.2 117.18C77.94 117.42 77.79 117.56 77.77 117.59C77.53 117.81 77.01 118.4 76.36 119.22C76.36 119.22 76.36 119.22 76.36 119.22C75.4 120.43 74.37 122.13 73.8 124.11C73.8 124.11 73.8 124.11 73.8 124.11C73.55 125.01 73.39 125.97 73.39 126.97C73.39 129.64 73.95 132.07 74.89 133.85Z" id="c44yfZZVhi"></path><path d="M77.79 117.12C77.79 116.92 77.79 115.3 77.79 115.09C77.79 115.01 77.89 114.83 78.16 114.83C78.42 114.83 78.52 115.01 78.52 115.09C78.52 115.3 78.52 116.92 78.52 117.12C78.52 117.21 78.42 117.38 78.16 117.38C77.89 117.38 77.79 117.21 77.79 117.12Z" id="c1YlMPvYKh"></path><path d="M136.28 90.62C138.26 89.98 140.54 88.67 142.63 86.82C142.63 86.82 142.63 86.82 142.63 86.82C143.39 86.15 144.02 85.41 144.54 84.65C145.67 82.98 146.28 81.19 146.57 79.77C146.77 78.78 146.87 78.08 146.88 77.81C146.44 77.91 144.97 78.39 143.01 79.13C141.44 79.73 139.67 80.53 138.04 81.53C136.85 82.26 135.71 83.09 134.72 83.96C133.4 85.13 132.36 86.35 131.85 87.5C131.39 88.51 131.35 89.45 131.94 90.19C132.02 90.3 132.13 90.42 132.27 90.53C132.27 90.53 132.27 90.53 132.27 90.53C133.76 90.97 135.1 91 136.28 90.62ZM131.04 91.61C130.85 91.44 130.68 91.26 130.52 91.05C129.57 89.85 129.58 88.42 130.24 86.94C130.85 85.58 132.02 84.18 133.5 82.88C134.55 81.96 135.77 81.07 137.06 80.28C138.81 79.21 140.68 78.36 142.33 77.73C144.3 76.99 146.08 76.58 147.09 76.47C147.34 76.36 147.63 76.37 147.87 76.48C147.88 76.48 147.89 76.48 147.9 76.49C147.91 76.49 147.92 76.5 147.93 76.51C147.99 76.54 148.04 76.57 148.08 76.61C148.08 76.61 148.08 76.61 148.09 76.61L148.09 76.62L148.09 76.62L148.09 76.62C148.09 76.62 148.09 76.62 148.09 76.62C148.43 76.92 148.62 78.31 148.27 80.03C147.96 81.59 147.28 83.57 146.02 85.43C145.43 86.3 144.71 87.14 143.85 87.9C143.85 87.9 143.85 87.9 143.85 87.9C141.59 89.9 139.08 91.34 136.87 92.05C136.87 92.05 136.87 92.05 136.87 92.05C133.84 92.51 131.9 92.36 131.04 91.61ZM147.4 77.22L147.4 77.22L146.87 77.69L146.87 77.69L146.87 77.69L147.4 77.22ZM147.4 77.22L147.48 77.15L147.4 77.22L147.4 77.22L147.48 77.15" id="b3hQHSV0du"></path><path d="M147.79 77.36C147.64 77.49 147.38 77.49 147.23 77.36C147.12 77.26 147.12 77.13 147.23 77.03C147.23 77.03 147.23 77.03 147.23 77.03C147.34 76.94 147.88 76.46 148.85 75.6C148.85 75.6 148.85 75.6 148.85 75.6C149 75.47 149.27 75.47 149.42 75.6C149.53 75.7 149.53 75.83 149.42 75.93C149.42 75.93 149.42 75.93 149.42 75.93C149.31 76.02 148.77 76.5 147.79 77.36C147.79 77.36 147.79 77.36 147.79 77.36Z" id="bWansKRwj"></path><path d="M147.65 77.92C149.08 79.69 146.41 84.2 141.7 88.01C136.99 91.81 132.02 93.46 130.59 91.69C129.16 89.92 131.83 85.41 136.54 81.61C141.25 77.8 146.22 76.15 147.65 77.92Z" id="dUNRDjg4"></path><path d="M118.83 81.02C121.32 80.84 123.67 85.24 124.08 90.84C124.49 96.45 122.8 101.14 120.31 101.32C117.82 101.5 115.48 97.1 115.07 91.5C114.66 85.89 116.35 81.2 118.83 81.02Z" id="d2i7wMKrCo"></path><path d="M143.21 102.01C143.09 104.21 138.09 105.74 132.03 105.43C125.97 105.11 121.15 103.07 121.27 100.87C121.38 98.66 126.39 97.13 132.45 97.45C138.51 97.77 143.32 99.81 143.21 102.01Z" id="b2bHSvEUAA"></path><path d="M105.94 93.23C108.29 93.27 110.11 97.68 110.02 103.08C109.92 108.48 107.94 112.82 105.6 112.78C103.25 112.73 101.43 108.33 101.52 102.93C101.62 97.53 103.6 93.19 105.94 93.23Z" id="b2p9cQ6gf"></path><path d="M91.32 105.25C93.9 105.11 96.23 109.4 96.52 114.82C96.8 120.24 94.94 124.75 92.35 124.89C89.76 125.02 87.44 120.74 87.15 115.31C86.86 109.89 88.73 105.38 91.32 105.25Z" id="b1wOSIzgNH"></path><path d="M129.15 114.13C129.03 116.34 124.03 117.87 117.97 117.55C111.91 117.23 107.09 115.19 107.21 112.99C107.32 110.79 112.33 109.26 118.39 109.57C124.44 109.89 129.26 111.93 129.15 114.13Z" id="aQMVW6L83"></path><path d="M115.07 126.3C115.03 128.9 110.11 130.93 104.08 130.84C98.04 130.75 93.18 128.57 93.22 125.97C93.26 123.38 98.18 121.34 104.22 121.43C110.25 121.53 115.11 123.7 115.07 126.3Z" id="a2iMEEmP8i"></path><path d="M100.92 138.03C100.88 140.62 95.96 142.66 89.92 142.57C83.89 142.47 79.03 140.3 79.07 137.7C79.11 135.1 84.03 133.07 90.06 133.16C96.1 133.25 100.96 135.43 100.92 138.03Z" id="a5LSxzG5H"></path><path d="M77.28 117.89C79.85 117.67 82.28 121.64 82.71 126.76C83.14 131.87 81.4 136.19 78.83 136.41C76.26 136.62 73.82 132.65 73.4 127.54C72.97 122.42 74.71 118.11 77.28 117.89Z" id="a4D90gp5J"></path><path d="M89.27 186.3C88.26 185.74 87.47 184.98 86.9 184C86.34 183.01 86.06 181.89 86.06 180.64C86.06 179.39 86.34 178.28 86.9 177.3C87.47 176.31 88.26 175.54 89.27 175C90.28 174.44 91.42 174.16 92.68 174.16C93.94 174.16 95.07 174.44 96.06 175C97.07 175.54 97.86 176.31 98.42 177.3C98.99 178.28 99.28 179.39 99.28 180.64C99.28 181.89 98.99 183.01 98.42 184C97.86 184.98 97.07 185.74 96.06 186.3C95.07 186.86 93.94 187.14 92.68 187.14C91.42 187.14 90.28 186.86 89.27 186.3ZM94.86 184.58C95.52 184.19 96.03 183.66 96.4 182.99C96.77 182.3 96.95 181.52 96.95 180.64C96.95 179.76 96.77 178.98 96.4 178.31C96.03 177.62 95.52 177.1 94.86 176.73C94.22 176.36 93.5 176.18 92.68 176.18C91.86 176.18 91.13 176.36 90.47 176.73C89.83 177.1 89.32 177.62 88.94 178.31C88.57 178.98 88.38 179.76 88.38 180.64C88.38 181.52 88.57 182.3 88.94 182.99C89.32 183.66 89.83 184.19 90.47 184.58C91.13 184.94 91.86 185.13 92.68 185.13C93.5 185.13 94.22 184.94 94.86 184.58ZM114.39 187L112.09 187L112.09 176.3L104.91 176.3L104.91 187L102.61 187L102.61 174.28L114.39 174.28L114.39 187ZM123.67 176.3L123.67 187L121.37 187L121.37 176.3L116.71 176.3L116.71 174.28L128.33 174.28L128.33 176.3L123.67 176.3ZM132.16 186.3C131.16 185.74 130.36 184.98 129.79 184C129.23 183.01 128.95 181.89 128.95 180.64C128.95 179.39 129.23 178.28 129.79 177.3C130.36 176.31 131.16 175.54 132.16 175C133.17 174.44 134.31 174.16 135.57 174.16C136.84 174.16 137.96 174.44 138.96 175C139.96 175.54 140.75 176.31 141.31 177.3C141.88 178.28 142.17 179.39 142.17 180.64C142.17 181.89 141.88 183.01 141.31 184C140.75 184.98 139.96 185.74 138.96 186.3C137.96 186.86 136.84 187.14 135.57 187.14C134.31 187.14 133.17 186.86 132.16 186.3ZM137.76 184.58C138.41 184.19 138.92 183.66 139.29 182.99C139.66 182.3 139.84 181.52 139.84 180.64C139.84 179.76 139.66 178.98 139.29 178.31C138.92 177.62 138.41 177.1 137.76 176.73C137.12 176.36 136.39 176.18 135.57 176.18C134.76 176.18 134.02 176.36 133.36 176.73C132.72 177.1 132.21 177.62 131.83 178.31C131.46 178.98 131.28 179.76 131.28 180.64C131.28 181.52 131.46 182.3 131.83 182.99C132.21 183.66 132.72 184.19 133.36 184.58C134.02 184.94 134.76 185.13 135.57 185.13C136.39 185.13 137.12 184.94 137.76 184.58ZM156.63 183.5C156.63 184.62 156.21 185.48 155.36 186.09C154.53 186.7 153.28 187 151.62 187C151.21 187 149.17 187 145.5 187L145.5 174.28C149.04 174.28 151.01 174.28 151.4 174.28C152.91 174.28 154.08 174.57 154.93 175.14C155.78 175.7 156.2 176.5 156.2 177.54C156.2 178.22 156.02 178.8 155.65 179.3C155.3 179.78 154.8 180.14 154.16 180.4C155.81 180.82 156.63 181.85 156.63 183.5ZM151.21 179.75C152.09 179.75 152.75 179.59 153.2 179.27C153.67 178.95 153.9 178.49 153.9 177.88C153.9 176.66 153 176.06 151.21 176.06C150.98 176.06 149.83 176.06 147.75 176.06L147.75 179.75C149.83 179.75 150.98 179.75 151.21 179.75ZM153.61 184.77C154.09 184.46 154.33 183.99 154.33 183.35C154.33 182.7 154.11 182.21 153.66 181.89C153.23 181.57 152.54 181.41 151.59 181.41C151.34 181.41 150.06 181.41 147.75 181.41L147.75 185.22L151.45 185.22C152.57 185.12 153.29 184.97 153.61 184.77ZM162.54 174.28L162.54 183.54L170.34 174.28L172.43 174.28L172.43 187L170.13 187L170.13 177.74L162.35 187L160.24 187L160.24 174.28L162.54 174.28ZM179.21 174.28L179.21 183.54L187.01 174.28L189.1 174.28L189.1 187L186.79 187L186.79 177.74L179.02 187L176.9 187L176.9 174.28L179.21 174.28ZM180.1 171.78C179.44 171.21 179.1 170.38 179.09 169.31C179.24 169.31 180.49 169.31 180.65 169.31C180.66 169.9 180.86 170.38 181.25 170.75C181.65 171.1 182.18 171.28 182.83 171.28C183.49 171.28 184.02 171.1 184.42 170.75C184.82 170.38 185.02 169.9 185.04 169.31C185.2 169.31 186.49 169.31 186.65 169.31C186.63 170.38 186.29 171.21 185.62 171.78C184.94 172.34 184.02 172.62 182.86 172.62C181.67 172.62 180.75 172.34 180.1 171.78ZM211.8 187L209.49 187L209.49 176.3L202.32 176.3L202.32 187L200.01 187L200.01 174.28L211.8 174.28L211.8 187ZM226.31 174.98C227.29 175.52 228.05 176.28 228.59 177.26C229.15 178.23 229.43 179.36 229.43 180.64C229.43 181.92 229.15 183.06 228.59 184.05C228.05 185.02 227.29 185.78 226.31 186.33C225.34 186.87 224.23 187.14 223 187.14C222.09 187.14 221.25 186.97 220.48 186.62C219.73 186.26 219.09 185.75 218.56 185.08C218.56 185.52 218.56 187.71 218.56 191.66L216.26 191.66L216.26 174.28L218.46 174.28C218.46 175.49 218.46 176.16 218.46 176.3C218.98 175.59 219.62 175.06 220.41 174.71C221.19 174.34 222.06 174.16 223 174.16C224.23 174.16 225.34 174.43 226.31 174.98ZM224.99 184.58C225.65 184.19 226.16 183.66 226.53 182.99C226.91 182.3 227.1 181.52 227.1 180.64C227.1 179.76 226.91 178.98 226.53 178.31C226.16 177.62 225.65 177.1 224.99 176.73C224.35 176.36 223.62 176.18 222.81 176.18C222.01 176.18 221.28 176.37 220.62 176.75C219.98 177.12 219.47 177.64 219.09 178.31C218.72 178.98 218.54 179.76 218.54 180.64C218.54 181.52 218.72 182.3 219.09 182.99C219.46 183.66 219.97 184.19 220.62 184.58C221.28 184.94 222.01 185.13 222.81 185.13C223.62 185.13 224.35 184.94 224.99 184.58ZM234.82 186.3C233.81 185.74 233.02 184.98 232.44 184C231.88 183.01 231.6 181.89 231.6 180.64C231.6 179.39 231.88 178.28 232.44 177.3C233.02 176.31 233.81 175.54 234.82 175C235.83 174.44 236.96 174.16 238.23 174.16C239.49 174.16 240.62 174.44 241.61 175C242.62 175.54 243.4 176.31 243.96 177.3C244.54 178.28 244.83 179.39 244.83 180.64C244.83 181.89 244.54 183.01 243.96 184C243.4 184.98 242.62 185.74 241.61 186.3C240.62 186.86 239.49 187.14 238.23 187.14C236.96 187.14 235.83 186.86 234.82 186.3ZM240.41 184.58C241.07 184.19 241.58 183.66 241.95 182.99C242.32 182.3 242.5 181.52 242.5 180.64C242.5 179.76 242.32 178.98 241.95 178.31C241.58 177.62 241.07 177.1 240.41 176.73C239.77 176.36 239.04 176.18 238.23 176.18C237.41 176.18 236.68 176.36 236.02 176.73C235.38 177.1 234.87 177.62 234.48 178.31C234.12 178.98 233.93 179.76 233.93 180.64C233.93 181.52 234.12 182.3 234.48 182.99C234.87 183.66 235.38 184.19 236.02 184.58C236.68 184.94 237.41 185.13 238.23 185.13C239.04 185.13 239.77 184.94 240.41 184.58ZM261 189.95L258.84 189.95L258.84 187L248.2 187L248.2 189.95L246.02 189.95L246.02 184.98C246.42 184.98 246.65 184.98 246.69 184.98C247.51 184.94 248.07 184.36 248.37 183.26C248.68 182.15 248.88 180.59 249 178.58C249.01 178.29 249.07 176.86 249.19 174.28L259.05 174.28L259.05 184.98L261 184.98L261 189.95ZM250.7 182.73C250.51 183.77 250.15 184.52 249.62 184.98C250.1 184.98 252.47 184.98 256.75 184.98L256.75 176.3L251.23 176.3L251.11 178.74C250.97 180.7 250.84 182.02 250.7 182.73ZM272.57 175.46C273.51 176.32 273.98 177.61 273.98 179.32C273.98 179.83 273.98 182.39 273.98 187L271.8 187C271.8 185.99 271.8 185.43 271.8 185.32C271.41 185.91 270.86 186.37 270.14 186.69C269.44 186.99 268.6 187.14 267.62 187.14C266.2 187.14 265.05 186.8 264.19 186.11C263.34 185.42 262.92 184.52 262.92 183.4C262.92 182.28 263.33 181.38 264.14 180.71C264.96 180.02 266.25 179.68 268.03 179.68C268.27 179.68 269.49 179.68 271.68 179.68C271.68 179.41 271.68 179.25 271.68 179.22C271.68 178.23 271.39 177.47 270.81 176.94C270.24 176.42 269.39 176.15 268.27 176.15C267.52 176.15 266.78 176.28 266.06 176.54C265.34 176.78 264.73 177.1 264.24 177.52C264.14 177.35 263.37 175.96 263.28 175.79C263.93 175.26 264.72 174.86 265.63 174.59C266.54 174.3 267.51 174.16 268.53 174.16C270.29 174.16 271.64 174.59 272.57 175.46ZM270.29 184.79C270.93 184.39 271.39 183.83 271.68 183.11C271.68 182.99 271.68 182.4 271.68 181.34C269.55 181.34 268.36 181.34 268.13 181.34C266.17 181.34 265.2 181.99 265.2 183.3C265.2 183.94 265.45 184.45 265.94 184.82C266.44 185.18 267.13 185.37 268.01 185.37C268.89 185.37 269.65 185.18 270.29 184.79ZM287.23 181.62L287.23 187L284.92 187L284.92 181.62L282.45 181.62L278.95 187L276.21 187L280.58 180.42L276.55 174.28L278.99 174.28L282.43 179.66L284.92 179.66L284.92 174.28L287.23 174.28L287.23 179.66L289.72 179.66L293.15 174.28L295.63 174.28L291.59 180.45L295.96 187L293.23 187L289.7 181.62L287.23 181.62ZM313.8 181.46C314.26 181.95 314.5 182.57 314.5 183.3C314.5 184.06 314.24 184.73 313.73 185.32C313.21 185.9 312.5 186.35 311.59 186.69C310.7 187.01 309.69 187.17 308.57 187.17C307.62 187.17 306.7 187.05 305.78 186.81C304.89 186.55 304.09 186.19 303.38 185.73C303.45 185.55 304.01 184.15 304.08 183.98C304.69 184.36 305.38 184.66 306.17 184.89C306.95 185.1 307.74 185.2 308.54 185.2C309.63 185.2 310.5 185.02 311.14 184.65C311.79 184.26 312.12 183.75 312.12 183.11C312.12 182.52 311.86 182.06 311.33 181.74C310.82 181.42 310.09 181.26 309.14 181.26C308.99 181.26 308.21 181.26 306.82 181.26L306.82 179.61C308.11 179.61 308.83 179.61 308.98 179.61C309.84 179.61 310.52 179.46 311.02 179.15C311.51 178.85 311.76 178.43 311.76 177.9C311.76 177.33 311.46 176.88 310.87 176.56C310.3 176.24 309.51 176.08 308.52 176.08C307.26 176.08 305.92 176.41 304.51 177.06C304.45 176.89 303.95 175.47 303.89 175.29C305.44 174.5 307.06 174.11 308.76 174.11C309.78 174.11 310.7 174.26 311.52 174.54C312.33 174.83 312.98 175.24 313.44 175.77C313.9 176.3 314.14 176.9 314.14 177.57C314.14 178.19 313.93 178.75 313.51 179.25C313.1 179.74 312.54 180.12 311.83 180.38C312.68 180.6 313.33 180.96 313.8 181.46ZM329.45 181.41C328.41 181.41 320.16 181.41 319.13 181.41C319.27 182.53 319.76 183.43 320.59 184.12C321.44 184.79 322.49 185.13 323.73 185.13C325.25 185.13 326.48 184.62 327.41 183.59C327.53 183.74 328.55 184.93 328.68 185.08C328.1 185.75 327.38 186.26 326.52 186.62C325.67 186.97 324.72 187.14 323.66 187.14C322.32 187.14 321.13 186.87 320.09 186.33C319.05 185.77 318.24 184.99 317.66 184C317.1 183.01 316.82 181.89 316.82 180.64C316.82 179.41 317.09 178.3 317.64 177.3C318.2 176.31 318.96 175.54 319.92 175C320.89 174.44 321.99 174.16 323.21 174.16C324.42 174.16 325.5 174.44 326.45 175C327.41 175.54 328.15 176.31 328.68 177.3C329.22 178.3 329.49 179.43 329.49 180.71C329.49 180.89 329.48 181.12 329.45 181.41ZM320.42 177.11C319.69 177.78 319.25 178.66 319.13 179.75C319.94 179.75 326.47 179.75 327.29 179.75C327.16 178.68 326.72 177.81 325.97 177.14C325.23 176.45 324.31 176.1 323.21 176.1C322.1 176.1 321.17 176.44 320.42 177.11ZM343.12 174.98C344.1 175.52 344.86 176.28 345.4 177.26C345.96 178.23 346.24 179.36 346.24 180.64C346.24 181.92 345.96 183.06 345.4 184.05C344.86 185.02 344.1 185.78 343.12 186.33C342.15 186.87 341.04 187.14 339.81 187.14C338.9 187.14 338.06 186.97 337.29 186.62C336.54 186.26 335.9 185.75 335.37 185.08C335.37 185.52 335.37 187.71 335.37 191.66L333.07 191.66L333.07 174.28L335.28 174.28C335.28 175.49 335.28 176.16 335.28 176.3C335.79 175.59 336.44 175.06 337.22 174.71C338 174.34 338.87 174.16 339.81 174.16C341.04 174.16 342.15 174.43 343.12 174.98ZM341.8 184.58C342.46 184.19 342.97 183.66 343.34 182.99C343.72 182.3 343.92 181.52 343.92 180.64C343.92 179.76 343.72 178.98 343.34 178.31C342.97 177.62 342.46 177.1 341.8 176.73C341.16 176.36 340.44 176.18 339.62 176.18C338.82 176.18 338.09 176.37 337.44 176.75C336.8 177.12 336.28 177.64 335.9 178.31C335.53 178.98 335.35 179.76 335.35 180.64C335.35 181.52 335.53 182.3 335.9 182.99C336.27 183.66 336.78 184.19 337.44 184.58C338.09 184.94 338.82 185.13 339.62 185.13C340.44 185.13 341.16 184.94 341.8 184.58ZM351.9 174.28L351.9 179.68L359.14 179.68L359.14 174.28L361.45 174.28L361.45 187L359.14 187L359.14 181.67L351.9 181.67L351.9 187L349.59 187L349.59 174.28L351.9 174.28ZM374.5 175.46C375.44 176.32 375.91 177.61 375.91 179.32C375.91 179.83 375.91 182.39 375.91 187L373.73 187C373.73 185.99 373.73 185.43 373.73 185.32C373.34 185.91 372.79 186.37 372.07 186.69C371.37 186.99 370.53 187.14 369.55 187.14C368.13 187.14 366.98 186.8 366.12 186.11C365.27 185.42 364.85 184.52 364.85 183.4C364.85 182.28 365.26 181.38 366.07 180.71C366.89 180.02 368.18 179.68 369.96 179.68C370.2 179.68 371.42 179.68 373.61 179.68C373.61 179.41 373.61 179.25 373.61 179.22C373.61 178.23 373.32 177.47 372.74 176.94C372.17 176.42 371.32 176.15 370.2 176.15C369.45 176.15 368.71 176.28 367.99 176.54C367.27 176.78 366.66 177.1 366.17 177.52C366.07 177.35 365.3 175.96 365.21 175.79C365.86 175.26 366.65 174.86 367.56 174.59C368.47 174.3 369.44 174.16 370.46 174.16C372.22 174.16 373.57 174.59 374.5 175.46ZM372.22 184.79C372.86 184.39 373.32 183.83 373.61 183.11C373.61 182.99 373.61 182.4 373.61 181.34C371.48 181.34 370.29 181.34 370.06 181.34C368.1 181.34 367.13 181.99 367.13 183.3C367.13 183.94 367.38 184.45 367.87 184.82C368.37 185.18 369.06 185.37 369.94 185.37C370.82 185.37 371.58 185.18 372.22 184.79Z" id="b4sAC8uKr5"></path></defs><g><g><g><use xlink:href="#f1iVbXHycm" opacity="1" fill="#1b7340" fill-opacity="1"></use></g><g><use xlink:href="#c27ML5HsrJ" opacity="1" fill="#ffffff" fill-opacity="1"></use><g><use xlink:href="#c27ML5HsrJ" opacity="1" fill-opacity="0" stroke="#000000" stroke-width="1" stroke-opacity="0"></use></g></g><g><use xlink:href="#b75JwB6rCN" opacity="1" fill="#000000" fill-opacity="1"></use><g><use xlink:href="#b75JwB6rCN" opacity="1" fill-opacity="0" stroke="#000000" stroke-width="1" stroke-opacity="0"></use></g></g><g><use xlink:href="#a1mRIH4BaP" opacity="1" fill="#1b7340" fill-opacity="1"></use><g><use xlink:href="#a1mRIH4BaP" opacity="1" fill-opacity="0" stroke="#000000" stroke-width="1" stroke-opacity="0"></use></g></g><g><use xlink:href="#cvpaIsrfq" opacity="1" fill="#ffcc57" fill-opacity="1"></use><g><use xlink:href="#cvpaIsrfq" opacity="1" fill-opacity="0" stroke="#ffcc57" stroke-width="1" stroke-opacity="1"></use></g></g><g><use xlink:href="#c31FxL46S" opacity="1" fill="#ffcc57" fill-opacity="1"></use><g><use xlink:href="#c31FxL46S" opacity="1" fill-opacity="0" stroke="#ffcc57" stroke-width="1" stroke-opacity="1"></use></g></g><g><use xlink:href="#d2h6hvfN5e" opacity="1" fill="#ffcc57" fill-opacity="1"></use><g><use xlink:href="#d2h6hvfN5e" opacity="1" fill-opacity="0" stroke="#ffcc57" stroke-width="1" stroke-opacity="1"></use></g></g><g><use xlink:href="#a2GbIPjJtT" opacity="1" fill="#ffcc57" fill-opacity="1"></use><g><use xlink:href="#a2GbIPjJtT" opacity="1" fill-opacity="0" stroke="#ffcc57" stroke-width="1" stroke-opacity="1"></use></g></g><g><use xlink:href="#b2nMPD1d1" opacity="1" fill="#ffcc57" fill-opacity="1"></use><g><use xlink:href="#b2nMPD1d1" opacity="1" fill-opacity="0" stroke="#ffcc57" stroke-width="1" stroke-opacity="1"></use></g></g><g><use xlink:href="#a39erZKGpN" opacity="1" fill="#ffcc57" fill-opacity="1"></use><g><use xlink:href="#a39erZKGpN" opacity="1" fill-opacity="0" stroke="#ffcc57" stroke-width="1" stroke-opacity="1"></use></g></g><g><use xlink:href="#e3TRk61iMu" opacity="1" fill="#ffcc57" fill-opacity="1"></use><g><use xlink:href="#e3TRk61iMu" opacity="1" fill-opacity="0" stroke="#ffcc57" stroke-width="1" stroke-opacity="1"></use></g></g><g><use xlink:href="#b3lxMLBDP" opacity="1" fill="#ffcc57" fill-opacity="1"></use><g><use xlink:href="#b3lxMLBDP" opacity="1" fill-opacity="0" stroke="#ffcc57" stroke-width="1" stroke-opacity="1"></use></g></g><g><use xlink:href="#a1ECQZptqw" opacity="1" fill="#ffcc57" fill-opacity="1"></use><g><use xlink:href="#a1ECQZptqw" opacity="1" fill-opacity="0" stroke="#ffcc57" stroke-width="1" stroke-opacity="1"></use></g></g><g><use xlink:href="#a2cqXtK5G" opacity="1" fill="#ffcc57" fill-opacity="1"></use><g><use xlink:href="#a2cqXtK5G" opacity="1" fill-opacity="0" stroke="#ffcc57" stroke-width="1" stroke-opacity="1"></use></g></g><g><use xlink:href="#b6aZz08HIP" opacity="1" fill="#ffcc57" fill-opacity="1"></use><g><use xlink:href="#b6aZz08HIP" opacity="1" fill-opacity="0" stroke="#ffcc57" stroke-width="1" stroke-opacity="1"></use></g></g><g><use xlink:href="#bkvJpFoMA" opacity="1" fill="#ffcc57" fill-opacity="1"></use><g><use xlink:href="#bkvJpFoMA" opacity="1" fill-opacity="0" stroke="#ffcc57" stroke-width="1" stroke-opacity="1"></use></g></g><g><use xlink:href="#dzNDCcoRA" opacity="1" fill="#ffcc57" fill-opacity="1"></use><g><use xlink:href="#dzNDCcoRA" opacity="1" fill-opacity="0" stroke="#ffcc57" stroke-width="1" stroke-opacity="1"></use></g></g><g><use xlink:href="#iORRPEpg" opacity="1" fill="#ffcc57" fill-opacity="1"></use><g><use xlink:href="#iORRPEpg" opacity="1" fill-opacity="0" stroke="#ffcc57" stroke-width="1" stroke-opacity="1"></use></g></g><g><use xlink:href="#cWI3ErWoC" opacity="1" fill="#ffcc57" fill-opacity="1"></use><g><use xlink:href="#cWI3ErWoC" opacity="1" fill-opacity="0" stroke="#ffcc57" stroke-width="1" stroke-opacity="1"></use></g></g><g><use xlink:href="#c44yfZZVhi" opacity="1" fill="#ffcc57" fill-opacity="1"></use><g><use xlink:href="#c44yfZZVhi" opacity="1" fill-opacity="0" stroke="#ffcc57" stroke-width="1" stroke-opacity="1"></use></g></g><g><use xlink:href="#c1YlMPvYKh" opacity="1" fill="#ffcc57" fill-opacity="1"></use><g><use xlink:href="#c1YlMPvYKh" opacity="1" fill-opacity="0" stroke="#ffcc57" stroke-width="1" stroke-opacity="1"></use></g></g><g><use xlink:href="#b3hQHSV0du" opacity="1" fill="#ffcc57" fill-opacity="1"></use><g><use xlink:href="#b3hQHSV0du" opacity="1" fill-opacity="0" stroke="#000000" stroke-width="1" stroke-opacity="0"></use></g></g><g><use xlink:href="#bWansKRwj" opacity="1" fill="#ffcc57" fill-opacity="1"></use><g><use xlink:href="#bWansKRwj" opacity="1" fill-opacity="0" stroke="#ffcc57" stroke-width="1" stroke-opacity="1"></use></g></g><g><use xlink:href="#dUNRDjg4" opacity="1" fill="#ffcc57" fill-opacity="1"></use><g><use xlink:href="#dUNRDjg4" opacity="1" fill-opacity="0" stroke="#000000" stroke-width="1" stroke-opacity="0"></use></g></g><g><use xlink:href="#d2i7wMKrCo" opacity="1" fill="#ffcc57" fill-opacity="1"></use><g><use xlink:href="#d2i7wMKrCo" opacity="1" fill-opacity="0" stroke="#000000" stroke-width="1" stroke-opacity="0"></use></g></g><g><use xlink:href="#b2bHSvEUAA" opacity="1" fill="#ffcc57" fill-opacity="1"></use><g><use xlink:href="#b2bHSvEUAA" opacity="1" fill-opacity="0" stroke="#000000" stroke-width="1" stroke-opacity="0"></use></g></g><g><use xlink:href="#b2p9cQ6gf" opacity="1" fill="#ffcc57" fill-opacity="1"></use><g><use xlink:href="#b2p9cQ6gf" opacity="1" fill-opacity="0" stroke="#000000" stroke-width="1" stroke-opacity="0"></use></g></g><g><use xlink:href="#b1wOSIzgNH" opacity="1" fill="#ffcc57" fill-opacity="1"></use><g><use xlink:href="#b1wOSIzgNH" opacity="1" fill-opacity="0" stroke="#000000" stroke-width="1" stroke-opacity="0"></use></g></g><g><use xlink:href="#aQMVW6L83" opacity="1" fill="#ffcc57" fill-opacity="1"></use><g><use xlink:href="#aQMVW6L83" opacity="1" fill-opacity="0" stroke="#000000" stroke-width="1" stroke-opacity="0"></use></g></g><g><use xlink:href="#a2iMEEmP8i" opacity="1" fill="#ffcc57" fill-opacity="1"></use><g><use xlink:href="#a2iMEEmP8i" opacity="1" fill-opacity="0" stroke="#000000" stroke-width="1" stroke-opacity="0"></use></g></g><g><use xlink:href="#a5LSxzG5H" opacity="1" fill="#ffcc57" fill-opacity="1"></use><g><use xlink:href="#a5LSxzG5H" opacity="1" fill-opacity="0" stroke="#000000" stroke-width="1" stroke-opacity="0"></use></g></g><g><use xlink:href="#a4D90gp5J" opacity="1" fill="#ffcc57" fill-opacity="1"></use><g><use xlink:href="#a4D90gp5J" opacity="1" fill-opacity="0" stroke="#000000" stroke-width="1" stroke-opacity="0"></use></g></g><g><use xlink:href="#b4sAC8uKr5" opacity="1" fill="#ffffff" fill-opacity="1"></use><g><use xlink:href="#b4sAC8uKr5" opacity="1" fill-opacity="0" stroke="#000000" stroke-width="1" stroke-opacity="0"></use></g></g></g></g></svg>