<?xml version="1.0" encoding="UTF-8" standalone="no"?>
<!DOCTYPE svg PUBLIC "-//W3C//DTD SVG 1.1//EN" "http://www.w3.org/Graphics/SVG/1.1/DTD/svg11.dtd">
<svg version="1.1" xmlns="http://www.w3.org/2000/svg" xmlns:xlink="http://www.w3.org/1999/xlink" preserveAspectRatio="xMidYMid meet" viewBox="0 0 420 170" width="420" height="170"><defs><path d="M0 0L420 0L420 170L0 170L0 0Z" id="b1LO6qN0mB"></path><path d="M381.7 27.92C381.7 27.92 381.7 27.92 381.7 27.92C381.7 86.97 381.7 119.78 381.7 126.34C381.7 126.34 381.7 126.34 381.7 126.34C173.09 126.34 57.2 126.34 34.02 126.34C34.02 126.34 34.02 126.34 34.02 126.34C34.02 67.29 34.02 34.48 34.02 27.92C34.02 27.92 34.02 27.92 34.02 27.92C242.63 27.92 358.52 27.92 381.7 27.92Z" id="cMtr3HYik"></path><path d="M172.74 61.72C175.75 61.72 178.4 62.3 180.7 63.47C183.02 64.61 184.82 66.23 186.09 68.32C187.38 70.42 188.03 72.85 188.03 75.64C188.03 78.42 187.38 80.86 186.09 82.96C184.82 85.05 183.02 86.68 180.7 87.85C178.4 88.99 175.75 89.56 172.74 89.56C171.9 89.56 167.7 89.56 160.14 89.56L160.14 61.72C167.7 61.72 171.9 61.72 172.74 61.72ZM179.04 81.96C180.7 80.4 181.53 78.29 181.53 75.64C181.53 72.99 180.7 70.89 179.04 69.35C177.4 67.79 175.19 67.01 172.42 67.01C172.03 67.01 170.07 67.01 166.55 67.01L166.55 84.27L172.42 84.27C175.74 83.76 177.94 82.99 179.04 81.96ZM224.79 89.56L217.89 89.56L211.79 70.71L205.49 89.56L198.64 89.56L189.52 61.72L196.18 61.72L202.44 81.29L208.98 61.72L214.92 61.72L221.26 81.44L227.72 61.72L233.86 61.72L224.79 89.56ZM254.63 83.59L252.18 89.56L245.6 89.56L257.96 61.72L264.3 61.72L276.7 89.56L269.97 89.56L267.51 83.59L254.63 83.59ZM261.09 68.04L256.69 78.7L265.49 78.7L261.09 68.04ZM303.8 75.2C303.8 81.98 303.8 85.74 303.8 86.49C302.29 87.63 300.55 88.51 298.57 89.12C296.59 89.73 294.59 90.03 292.59 90.03C289.71 90.03 287.12 89.42 284.82 88.2C282.52 86.96 280.71 85.25 279.39 83.07C278.1 80.87 277.45 78.4 277.45 75.64C277.45 72.88 278.1 70.42 279.39 68.24C280.71 66.04 282.54 64.33 284.86 63.11C287.18 61.86 289.8 61.24 292.7 61.24C295.14 61.24 297.34 61.65 299.32 62.47C301.3 63.3 302.97 64.49 304.31 66.05C303.9 66.44 300.61 69.49 300.19 69.87C298.21 67.78 295.82 66.73 293.02 66.73C291.25 66.73 289.68 67.1 288.31 67.84C286.93 68.59 285.86 69.63 285.1 70.99C284.33 72.34 283.95 73.89 283.95 75.64C283.95 77.36 284.33 78.9 285.1 80.25C285.86 81.6 286.92 82.66 288.27 83.43C289.64 84.18 291.2 84.55 292.94 84.55C294.79 84.55 296.46 84.15 297.93 83.35C297.93 82.81 297.93 80.09 297.93 75.2L303.8 75.2ZM322.08 81.8L321.77 81.8L316.18 81.8L316.18 89.56L309.76 89.56L309.76 61.72C316.96 61.72 320.97 61.72 321.77 61.72C324.22 61.72 326.35 62.13 328.15 62.95C329.97 63.77 331.37 64.94 332.35 66.45C333.32 67.96 333.81 69.75 333.81 71.82C333.81 73.89 333.31 75.68 332.31 77.19C331.33 78.67 329.93 79.81 328.11 80.61C328.52 81.21 330.59 84.19 334.33 89.56L327.43 89.56L322.08 81.8ZM325.81 68.24C324.8 67.39 323.34 66.97 321.41 66.97C321.06 66.97 319.32 66.97 316.18 66.97L316.18 76.67C319.32 76.67 321.06 76.67 321.41 76.67C323.34 76.67 324.8 76.25 325.81 75.4C326.81 74.55 327.31 73.36 327.31 71.82C327.31 70.26 326.81 69.06 325.81 68.24ZM344.52 88.17C342.23 86.92 340.42 85.21 339.1 83.04C337.8 80.83 337.15 78.37 337.15 75.64C337.15 72.91 337.8 70.45 339.1 68.28C340.42 66.08 342.23 64.36 344.52 63.11C346.85 61.86 349.45 61.24 352.33 61.24C355.21 61.24 357.8 61.86 360.09 63.11C362.39 64.36 364.2 66.08 365.52 68.28C366.84 70.45 367.5 72.91 367.5 75.64C367.5 78.37 366.84 80.83 365.52 83.04C364.2 85.21 362.39 86.92 360.09 88.17C357.8 89.41 355.21 90.03 352.33 90.03C349.45 90.03 346.85 89.41 344.52 88.17ZM356.77 83.43C358.09 82.66 359.12 81.6 359.86 80.25C360.62 78.9 361.01 77.36 361.01 75.64C361.01 73.91 360.62 72.38 359.86 71.02C359.12 69.67 358.09 68.63 356.77 67.88C355.45 67.11 353.97 66.73 352.33 66.73C350.69 66.73 349.21 67.11 347.89 67.88C346.57 68.63 345.53 69.67 344.76 71.02C344.02 72.38 343.65 73.91 343.65 75.64C343.65 77.36 344.02 78.9 344.76 80.25C345.53 81.6 346.57 82.66 347.89 83.43C349.21 84.18 350.69 84.55 352.33 84.55C353.97 84.55 355.45 84.18 356.77 83.43Z" id="cTZZL16Z7"></path><path d="M133.07 30.9C133.07 30.9 133.07 30.9 133.07 30.9C133.07 86.38 133.07 117.2 133.07 123.36C133.07 123.36 133.07 123.36 133.07 123.36C75.42 123.36 43.4 123.36 36.99 123.36C36.99 123.36 36.99 123.36 36.99 123.36C36.99 67.88 36.99 37.06 36.99 30.9C36.99 30.9 36.99 30.9 36.99 30.9C94.64 30.9 126.67 30.9 133.07 30.9Z" id="a2btdQMAid"></path><path d="M105.6 57.08C105.4 57.3 105.29 57.43 105.27 57.45C105.38 57.55 105.38 57.68 105.27 57.78C105.29 57.8 105.4 57.93 105.6 58.15L105.27 57.78C67.96 90.81 47.23 109.15 43.08 112.82C42.93 112.95 42.67 112.95 42.52 112.82C42.41 112.73 42.41 112.6 42.52 112.5C48.74 106.99 98.5 62.96 104.72 57.45C104.86 57.32 105.12 57.32 105.27 57.45C105.32 57.4 105.42 57.28 105.6 57.08Z" id="aqqBbDlpt"></path><path d="M96.14 66.71C96.14 66.71 96.14 66.71 96.13 66.72C96.13 66.92 96.13 67.02 96.13 67.05C96.13 67.71 96.5 68.3 97.03 68.78C97.56 69.26 98.3 69.69 99.18 70.05C101.15 70.87 103.85 71.36 106.83 71.36C107.93 71.36 109 71.22 110 71C110 71 110 71 110 71C112.19 70.51 114.09 69.61 115.45 68.77C115.45 68.77 115.45 68.77 115.45 68.77C116.37 68.2 117.03 67.75 117.28 67.54C117.32 67.51 117.51 67.35 117.85 67.06C117.45 66.86 117.23 66.74 117.19 66.72C116.76 66.5 115.32 65.91 113.37 65.22C111.78 64.66 109.87 64.12 107.9 63.8C107.9 63.8 107.9 63.8 107.9 63.8C106.46 63.57 104.98 63.45 103.56 63.45C101.68 63.45 99.91 63.67 98.56 64.19C98.56 64.19 98.56 64.19 98.56 64.19C97.38 64.64 96.41 65.37 96.18 66.5C96.18 66.5 96.18 66.5 96.18 66.5C96.16 66.59 96.15 66.66 96.14 66.71ZM98.83 70.5C96.56 69.56 95.4 68.3 95.4 67.05C95.4 66.84 95.43 66.64 95.47 66.43C95.47 66.43 95.47 66.43 95.47 66.43C95.72 65.22 96.67 64.32 98.24 63.73C99.66 63.18 101.53 62.93 103.56 62.93C105 62.93 106.53 63.06 108.04 63.3C110.07 63.62 112.03 64.18 113.67 64.76C115.04 65.24 116.22 65.79 117.05 66.25C117.47 66.48 117.8 66.69 118.02 66.85C118.13 66.94 118.21 67 118.26 67.05C118.26 67.05 118.26 67.05 118.26 67.05C118.26 67.06 118.24 67.12 118.17 67.23C118.08 67.37 117.93 67.55 117.72 67.76C117.31 68.18 116.69 68.68 115.91 69.16C114.48 70.04 112.49 70.99 110.2 71.5C109.13 71.73 108 71.88 106.83 71.88C103.71 71.88 100.88 71.35 98.84 70.51C98.84 70.51 98.84 70.5 98.83 70.5C98.83 70.5 98.83 70.5 98.83 70.5ZM118.29 67.08C118.29 67.08 118.29 67.08 118.29 67.08C118.29 67.08 118.29 67.08 118.29 67.08Z" id="afcTvbHX4"></path><path d="M117.89 66.86C118.12 66.86 119.94 66.86 120.17 66.86C120.43 66.86 120.53 67.03 120.53 67.12C120.53 67.21 120.43 67.38 120.17 67.38C119.94 67.38 118.12 67.38 117.89 67.38C117.63 67.38 117.53 67.21 117.53 67.12C117.53 67.03 117.63 66.86 117.89 66.86Z" id="cGb3weUa3"></path><path d="M97.93 55.02C98.19 56.29 98.34 57.62 98.34 58.88C98.34 60.56 98.08 62.15 97.49 63.37C97.46 63.36 97.31 63.28 97.04 63.15C97.31 63.28 97.46 63.36 97.49 63.37C96.96 64.46 96.12 65.29 94.92 65.48C94.92 65.48 94.92 65.48 94.92 65.48C94.74 65.51 94.55 65.52 94.34 65.52C92.98 65.52 91.83 64.36 91.02 62.83C90.09 61.07 89.53 58.65 89.53 55.99C89.53 55 89.69 54.04 89.95 53.14C89.95 53.14 89.95 53.14 89.95 53.14C90.5 51.18 91.53 49.48 92.48 48.28C92.48 48.28 92.48 48.28 92.48 48.28C93.12 47.46 93.63 46.88 93.87 46.66C93.9 46.63 94.04 46.5 94.3 46.26C94.49 46.55 94.6 46.71 94.62 46.75C94.87 47.13 95.54 48.41 96.32 50.14C96.96 51.56 97.57 53.25 97.93 55.02ZM96.32 50.14L95.87 50.34M96.32 50.14L95.87 50.34M95.87 50.34C95.29 49.06 94.78 48.05 94.47 47.46M95.87 50.34L94.47 47.46M94.55 47.38C94.52 47.36 94.41 47.24 94.21 47.02C93.96 47.19 93.82 47.28 93.8 47.3C93.81 47.32 93.83 47.36 93.86 47.4C93.61 47.68 93.27 48.08 92.87 48.59C91.95 49.76 90.96 51.4 90.42 53.28C90.69 52.89 92.04 50.95 94.47 47.46C94.51 47.43 94.53 47.4 94.55 47.38ZM90.35 63C90.32 63.02 90.18 63.09 89.91 63.23C90.18 63.09 90.32 63.02 90.35 63C89.41 61.21 88.81 58.73 88.81 55.99C88.81 54.97 88.97 53.99 89.24 53.05C89.81 51.05 90.87 49.29 91.86 48.03C92.4 47.35 92.96 46.8 93.44 46.44C93.68 46.25 93.88 46.12 94.05 46.03C94.22 45.95 94.3 45.93 94.31 45.93C94.31 45.93 94.31 45.93 94.31 45.93C94.32 45.93 94.36 45.93 94.37 45.93C94.38 45.93 94.39 45.93 94.4 45.94C94.41 45.94 94.42 45.95 94.43 45.96C94.48 46 94.56 46.07 94.65 46.17C94.83 46.36 95.07 46.65 95.33 47.02C95.85 47.75 96.46 48.79 97 49.99C97.65 51.44 98.28 53.16 98.64 54.95C98.91 56.27 99.06 57.62 99.06 58.88C99.06 60.67 98.77 62.3 98.17 63.53C97.52 64.87 96.51 65.75 95.07 65.98C95.07 65.98 95.07 65.98 95.07 65.98C94.82 66.02 94.58 66.04 94.34 66.04C94.34 66.04 94.33 66.04 94.32 66.04C92.36 65.32 91.04 64.3 90.35 63Z" id="aQjF2Yonu"></path><path d="M93.89 46.2C93.89 46 93.89 44.38 93.89 44.18C93.89 44.1 94 43.92 94.26 43.92C94.52 43.92 94.62 44.1 94.62 44.18C94.62 44.38 94.62 46 94.62 46.2C94.62 46.28 94.52 46.46 94.26 46.46C94 46.46 93.89 46.28 93.89 46.2Z" id="a18z5jWcl4"></path><path d="M82.41 78.76C82.41 78.76 82.39 78.76 82.37 78.76C82.37 79.04 82.37 79.19 82.37 79.22C82.37 79.89 82.74 80.47 83.27 80.95C83.8 81.44 84.55 81.86 85.43 82.23C87.39 83.04 90.1 83.53 93.08 83.53C94.18 83.53 95.24 83.39 96.25 83.17C98.44 82.68 100.34 81.78 101.7 80.94C101.68 80.91 101.59 80.77 101.44 80.52C101.59 80.77 101.68 80.91 101.7 80.94C102.62 80.37 103.27 79.92 103.52 79.71C103.56 79.68 103.75 79.52 104.1 79.23C103.7 79.03 103.48 78.91 103.43 78.89C103.01 78.67 101.57 78.08 99.62 77.4C99.61 77.43 99.55 77.58 99.46 77.87C99.55 77.58 99.61 77.43 99.62 77.4C98.02 76.83 96.12 76.29 94.14 75.98C94.14 76.01 94.11 76.17 94.06 76.47C94.11 76.17 94.14 76.01 94.14 75.98C92.71 75.75 91.23 75.62 89.81 75.62C87.93 75.62 86.16 75.84 84.81 76.36C84.81 76.36 84.81 76.36 84.81 76.36C83.63 76.81 82.65 77.54 82.42 78.67C82.42 78.67 82.42 78.67 82.42 78.67C82.42 78.71 82.41 78.74 82.41 78.76ZM85.1 82.68C85.1 82.68 85.08 82.68 85.08 82.68C82.8 81.74 81.65 80.47 81.65 79.22C81.65 79.02 81.67 78.81 81.71 78.6C81.71 78.6 81.71 78.6 81.71 78.6C81.96 77.4 82.92 76.5 84.48 75.9C85.9 75.36 87.77 75.1 89.81 75.1C91.25 75.1 92.78 75.23 94.29 75.47C96.32 75.8 98.28 76.35 99.92 76.93C101.29 77.41 102.46 77.96 103.3 78.42C103.72 78.65 104.05 78.86 104.27 79.03C104.38 79.11 104.46 79.17 104.5 79.22C104.5 79.22 104.51 79.22 104.51 79.23C104.5 79.24 104.48 79.29 104.41 79.4C104.32 79.54 104.17 79.72 103.97 79.93C103.55 80.35 102.94 80.85 102.15 81.33C102.17 81.36 102.26 81.5 102.41 81.76C102.26 81.5 102.17 81.36 102.15 81.33C100.73 82.21 98.73 83.16 96.45 83.67C96.45 83.67 96.45 83.67 96.45 83.67C95.37 83.91 94.24 84.05 93.08 84.05C89.96 84.05 87.14 83.52 85.1 82.68ZM104.53 79.25C104.54 79.26 104.54 79.26 104.54 79.26C104.54 79.26 104.54 79.26 104.53 79.25ZM93.08 84.55C90.37 84.55 87.86 84.16 85.87 83.5C86.58 83.54 90.14 83.76 96.55 84.15C95.04 84.42 93.88 84.55 93.08 84.55Z" id="dyjDMZbJo"></path><path d="M104.14 79.03C104.37 79.03 106.19 79.03 106.42 79.03C106.68 79.03 106.78 79.2 106.78 79.29C106.78 79.38 106.68 79.55 106.42 79.55C106.19 79.55 104.37 79.55 104.14 79.55C103.88 79.55 103.78 79.38 103.78 79.29C103.78 79.2 103.88 79.03 104.14 79.03Z" id="g52BfSHjeI"></path><path d="M75.01 65.09L75.01 65.09L75.01 65.09ZM80.57 78.22C79.05 78.21 77.63 77.13 76.6 75.17C76.6 75.17 76.6 75.17 76.6 75.17C75.65 73.39 75.06 70.91 75.06 68.16C75.06 67.15 75.22 66.16 75.48 65.22C75.48 65.22 75.48 65.22 75.48 65.22C76.05 63.22 77.11 61.46 78.11 60.21C78.11 60.21 78.11 60.21 78.11 60.21C78.65 59.52 79.21 58.97 79.69 58.61C79.92 58.42 80.13 58.29 80.3 58.2C80.47 58.12 80.55 58.1 80.56 58.1C80.56 58.1 80.56 58.1 80.56 58.1C80.59 58.1 80.61 58.1 80.65 58.11C80.65 58.12 80.66 58.12 80.68 58.13C80.73 58.17 80.8 58.24 80.9 58.34C81.08 58.53 81.31 58.82 81.57 59.19C82.09 59.93 82.71 60.96 83.25 62.16C83.9 63.61 84.52 65.34 84.89 67.12C85.16 68.45 85.3 69.79 85.3 71.06C85.3 72.84 85.02 74.47 84.42 75.7C83.76 77.05 82.75 77.93 81.31 78.16C81.31 78.16 81.31 78.16 81.31 78.16C81.07 78.2 80.82 78.22 80.58 78.22C80.58 78.22 80.57 78.22 80.57 78.22ZM80.58 77.69C80.79 77.69 80.99 77.68 81.17 77.65C81.17 77.65 81.17 77.65 81.17 77.65C82.37 77.46 83.2 76.63 83.73 75.54C84.33 74.32 84.58 72.73 84.58 71.06C84.58 69.79 84.44 68.47 84.18 67.19C83.82 65.43 83.2 63.73 82.57 62.31C82.57 62.31 82.57 62.31 82.57 62.31C81.79 60.58 81.12 59.3 80.87 58.92C80.85 58.89 80.74 58.73 80.55 58.43C80.29 58.67 80.15 58.81 80.12 58.83C79.88 59.05 79.37 59.64 78.73 60.45C78.73 60.45 78.73 60.45 78.73 60.45C77.78 61.66 76.75 63.36 76.19 65.32C75.94 66.21 75.78 67.17 75.78 68.16C75.78 70.82 76.34 73.24 77.27 75C77.27 75 77.27 75 77.27 75C78.57 76.8 79.68 77.69 80.58 77.69Z" id="a12kaqcHVP"></path><path d="M80.14 58.37C80.14 58.17 80.14 56.56 80.14 56.36C80.14 56.27 80.24 56.09 80.5 56.09C80.76 56.09 80.86 56.27 80.86 56.36C80.86 56.56 80.86 58.17 80.86 58.37C80.86 58.46 80.76 58.63 80.5 58.63C80.24 58.63 80.14 58.46 80.14 58.37Z" id="cAbsRVDZ8"></path><path d="M79.32 96.23C76.2 96.23 73.38 95.69 71.34 94.85C71.33 94.85 71.33 94.85 71.33 94.85C71.33 94.85 71.33 94.85 71.33 94.85C69.05 93.91 67.9 92.65 67.9 91.39C67.9 91.19 67.92 90.99 67.96 90.78C68.21 89.57 69.17 88.67 70.73 88.07C72.15 87.53 74.02 87.27 76.05 87.27C77.49 87.27 79.03 87.4 80.53 87.65C82.56 87.97 84.52 88.53 86.17 89.1C87.54 89.59 88.71 90.13 89.55 90.6C89.96 90.83 90.29 91.03 90.51 91.2C90.63 91.28 90.7 91.35 90.75 91.39C90.75 91.39 90.75 91.4 90.75 91.4C90.75 91.41 90.73 91.47 90.66 91.57C90.57 91.71 90.42 91.89 90.21 92.1C89.8 92.52 89.18 93.02 88.4 93.51C86.98 94.39 84.98 95.33 82.69 95.84C81.62 96.08 80.49 96.23 79.32 96.23ZM82.69 95.84L82.8 96.33M82.69 95.84L82.8 96.33M88.66 93.93C86.91 94.07 72.89 95.17 71.14 95.31C73.25 96.18 76.15 96.72 79.32 96.72C80.53 96.72 81.7 96.57 82.8 96.33C85.15 95.8 87.2 94.83 88.66 93.93ZM68.64 91C68.64 91 68.63 91.01 68.62 91.01C68.62 91.24 68.62 91.37 68.62 91.39C68.62 92.06 68.99 92.65 69.52 93.13C70.05 93.61 70.79 94.04 71.67 94.4C73.64 95.21 76.34 95.7 79.32 95.7C80.43 95.7 81.49 95.57 82.49 95.34C82.49 95.34 82.49 95.34 82.49 95.34C84.68 94.86 86.59 93.95 87.94 93.12C87.94 93.12 87.94 93.12 87.94 93.12C88.86 92.55 89.52 92.1 89.77 91.89C89.81 91.86 90 91.7 90.34 91.41C89.94 91.2 89.72 91.09 89.68 91.06C89.26 90.84 87.82 90.26 85.87 89.57C85.85 89.6 85.8 89.76 85.7 90.04C85.8 89.76 85.85 89.6 85.87 89.57C84.27 89.01 82.36 88.47 80.39 88.15C80.38 88.18 80.36 88.35 80.31 88.64C80.36 88.35 80.38 88.18 80.39 88.15C78.95 87.92 77.47 87.8 76.05 87.8C74.17 87.8 72.41 88.02 71.05 88.53C71.05 88.53 71.05 88.53 71.05 88.53C69.87 88.99 68.9 89.72 68.67 90.84C68.67 90.84 68.67 90.84 68.67 90.84C68.66 90.91 68.65 90.97 68.64 91ZM90.78 91.43C90.78 91.43 90.78 91.43 90.78 91.43C90.78 91.43 90.78 91.43 90.78 91.43Z" id="a44pQ2d2n"></path><path d="M90.39 91.2C90.61 91.2 92.43 91.2 92.66 91.2C92.92 91.2 93.02 91.38 93.02 91.47C93.02 91.55 92.92 91.73 92.66 91.73C92.43 91.73 90.61 91.73 90.39 91.73C90.13 91.73 90.02 91.55 90.02 91.47C90.02 91.38 90.13 91.2 90.39 91.2Z" id="pfmRutApA"></path><path d="M62.84 87.35C61.9 85.56 61.3 83.08 61.3 80.33C61.3 79.32 61.46 78.33 61.73 77.39C61.73 77.39 61.73 77.39 61.73 77.39C62.3 75.39 63.36 73.64 64.35 72.38C64.35 72.38 64.35 72.38 64.35 72.38C64.89 71.69 65.46 71.15 65.93 70.78C66.17 70.6 66.38 70.46 66.54 70.38C66.71 70.29 66.79 70.28 66.8 70.28C66.8 70.28 66.8 70.28 66.8 70.28C66.83 70.28 66.86 70.28 66.89 70.28C66.9 70.29 66.91 70.3 66.92 70.31C66.98 70.35 67.05 70.41 67.14 70.51C67.33 70.71 67.56 70.99 67.82 71.36C68.34 72.1 68.95 73.13 69.49 74.34C69.52 74.32 69.67 74.26 69.95 74.13C69.67 74.26 69.52 74.32 69.49 74.34C70.15 75.79 70.77 77.51 71.13 79.3C71.4 80.62 71.55 81.97 71.55 83.23C71.55 85.02 71.26 86.64 70.66 87.88C70.01 89.22 69 90.1 67.56 90.33C67.56 90.33 67.56 90.33 67.56 90.33C67.31 90.37 67.07 90.39 66.83 90.39C66.83 90.39 66.82 90.39 66.82 90.39C65.3 90.39 63.88 89.31 62.84 87.35C62.84 87.35 62.84 87.35 62.84 87.35ZM63.51 87.17C64.32 88.71 65.47 89.87 66.83 89.87C67.04 89.87 67.24 89.85 67.42 89.83C67.42 89.83 67.42 89.83 67.42 89.83C68.61 89.63 69.45 88.81 69.98 87.72C69.98 87.72 69.98 87.72 69.98 87.72C70.57 86.5 70.83 84.91 70.83 83.23C70.83 81.96 70.69 80.64 70.42 79.36C70.06 77.6 69.45 75.9 68.81 74.49C68.04 72.76 67.37 71.48 67.11 71.09C67.09 71.06 66.99 70.9 66.79 70.61C66.54 70.85 66.39 70.98 66.36 71.01C66.13 71.23 65.62 71.81 64.97 72.63C64.97 72.63 64.97 72.63 64.97 72.63C64.02 73.83 62.99 75.53 62.44 77.49C62.18 78.39 62.03 79.34 62.03 80.33C62.03 82.99 62.58 85.41 63.51 87.17ZM61.25 77.26L61.25 77.26L61.25 77.26Z" id="h1Xv38dugb"></path><path d="M66.39 70.54C66.39 70.34 66.39 68.73 66.39 68.53C66.39 68.44 66.49 68.27 66.75 68.27C67.01 68.27 67.11 68.44 67.11 68.53C67.11 68.73 67.11 70.34 67.11 70.54C67.11 70.63 67.01 70.81 66.75 70.81C66.49 70.81 66.39 70.63 66.39 70.54Z" id="a7B6Tr8HnI"></path><path d="M54.87 103.07C54.87 103.37 54.87 103.53 54.87 103.57C54.87 104.23 55.24 104.82 55.76 105.3C56.3 105.78 57.04 106.21 57.92 106.57C59.88 107.39 62.59 107.88 65.57 107.88C66.67 107.88 67.74 107.74 68.74 107.52C68.74 107.52 68.74 107.52 68.74 107.52C70.93 107.03 72.83 106.13 74.19 105.29C74.19 105.29 74.19 105.29 74.19 105.29C75.11 104.72 75.77 104.27 76.02 104.06C76.05 104.03 76.24 103.87 76.59 103.58C76.19 103.37 75.97 103.26 75.93 103.24C75.5 103.02 74.06 102.43 72.11 101.74C70.52 101.18 68.61 100.64 66.63 100.32C66.63 100.32 66.63 100.32 66.63 100.32C65.2 100.09 63.72 99.97 62.3 99.97C60.42 99.97 58.65 100.19 57.3 100.71C57.3 100.71 57.3 100.71 57.3 100.71C56.12 101.16 55.15 101.89 54.92 103.02C54.92 103.02 54.92 103.02 54.92 103.02C54.91 103.03 54.91 103.05 54.91 103.07C54.9 103.07 54.89 103.07 54.87 103.07ZM57.57 107.02C55.3 106.08 54.14 104.82 54.14 103.57C54.14 103.36 54.16 103.16 54.21 102.95C54.21 102.95 54.21 102.95 54.21 102.95C54.45 101.74 55.41 100.84 56.98 100.25C58.4 99.7 60.26 99.45 62.3 99.45C63.74 99.45 65.27 99.58 66.78 99.82C68.81 100.14 70.77 100.7 72.41 101.28C73.78 101.76 74.96 102.31 75.79 102.77C76.21 103 76.54 103.21 76.76 103.37C76.87 103.45 76.95 103.52 76.99 103.57C77 103.57 77 103.57 77 103.57C77 103.58 76.98 103.64 76.91 103.75C76.81 103.89 76.67 104.07 76.46 104.28C76.04 104.7 75.43 105.2 74.65 105.68C73.22 106.56 71.22 107.51 68.94 108.02C67.87 108.25 66.73 108.4 65.57 108.4C62.45 108.4 59.63 107.87 57.59 107.03C57.58 107.03 57.57 107.02 57.57 107.02ZM77.03 103.6C77.03 103.6 77.03 103.6 77.03 103.6C77.03 103.6 77.03 103.6 77.03 103.6Z" id="cAcuPhGuF"></path><path d="M76.63 103.38C76.86 103.38 78.68 103.38 78.91 103.38C79.17 103.38 79.27 103.55 79.27 103.64C79.27 103.73 79.17 103.9 78.91 103.9C78.68 103.9 76.86 103.9 76.63 103.9C76.37 103.9 76.27 103.73 76.27 103.64C76.27 103.55 76.37 103.38 76.63 103.38Z" id="a8gxjnVxCv"></path><path d="M54.61 86.86C54.88 86.74 55.03 86.67 55.06 86.66C54.28 84.93 53.61 83.65 53.36 83.27C53.34 83.23 53.23 83.07 53.04 82.78C52.78 83.02 52.64 83.15 52.61 83.18C52.37 83.4 51.86 83.98 51.22 84.8C51.22 84.8 51.22 84.8 51.22 84.8C50.27 86 49.24 87.7 48.68 89.66C48.68 89.66 48.68 89.66 48.68 89.66C48.43 90.56 48.27 91.52 48.27 92.51C48.27 95.17 48.83 97.59 49.76 99.35M54.61 86.86C51.96 94.21 50.49 98.3 50.2 99.11C50.18 99.08 50.17 99.05 50.15 99.03C50.12 99.03 49.97 99.08 49.7 99.16L49.7 99.16L50.2 99.11C49.93 99.25 49.79 99.33 49.76 99.35C49.76 99.35 49.76 99.35 49.76 99.35M54.61 86.86C54.88 86.74 55.03 86.67 55.06 86.66C55.69 88.08 56.31 89.77 56.67 91.53C56.93 92.81 57.07 94.14 57.07 95.4C57.07 97.08 56.82 98.67 56.23 99.89M54.61 86.86L56.23 99.89M49.76 99.35C50.57 100.88 51.72 102.04 53.08 102.04C53.29 102.04 53.48 102.03 53.66 102C53.66 102 53.66 102 53.66 102M49.76 99.35L53.66 102M53.66 102C54.86 101.81 55.69 100.98 56.23 99.89C56.23 99.89 56.23 99.89 56.23 99.89M53.66 102L56.23 99.89M49.09 99.52C48.15 97.73 47.55 95.25 47.55 92.51C47.55 91.49 47.71 90.51 47.98 89.57C48.55 87.57 49.61 85.81 50.6 84.55C51.14 83.87 51.7 83.32 52.18 82.96C52.42 82.77 52.62 82.64 52.79 82.55C52.96 82.47 53.04 82.45 53.05 82.45C53.05 82.45 53.05 82.45 53.05 82.45C53.06 82.45 53.1 82.45 53.11 82.45C53.12 82.45 53.13 82.45 53.14 82.46C53.15 82.46 53.16 82.47 53.17 82.48C53.22 82.52 53.3 82.59 53.39 82.69C53.57 82.88 53.8 83.17 54.07 83.54C54.59 84.27 55.2 85.31 55.74 86.51C56.39 87.96 57.01 89.68 57.38 91.47C57.41 91.46 57.57 91.43 57.86 91.37C57.57 91.43 57.41 91.46 57.38 91.47C57.65 92.79 57.8 94.14 57.8 95.4C57.8 97.19 57.51 98.82 56.91 100.05C56.25 101.39 55.24 102.27 53.81 102.5C53.81 102.5 53.81 102.5 53.81 102.5C53.81 102.54 53.84 102.7 53.88 102.99L53.07 102.56C51.1 101.84 49.78 100.83 49.09 99.52Z" id="brtbiJQfA"></path><path d="M52.63 82.72C52.63 82.52 52.63 80.9 52.63 80.7C52.63 80.62 52.73 80.44 52.99 80.44C53.25 80.44 53.36 80.62 53.36 80.7C53.36 80.9 53.36 82.52 53.36 82.72C53.36 82.8 53.25 82.98 52.99 82.98C52.73 82.98 52.63 82.8 52.63 82.72Z" id="fb3STVJft"></path><path d="M110.57 56.37C112.54 55.74 114.79 54.43 116.86 52.59C116.86 52.59 116.86 52.59 116.86 52.59C117.61 51.92 118.24 51.19 118.75 50.43C119.87 48.77 120.48 46.99 120.76 45.58C120.96 44.6 121.06 43.9 121.07 43.64C120.63 43.74 119.17 44.21 117.24 44.95C115.68 45.54 113.93 46.34 112.31 47.33C111.13 48.06 110.01 48.88 109.02 49.75C107.71 50.91 106.69 52.13 106.18 53.27C105.72 54.27 105.69 55.21 106.27 55.94C106.35 56.05 106.46 56.17 106.59 56.28C106.59 56.28 106.59 56.28 106.59 56.28C108.07 56.72 109.4 56.74 110.57 56.37ZM105.38 57.36C105.19 57.19 105.02 57 104.86 56.8C103.92 55.6 103.93 54.18 104.59 52.71C105.19 51.36 106.35 49.97 107.81 48.68C108.85 47.76 110.06 46.87 111.34 46.09C113.07 45.03 114.93 44.18 116.57 43.56C118.51 42.82 120.28 42.41 121.28 42.3C121.52 42.2 121.81 42.2 122.05 42.31C122.06 42.31 122.07 42.32 122.08 42.32C122.09 42.33 122.1 42.33 122.11 42.34C122.16 42.37 122.21 42.4 122.26 42.44C122.26 42.44 122.26 42.44 122.26 42.44L122.27 42.45L122.27 42.45L122.27 42.45C122.26 42.45 122.26 42.45 122.26 42.45C122.6 42.75 122.79 44.13 122.45 45.84C122.13 47.39 121.46 49.36 120.21 51.21C119.63 52.07 118.92 52.91 118.07 53.66C118.07 53.66 118.07 53.66 118.07 53.66C115.82 55.65 113.34 57.08 111.15 57.79C111.15 57.79 111.15 57.79 111.15 57.79C108.15 58.25 106.23 58.1 105.38 57.36ZM121.58 43.05L121.59 43.05L121.06 43.52L121.06 43.52L121.58 43.05ZM121.58 43.05L121.66 42.98L121.59 43.05L121.59 43.05L121.66 42.98" id="bTE8eZvzl"></path><path d="M121.97 43.19C121.82 43.32 121.56 43.32 121.41 43.19C121.3 43.09 121.3 42.96 121.41 42.86C121.41 42.86 121.41 42.86 121.41 42.86C121.52 42.77 122.06 42.29 123.03 41.44C123.03 41.44 123.03 41.44 123.03 41.44C123.17 41.3 123.43 41.3 123.58 41.44C123.69 41.53 123.69 41.66 123.58 41.76C123.58 41.76 123.58 41.76 123.58 41.76C123.47 41.86 122.94 42.33 121.97 43.19C121.97 43.19 121.97 43.19 121.97 43.19Z" id="b11CqUVTKf"></path><path d="M121.83 43.74C123.24 45.5 120.61 49.99 115.94 53.77C111.27 57.55 106.35 59.19 104.93 57.43C103.52 55.68 106.16 51.19 110.82 47.41C115.49 43.63 120.42 41.99 121.83 43.74Z" id="c5y5ntdsG"></path><path d="M93.29 46.83C95.75 46.65 98.08 51.02 98.48 56.59C98.89 62.16 97.22 66.83 94.75 67.01C92.29 67.19 89.96 62.82 89.56 57.24C89.15 51.67 90.82 47.01 93.29 46.83Z" id="h1wRLTRbdJ"></path><path d="M117.43 67.7C117.32 69.89 112.36 71.41 106.36 71.09C100.36 70.78 95.59 68.75 95.7 66.56C95.81 64.37 100.77 62.85 106.77 63.16C112.77 63.47 117.55 65.5 117.43 67.7Z" id="awRJ8MzCD"></path><path d="M80.52 58.97C82.84 59.01 84.65 63.39 84.55 68.76C84.46 74.12 82.5 78.44 80.18 78.4C77.85 78.36 76.04 73.97 76.14 68.61C76.23 63.24 78.19 58.93 80.52 58.97Z" id="c1D5pLpvMS"></path><path d="M66.03 70.91C68.59 70.78 70.9 75.04 71.18 80.43C71.47 85.82 69.62 90.3 67.06 90.44C64.49 90.57 62.19 86.31 61.9 80.92C61.62 75.53 63.47 71.05 66.03 70.91Z" id="aK4Za4l88"></path><path d="M103.5 79.75C103.39 81.94 98.43 83.46 92.43 83.15C86.43 82.83 81.66 80.8 81.77 78.61C81.89 76.42 86.84 74.9 92.84 75.21C98.85 75.53 103.62 77.56 103.5 79.75Z" id="f2LPoJCEb"></path><path d="M89.56 91.84C89.52 94.42 84.65 96.44 78.67 96.35C72.69 96.26 67.88 94.1 67.92 91.52C67.96 88.94 72.83 86.92 78.81 87.01C84.79 87.1 89.6 89.26 89.56 91.84Z" id="b1TzYzuXfI"></path><path d="M75.54 103.5C75.5 106.09 70.63 108.1 64.65 108.02C58.68 107.93 53.86 105.76 53.9 103.18C53.94 100.6 58.81 98.58 64.79 98.67C70.77 98.76 75.58 100.92 75.54 103.5Z" id="cyQxx2PQd"></path><path d="M52.12 83.48C54.67 83.27 57.08 87.22 57.51 92.3C57.93 97.38 56.21 101.68 53.66 101.89C51.11 102.11 48.7 98.16 48.28 93.07C47.86 87.99 49.58 83.7 52.12 83.48Z" id="eEGh73rzT"></path><path d="M59.05 151.5C58.05 150.94 57.27 150.18 56.7 149.21C56.14 148.22 55.87 147.11 55.87 145.87C55.87 144.63 56.14 143.52 56.7 142.55C57.27 141.57 58.05 140.8 59.05 140.26C60.05 139.71 61.18 139.43 62.43 139.43C63.68 139.43 64.8 139.71 65.78 140.26C66.78 140.8 67.56 141.57 68.11 142.55C68.68 143.52 68.97 144.63 68.97 145.87C68.97 147.11 68.68 148.22 68.11 149.21C67.56 150.18 66.78 150.94 65.78 151.5C64.8 152.06 63.68 152.34 62.43 152.34C61.18 152.34 60.05 152.06 59.05 151.5ZM64.59 149.78C65.24 149.4 65.75 148.88 66.11 148.21C66.48 147.52 66.66 146.74 66.66 145.87C66.66 144.99 66.48 144.22 66.11 143.56C65.75 142.87 65.24 142.35 64.59 141.98C63.96 141.61 63.24 141.43 62.43 141.43C61.62 141.43 60.89 141.61 60.24 141.98C59.61 142.35 59.1 142.87 58.72 143.56C58.36 144.22 58.17 144.99 58.17 145.87C58.17 146.74 58.36 147.52 58.72 148.21C59.1 148.88 59.61 149.4 60.24 149.78C60.89 150.15 61.62 150.33 62.43 150.33C63.24 150.33 63.96 150.15 64.59 149.78ZM83.93 152.19L81.65 152.19L81.65 141.55L74.54 141.55L74.54 152.19L72.26 152.19L72.26 139.55L83.93 139.55L83.93 152.19ZM93.13 141.55L93.13 152.19L90.85 152.19L90.85 141.55L86.23 141.55L86.23 139.55L97.74 139.55L97.74 141.55L93.13 141.55ZM101.54 151.5C100.54 150.94 99.76 150.18 99.18 149.21C98.63 148.22 98.35 147.11 98.35 145.87C98.35 144.63 98.63 143.52 99.18 142.55C99.76 141.57 100.54 140.8 101.54 140.26C102.54 139.71 103.66 139.43 104.91 139.43C106.17 139.43 107.28 139.71 108.27 140.26C109.26 140.8 110.04 141.57 110.6 142.55C111.17 143.52 111.45 144.63 111.45 145.87C111.45 147.11 111.17 148.22 110.6 149.21C110.04 150.18 109.26 150.94 108.27 151.5C107.28 152.06 106.17 152.34 104.91 152.34C103.66 152.34 102.54 152.06 101.54 151.5ZM107.08 149.78C107.73 149.4 108.23 148.88 108.6 148.21C108.96 147.52 109.15 146.74 109.15 145.87C109.15 144.99 108.96 144.22 108.6 143.56C108.23 142.87 107.73 142.35 107.08 141.98C106.44 141.61 105.72 141.43 104.91 141.43C104.11 141.43 103.38 141.61 102.73 141.98C102.09 142.35 101.59 142.87 101.21 143.56C100.84 144.22 100.66 144.99 100.66 145.87C100.66 146.74 100.84 147.52 101.21 148.21C101.59 148.88 102.09 149.4 102.73 149.78C103.38 150.15 104.11 150.33 104.91 150.33C105.72 150.33 106.44 150.15 107.08 149.78ZM125.78 148.71C125.78 149.82 125.36 150.68 124.52 151.29C123.69 151.89 122.46 152.19 120.81 152.19C120.4 152.19 118.38 152.19 114.75 152.19L114.75 139.55C118.26 139.55 120.21 139.55 120.59 139.55C122.08 139.55 123.25 139.83 124.09 140.41C124.93 140.96 125.35 141.76 125.35 142.79C125.35 143.46 125.17 144.04 124.8 144.53C124.45 145.01 123.96 145.38 123.33 145.63C124.96 146.04 125.78 147.07 125.78 148.71ZM120.4 144.99C121.28 144.99 121.93 144.83 122.38 144.51C122.84 144.19 123.07 143.73 123.07 143.13C123.07 141.92 122.18 141.31 120.4 141.31C120.18 141.31 119.04 141.31 116.98 141.31L116.98 144.99C119.04 144.99 120.18 144.99 120.4 144.99ZM122.78 149.97C123.26 149.67 123.5 149.2 123.5 148.57C123.5 147.91 123.27 147.43 122.83 147.11C122.4 146.79 121.72 146.63 120.79 146.63C120.53 146.63 119.26 146.63 116.98 146.63L116.98 150.43L120.64 150.43C121.75 150.33 122.47 150.18 122.78 149.97ZM137.84 140.72C138.77 141.57 139.24 142.86 139.24 144.56C139.24 145.07 139.24 147.61 139.24 152.19L137.08 152.19C137.08 151.19 137.08 150.63 137.08 150.52C136.7 151.11 136.15 151.56 135.44 151.88C134.74 152.18 133.91 152.34 132.94 152.34C131.53 152.34 130.4 151.99 129.54 151.31C128.7 150.63 128.28 149.73 128.28 148.61C128.28 147.5 128.68 146.61 129.49 145.94C130.3 145.26 131.58 144.92 133.34 144.92C133.58 144.92 134.79 144.92 136.96 144.92C136.96 144.64 136.96 144.49 136.96 144.46C136.96 143.48 136.67 142.72 136.1 142.2C135.53 141.67 134.69 141.41 133.58 141.41C132.84 141.41 132.11 141.53 131.39 141.79C130.68 142.03 130.08 142.35 129.59 142.77C129.49 142.6 128.73 141.22 128.64 141.05C129.29 140.52 130.06 140.13 130.97 139.86C131.87 139.57 132.83 139.43 133.84 139.43C135.59 139.43 136.92 139.86 137.84 140.72ZM135.58 150C136.21 149.6 136.67 149.04 136.96 148.33C136.96 148.21 136.96 147.62 136.96 146.56C134.85 146.56 133.67 146.56 133.44 146.56C131.5 146.56 130.54 147.21 130.54 148.52C130.54 149.15 130.78 149.66 131.28 150.02C131.77 150.39 132.45 150.57 133.32 150.57C134.19 150.57 134.94 150.38 135.58 150ZM154.51 141.55L154.51 152.19L152.23 152.19L152.23 141.55L147.62 141.55L147.62 139.55L159.12 139.55L159.12 141.55L154.51 141.55ZM162.92 151.5C161.92 150.94 161.14 150.18 160.57 149.21C160.01 148.22 159.73 147.11 159.73 145.87C159.73 144.63 160.01 143.52 160.57 142.55C161.14 141.57 161.92 140.8 162.92 140.26C163.92 139.71 165.04 139.43 166.3 139.43C167.55 139.43 168.67 139.71 169.65 140.26C170.65 140.8 171.42 141.57 171.98 142.55C172.55 143.52 172.83 144.63 172.83 145.87C172.83 147.11 172.55 148.22 171.98 149.21C171.42 150.18 170.65 150.94 169.65 151.5C168.67 152.06 167.55 152.34 166.3 152.34C165.04 152.34 163.92 152.06 162.92 151.5ZM168.46 149.78C169.11 149.4 169.62 148.88 169.98 148.21C170.35 147.52 170.53 146.74 170.53 145.87C170.53 144.99 170.35 144.22 169.98 143.56C169.62 142.87 169.11 142.35 168.46 141.98C167.83 141.61 167.1 141.43 166.3 141.43C165.49 141.43 164.76 141.61 164.11 141.98C163.47 142.35 162.97 142.87 162.59 143.56C162.22 144.22 162.04 144.99 162.04 145.87C162.04 146.74 162.22 147.52 162.59 148.21C162.97 148.88 163.47 149.4 164.11 149.78C164.76 150.15 165.49 150.33 166.3 150.33C167.1 150.33 167.83 150.15 168.46 149.78ZM186.09 140.24C187.06 140.78 187.81 141.53 188.35 142.51C188.9 143.48 189.18 144.6 189.18 145.87C189.18 147.14 188.9 148.27 188.35 149.26C187.81 150.23 187.06 150.98 186.09 151.52C185.12 152.07 184.03 152.34 182.81 152.34C181.91 152.34 181.07 152.16 180.31 151.81C179.57 151.46 178.93 150.95 178.41 150.28C178.41 150.72 178.41 152.9 178.41 156.82L176.13 156.82L176.13 139.55L178.32 139.55C178.32 140.75 178.32 141.42 178.32 141.55C178.82 140.85 179.47 140.33 180.24 139.98C181.02 139.61 181.87 139.43 182.81 139.43C184.03 139.43 185.12 139.7 186.09 140.24ZM184.78 149.78C185.43 149.4 185.94 148.88 186.3 148.21C186.68 147.52 186.87 146.74 186.87 145.87C186.87 144.99 186.68 144.22 186.3 143.56C185.94 142.87 185.43 142.35 184.78 141.98C184.15 141.61 183.43 141.43 182.62 141.43C181.83 141.43 181.11 141.62 180.46 142C179.82 142.37 179.31 142.89 178.93 143.56C178.57 144.22 178.39 144.99 178.39 145.87C178.39 146.74 178.57 147.52 178.93 148.21C179.3 148.88 179.81 149.4 180.46 149.78C181.11 150.15 181.83 150.33 182.62 150.33C183.43 150.33 184.15 150.15 184.78 149.78ZM194.78 141.55L194.78 152.19L192.5 152.19L192.5 139.55L201.77 139.55L201.77 141.55L194.78 141.55ZM206.39 139.55L206.39 152.19L204.1 152.19L204.1 139.55L206.39 139.55ZM204.13 136.68C203.84 136.4 203.7 136.05 203.7 135.63C203.7 135.22 203.84 134.87 204.13 134.58C204.43 134.28 204.8 134.13 205.25 134.13C205.69 134.13 206.05 134.27 206.34 134.56C206.64 134.83 206.79 135.17 206.79 135.59C206.79 136.01 206.64 136.38 206.34 136.68C206.05 136.97 205.69 137.11 205.25 137.11C204.8 137.11 204.43 136.97 204.13 136.68ZM221.87 148.71C221.87 149.82 221.45 150.68 220.61 151.29C219.78 151.89 218.55 152.19 216.9 152.19C216.49 152.19 214.47 152.19 210.84 152.19L210.84 139.55C214.35 139.55 216.29 139.55 216.68 139.55C218.17 139.55 219.34 139.83 220.18 140.41C221.02 140.96 221.44 141.76 221.44 142.79C221.44 143.46 221.26 144.04 220.89 144.53C220.54 145.01 220.05 145.38 219.42 145.63C221.05 146.04 221.87 147.07 221.87 148.71ZM216.49 144.99C217.37 144.99 218.02 144.83 218.47 144.51C218.93 144.19 219.16 143.73 219.16 143.13C219.16 141.92 218.27 141.31 216.49 141.31C216.27 141.31 215.13 141.31 213.07 141.31L213.07 144.99C215.13 144.99 216.27 144.99 216.49 144.99ZM218.87 149.97C219.35 149.67 219.58 149.2 219.58 148.57C219.58 147.91 219.36 147.43 218.92 147.11C218.49 146.79 217.81 146.63 216.87 146.63C216.62 146.63 215.35 146.63 213.07 146.63L213.07 150.43L216.73 150.43C217.84 150.33 218.55 150.18 218.87 149.97ZM236.26 152.19L233.97 152.19L233.97 141.55L228.55 141.55C228.47 143.24 228.42 144.18 228.41 144.37C228.33 146.07 228.18 147.49 227.96 148.64C227.74 149.77 227.37 150.67 226.87 151.36C226.36 152.04 225.65 152.38 224.75 152.38C224.34 152.38 223.87 152.31 223.35 152.17C223.36 151.98 223.48 150.43 223.49 150.24C223.7 150.28 223.89 150.31 224.06 150.31C224.7 150.31 225.17 150.03 225.49 149.47C225.8 148.92 226.01 148.26 226.11 147.49C226.2 146.73 226.29 145.64 226.37 144.22C226.38 143.91 226.45 142.35 226.58 139.55L236.26 139.55L236.26 152.19ZM250.77 152.19L248.73 152.19L248.73 148.18L245.07 148.18L244.81 148.18L242.05 152.19L239.6 152.19C241.44 149.6 242.46 148.16 242.67 147.87C241.72 147.59 240.99 147.12 240.48 146.47C239.97 145.8 239.72 144.97 239.72 143.98C239.72 142.54 240.21 141.44 241.19 140.69C242.18 139.93 243.53 139.55 245.26 139.55C245.63 139.55 247.46 139.55 250.77 139.55L250.77 152.19ZM242.83 145.94C243.37 146.34 244.17 146.54 245.23 146.54C245.47 146.54 246.63 146.54 248.73 146.54L248.73 141.55C246.69 141.55 245.56 141.55 245.33 141.55C243.14 141.55 242.05 142.39 242.05 144.06C242.05 144.9 242.31 145.53 242.83 145.94ZM270.38 146.68C270.84 147.17 271.07 147.79 271.07 148.52C271.07 149.27 270.82 149.93 270.31 150.52C269.8 151.1 269.1 151.55 268.19 151.88C267.31 152.2 266.31 152.36 265.2 152.36C264.26 152.36 263.34 152.24 262.44 152C261.55 151.75 260.76 151.39 260.06 150.93C260.13 150.75 260.68 149.36 260.75 149.19C261.36 149.57 262.05 149.87 262.82 150.09C263.6 150.3 264.38 150.4 265.18 150.4C266.25 150.4 267.11 150.22 267.74 149.85C268.39 149.47 268.72 148.96 268.72 148.33C268.72 147.74 268.46 147.29 267.93 146.97C267.43 146.65 266.7 146.49 265.77 146.49C265.62 146.49 264.85 146.49 263.46 146.49L263.46 144.84C264.75 144.84 265.46 144.84 265.6 144.84C266.46 144.84 267.13 144.69 267.62 144.39C268.12 144.09 268.36 143.67 268.36 143.15C268.36 142.58 268.07 142.13 267.48 141.81C266.91 141.5 266.13 141.34 265.15 141.34C263.9 141.34 262.58 141.66 261.18 142.31C261.12 142.14 260.63 140.73 260.56 140.55C262.1 139.77 263.71 139.38 265.39 139.38C266.4 139.38 267.31 139.52 268.12 139.81C268.93 140.1 269.57 140.5 270.03 141.03C270.48 141.55 270.71 142.15 270.71 142.82C270.71 143.44 270.51 143.99 270.1 144.49C269.68 144.98 269.13 145.35 268.43 145.61C269.27 145.83 269.92 146.19 270.38 146.68ZM285.88 146.63C284.86 146.63 276.68 146.63 275.66 146.63C275.8 147.75 276.28 148.65 277.11 149.33C277.95 150 278.99 150.33 280.22 150.33C281.73 150.33 282.94 149.82 283.86 148.8C283.99 148.95 284.99 150.14 285.12 150.28C284.55 150.95 283.84 151.46 282.98 151.81C282.14 152.16 281.2 152.34 280.15 152.34C278.82 152.34 277.64 152.07 276.61 151.52C275.58 150.97 274.78 150.2 274.21 149.21C273.65 148.22 273.38 147.11 273.38 145.87C273.38 144.64 273.65 143.54 274.18 142.55C274.74 141.57 275.49 140.8 276.44 140.26C277.41 139.71 278.5 139.43 279.7 139.43C280.9 139.43 281.97 139.71 282.91 140.26C283.86 140.8 284.6 141.57 285.12 142.55C285.66 143.54 285.93 144.67 285.93 145.94C285.93 146.12 285.91 146.35 285.88 146.63ZM276.94 142.36C276.21 143.03 275.79 143.91 275.66 144.99C276.47 144.99 282.93 144.99 283.74 144.99C283.61 143.92 283.18 143.05 282.43 142.39C281.7 141.7 280.79 141.36 279.7 141.36C278.61 141.36 277.69 141.69 276.94 142.36ZM299.43 140.24C300.4 140.78 301.15 141.53 301.69 142.51C302.24 143.48 302.52 144.6 302.52 145.87C302.52 147.14 302.24 148.27 301.69 149.26C301.15 150.23 300.4 150.98 299.43 151.52C298.46 152.07 297.37 152.34 296.15 152.34C295.25 152.34 294.41 152.16 293.65 151.81C292.91 151.46 292.27 150.95 291.75 150.28C291.75 150.72 291.75 152.9 291.75 156.82L289.47 156.82L289.47 139.55L291.66 139.55C291.66 140.75 291.66 141.42 291.66 141.55C292.16 140.85 292.8 140.33 293.58 139.98C294.36 139.61 295.21 139.43 296.15 139.43C297.37 139.43 298.46 139.7 299.43 140.24ZM298.12 149.78C298.77 149.4 299.28 148.88 299.64 148.21C300.02 147.52 300.21 146.74 300.21 145.87C300.21 144.99 300.02 144.22 299.64 143.56C299.28 142.87 298.77 142.35 298.12 141.98C297.49 141.61 296.77 141.43 295.96 141.43C295.17 141.43 294.44 141.62 293.8 142C293.16 142.37 292.65 142.89 292.27 143.56C291.91 144.22 291.73 144.99 291.73 145.87C291.73 146.74 291.91 147.52 292.27 148.21C292.64 148.88 293.15 149.4 293.8 149.78C294.44 150.15 295.17 150.33 295.96 150.33C296.77 150.33 297.49 150.15 298.12 149.78ZM308.12 139.55L308.12 144.92L315.3 144.92L315.3 139.55L317.58 139.55L317.58 152.19L315.3 152.19L315.3 146.9L308.12 146.9L308.12 152.19L305.84 152.19L305.84 139.55L308.12 139.55ZM324.04 151.5C323.04 150.94 322.26 150.18 321.68 149.21C321.13 148.22 320.85 147.11 320.85 145.87C320.85 144.63 321.13 143.52 321.68 142.55C322.26 141.57 323.04 140.8 324.04 140.26C325.04 139.71 326.16 139.43 327.41 139.43C328.67 139.43 329.78 139.71 330.77 140.26C331.76 140.8 332.54 141.57 333.1 142.55C333.67 143.52 333.95 144.63 333.95 145.87C333.95 147.11 333.67 148.22 333.1 149.21C332.54 150.18 331.76 150.94 330.77 151.5C329.78 152.06 328.67 152.34 327.41 152.34C326.16 152.34 325.04 152.06 324.04 151.5ZM329.58 149.78C330.23 149.4 330.73 148.88 331.1 148.21C331.46 147.52 331.65 146.74 331.65 145.87C331.65 144.99 331.46 144.22 331.1 143.56C330.73 142.87 330.23 142.35 329.58 141.98C328.94 141.61 328.22 141.43 327.41 141.43C326.61 141.43 325.88 141.61 325.23 141.98C324.59 142.35 324.09 142.87 323.71 143.56C323.34 144.22 323.16 144.99 323.16 145.87C323.16 146.74 323.34 147.52 323.71 148.21C324.09 148.88 324.59 149.4 325.23 149.78C325.88 150.15 326.61 150.33 327.41 150.33C328.22 150.33 328.94 150.15 329.58 149.78ZM351.77 152.19L349.7 152.19L349.7 142.96L345 150.76L344 150.76L339.34 142.93L339.34 152.19L337.25 152.19L337.25 139.55L339.6 139.55L344.55 148.09L349.63 139.55L351.77 139.55L351.77 152.19Z" id="dOBUiHhPe"></path></defs><g><g><g><g><use xlink:href="#b1LO6qN0mB" opacity="1" fill="#1b7340" fill-opacity="1"></use></g><g><use xlink:href="#cMtr3HYik" opacity="1" fill="#ffffff" fill-opacity="1"></use><g><use xlink:href="#cMtr3HYik" opacity="1" fill-opacity="0" stroke="#000000" stroke-width="1" stroke-opacity="0"></use></g></g><g><use xlink:href="#cTZZL16Z7" opacity="1" fill="#000000" fill-opacity="1"></use><g><use xlink:href="#cTZZL16Z7" opacity="1" fill-opacity="0" stroke="#000000" stroke-width="1" stroke-opacity="0"></use></g></g><g><use xlink:href="#a2btdQMAid" opacity="1" fill="#1b7340" fill-opacity="1"></use><g><use xlink:href="#a2btdQMAid" opacity="1" fill-opacity="0" stroke="#000000" stroke-width="1" stroke-opacity="0"></use></g></g><g><use xlink:href="#aqqBbDlpt" opacity="1" fill="#ffcc57" fill-opacity="1"></use><g><use xlink:href="#aqqBbDlpt" opacity="1" fill-opacity="0" stroke="#ffcc57" stroke-width="1" stroke-opacity="1"></use></g></g><g><use xlink:href="#afcTvbHX4" opacity="1" fill="#ffcc57" fill-opacity="1"></use><g><use xlink:href="#afcTvbHX4" opacity="1" fill-opacity="0" stroke="#ffcc57" stroke-width="1" stroke-opacity="1"></use></g></g><g><use xlink:href="#cGb3weUa3" opacity="1" fill="#ffcc57" fill-opacity="1"></use><g><use xlink:href="#cGb3weUa3" opacity="1" fill-opacity="0" stroke="#ffcc57" stroke-width="1" stroke-opacity="1"></use></g></g><g><use xlink:href="#aQjF2Yonu" opacity="1" fill="#ffcc57" fill-opacity="1"></use><g><use xlink:href="#aQjF2Yonu" opacity="1" fill-opacity="0" stroke="#ffcc57" stroke-width="1" stroke-opacity="1"></use></g></g><g><use xlink:href="#a18z5jWcl4" opacity="1" fill="#ffcc57" fill-opacity="1"></use><g><use xlink:href="#a18z5jWcl4" opacity="1" fill-opacity="0" stroke="#ffcc57" stroke-width="1" stroke-opacity="1"></use></g></g><g><use xlink:href="#dyjDMZbJo" opacity="1" fill="#ffcc57" fill-opacity="1"></use><g><use xlink:href="#dyjDMZbJo" opacity="1" fill-opacity="0" stroke="#ffcc57" stroke-width="1" stroke-opacity="1"></use></g></g><g><use xlink:href="#g52BfSHjeI" opacity="1" fill="#ffcc57" fill-opacity="1"></use><g><use xlink:href="#g52BfSHjeI" opacity="1" fill-opacity="0" stroke="#ffcc57" stroke-width="1" stroke-opacity="1"></use></g></g><g><use xlink:href="#a12kaqcHVP" opacity="1" fill="#ffcc57" fill-opacity="1"></use><g><use xlink:href="#a12kaqcHVP" opacity="1" fill-opacity="0" stroke="#ffcc57" stroke-width="1" stroke-opacity="1"></use></g></g><g><use xlink:href="#cAbsRVDZ8" opacity="1" fill="#ffcc57" fill-opacity="1"></use><g><use xlink:href="#cAbsRVDZ8" opacity="1" fill-opacity="0" stroke="#ffcc57" stroke-width="1" stroke-opacity="1"></use></g></g><g><use xlink:href="#a44pQ2d2n" opacity="1" fill="#ffcc57" fill-opacity="1"></use><g><use xlink:href="#a44pQ2d2n" opacity="1" fill-opacity="0" stroke="#ffcc57" stroke-width="1" stroke-opacity="1"></use></g></g><g><use xlink:href="#pfmRutApA" opacity="1" fill="#ffcc57" fill-opacity="1"></use><g><use xlink:href="#pfmRutApA" opacity="1" fill-opacity="0" stroke="#ffcc57" stroke-width="1" stroke-opacity="1"></use></g></g><g><use xlink:href="#h1Xv38dugb" opacity="1" fill="#ffcc57" fill-opacity="1"></use><g><use xlink:href="#h1Xv38dugb" opacity="1" fill-opacity="0" stroke="#ffcc57" stroke-width="1" stroke-opacity="1"></use></g></g><g><use xlink:href="#a7B6Tr8HnI" opacity="1" fill="#ffcc57" fill-opacity="1"></use><g><use xlink:href="#a7B6Tr8HnI" opacity="1" fill-opacity="0" stroke="#ffcc57" stroke-width="1" stroke-opacity="1"></use></g></g><g><use xlink:href="#cAcuPhGuF" opacity="1" fill="#ffcc57" fill-opacity="1"></use><g><use xlink:href="#cAcuPhGuF" opacity="1" fill-opacity="0" stroke="#ffcc57" stroke-width="1" stroke-opacity="1"></use></g></g><g><use xlink:href="#a8gxjnVxCv" opacity="1" fill="#ffcc57" fill-opacity="1"></use><g><use xlink:href="#a8gxjnVxCv" opacity="1" fill-opacity="0" stroke="#ffcc57" stroke-width="1" stroke-opacity="1"></use></g></g><g><use xlink:href="#brtbiJQfA" opacity="1" fill="#ffcc57" fill-opacity="1"></use><g><use xlink:href="#brtbiJQfA" opacity="1" fill-opacity="0" stroke="#ffcc57" stroke-width="1" stroke-opacity="1"></use></g></g><g><use xlink:href="#fb3STVJft" opacity="1" fill="#ffcc57" fill-opacity="1"></use><g><use xlink:href="#fb3STVJft" opacity="1" fill-opacity="0" stroke="#ffcc57" stroke-width="1" stroke-opacity="1"></use></g></g><g><use xlink:href="#bTE8eZvzl" opacity="1" fill="#ffcc57" fill-opacity="1"></use><g><use xlink:href="#bTE8eZvzl" opacity="1" fill-opacity="0" stroke="#000000" stroke-width="1" stroke-opacity="0"></use></g></g><g><use xlink:href="#b11CqUVTKf" opacity="1" fill="#ffcc57" fill-opacity="1"></use><g><use xlink:href="#b11CqUVTKf" opacity="1" fill-opacity="0" stroke="#ffcc57" stroke-width="1" stroke-opacity="1"></use></g></g><g><use xlink:href="#c5y5ntdsG" opacity="1" fill="#ffcc57" fill-opacity="1"></use><g><use xlink:href="#c5y5ntdsG" opacity="1" fill-opacity="0" stroke="#000000" stroke-width="1" stroke-opacity="0"></use></g></g><g><use xlink:href="#h1wRLTRbdJ" opacity="1" fill="#ffcc57" fill-opacity="1"></use><g><use xlink:href="#h1wRLTRbdJ" opacity="1" fill-opacity="0" stroke="#000000" stroke-width="1" stroke-opacity="0"></use></g></g><g><use xlink:href="#awRJ8MzCD" opacity="1" fill="#ffcc57" fill-opacity="1"></use><g><use xlink:href="#awRJ8MzCD" opacity="1" fill-opacity="0" stroke="#000000" stroke-width="1" stroke-opacity="0"></use></g></g><g><use xlink:href="#c1D5pLpvMS" opacity="1" fill="#ffcc57" fill-opacity="1"></use><g><use xlink:href="#c1D5pLpvMS" opacity="1" fill-opacity="0" stroke="#000000" stroke-width="1" stroke-opacity="0"></use></g></g><g><use xlink:href="#aK4Za4l88" opacity="1" fill="#ffcc57" fill-opacity="1"></use><g><use xlink:href="#aK4Za4l88" opacity="1" fill-opacity="0" stroke="#000000" stroke-width="1" stroke-opacity="0"></use></g></g><g><use xlink:href="#f2LPoJCEb" opacity="1" fill="#ffcc57" fill-opacity="1"></use><g><use xlink:href="#f2LPoJCEb" opacity="1" fill-opacity="0" stroke="#000000" stroke-width="1" stroke-opacity="0"></use></g></g><g><use xlink:href="#b1TzYzuXfI" opacity="1" fill="#ffcc57" fill-opacity="1"></use><g><use xlink:href="#b1TzYzuXfI" opacity="1" fill-opacity="0" stroke="#000000" stroke-width="1" stroke-opacity="0"></use></g></g><g><use xlink:href="#cyQxx2PQd" opacity="1" fill="#ffcc57" fill-opacity="1"></use><g><use xlink:href="#cyQxx2PQd" opacity="1" fill-opacity="0" stroke="#000000" stroke-width="1" stroke-opacity="0"></use></g></g><g><use xlink:href="#eEGh73rzT" opacity="1" fill="#ffcc57" fill-opacity="1"></use><g><use xlink:href="#eEGh73rzT" opacity="1" fill-opacity="0" stroke="#000000" stroke-width="1" stroke-opacity="0"></use></g></g><g><use xlink:href="#dOBUiHhPe" opacity="1" fill="#ffffff" fill-opacity="1"></use><g><use xlink:href="#dOBUiHhPe" opacity="1" fill-opacity="0" stroke="#000000" stroke-width="1" stroke-opacity="0"></use></g></g></g></g></g></svg>